<svg version="1.1" xmlns="http://www.w3.org/2000/svg" xmlns:xlink="http://www.w3.org/1999/xlink" width="85.17089" height="172.26617" viewBox="0,0,85.17089,172.26617"><g transform="translate(-201.42864,-70.60268)"><g stroke-miterlimit="10"><path d="M218.25,238.84063v-107.34063h51v107.34063z" fill="#a2a2a2" stroke="#2b2b2b" stroke-width="6.5" stroke-linecap="butt"/><path d="M218.84616,130.45045l24.90759,-36.03604l24.90759,36.03604z" fill="#a2a2a2" stroke="#2b2b2b" stroke-width="6.5" stroke-linecap="butt"/><path d="M237.61865,135.37375c-2.53306,0.29217 -4.41403,0.087 -5.74034,-0.41855c-0.73247,1.36034 -1.60573,2.67778 -2.6283,4.04481l-1.65743,-2.36054l-2.03129,-0.55449l-0.29382,0.39175c-0.14579,0.19884 -0.32028,0.37534 -0.51735,0.52338c-0.45611,0.60716 -1.18224,0.9999 -2.0001,0.9999c-1.38071,0 -2.5,-1.11929 -2.5,-2.5c0,-0.34826 0.07121,-0.67989 0.19986,-0.98112l0.6937,-1.73425l0.15499,-0.77493l0.24099,0.0482c0.01082,-0.29784 0.04083,-0.59487 0.09545,-0.89084c0.10566,-0.57251 0.71444,-0.83315 1.2991,-1.10874l0.97309,-2.43273c0.35452,-0.94948 1.26971,-1.62559 2.34282,-1.62559c0.1204,0 0.23881,0.00851 0.35467,0.02497c0.43071,-0.11039 0.95234,-0.09474 1.57381,0.15384c0.6118,0.24472 0.99785,0.5862 1.23464,0.95642c0.25249,-0.66623 0.98776,-1.95456 2.82717,-1.58668c1.1405,0.2281 1.64428,0.88068 1.85693,1.5134c0.15573,-0.02374 0.3143,-0.0424 0.47555,-0.05566c0.3546,-0.02917 0.65757,0.10112 0.92949,0.32686c0.16025,-0.09247 0.33171,-0.16768 0.51185,-0.22308l2.89904,-0.96635c4.69993,-1.79411 10.47924,-1.35637 15.47417,0.53644c0.01303,-0.03587 0.02685,-0.07208 0.04147,-0.10864c0.92848,-2.32119 3.24967,-1.39272 3.24967,-1.39272c0.93346,0.37339 5.38802,2.10215 5.83929,2.55342c0.86808,0.86808 1.03562,2.22619 1.55342,3.33929l0.97894,2.44736c0.12865,0.30123 0.19986,0.63286 0.19986,0.98112c0,1.38071 -1.11929,2.5 -2.5,2.5c-0.57786,0 -1.10992,-0.19605 -1.53331,-0.52528c-0.28847,0.35725 -0.64563,0.72561 -1.07994,1.1054c-0.7693,0.67274 -1.88283,0.4797 -2.98794,0.20119c-0.07497,0.19434 -0.17932,0.39638 -0.31868,0.60543c-1.38675,2.08013 -3.46688,0.69338 -3.46688,0.69338l-1.04173,-0.75893c-0.86356,-0.34542 -1.72769,-0.68432 -2.59086,-1.02113c-0.88608,1.20648 -1.79075,2.1314 -2.62711,2.17481c-2.1859,0.11347 -3.13314,-2.83779 -4.71245,-4.56482c-1.14316,0.03064 -2.28684,0.08376 -3.39476,0.07778c-0.65283,0.13369 -1.27167,0.23967 -1.85759,0.32013c-0.15314,0.10294 -0.24216,0.16693 -0.24231,0.16691c-0.09691,-0.01766 -0.18936,-0.05222 -0.2778,-0.10113z" fill="#a2a2a2" stroke="none" stroke-width="0.5" stroke-linecap="butt"/><path d="M203.92864,240.22934l1.55734,-109.01402l37.22248,-56.24289l41.37934,56.38241l-1.55734,109.01402" fill="none" stroke="#2b2b2b" stroke-width="5" stroke-linecap="round"/><path d="M204.51884,222.17607h12.49842" fill="none" stroke="#333333" stroke-width="5.5" stroke-linecap="round"/><path d="M216.32291,150.65731h-9.721" fill="none" stroke="#333333" stroke-width="5.5" stroke-linecap="round"/><path d="M282.98116,149.96296h-9.02664" fill="none" stroke="#333333" stroke-width="5.5" stroke-linecap="round"/><path d="M282.28681,223.56478h-9.721" fill="none" stroke="#333333" stroke-width="5.5" stroke-linecap="round"/><path d="M223.96083,103.44105l8.33229,6.94357" fill="none" stroke="#2b2b2b" stroke-width="5" stroke-linecap="round"/><path d="M255.20689,108.30155l4.16614,-4.16614" fill="none" stroke="#2b2b2b" stroke-width="5" stroke-linecap="round"/></g></g></svg>