<svg version="1.1" xmlns="http://www.w3.org/2000/svg" xmlns:xlink="http://www.w3.org/1999/xlink" width="280.23377" height="107.59643" viewBox="0,0,280.23377,107.59643"><g transform="translate(-101.25133,-117.9897)"><g stroke-miterlimit="10"><g stroke-linecap="butt"><path d="M123.50133,215.5v-71h187v71z" fill="#8e8e8e" stroke="#000000" stroke-width="5"/><path d="M311.64933,144.86621l64.59934,34.44663l-63.89603,35.36658z" fill="#8e8e8e" stroke="#000000" stroke-width="5"/><path d="M302.58307,209.62719c0.18251,-2.0131 1.71058,-2.41235 2.50752,-2.48258c-0.00267,-0.25592 0.00903,-0.51929 0.03605,-0.78988c0.02848,-0.28518 0.21095,-0.68726 0.50455,-1.15163c-0.0507,-0.06789 -0.10076,-0.13801 -0.15022,-0.21032c-0.03907,0.02166 -0.07685,0.04252 -0.11333,0.06257l-2.92021,1.64606c-0.40856,0.24053 -0.88474,0.37849 -1.39315,0.37849c-1.51878,0 -2.75,-1.23121 -2.75,-2.75c0,-0.69365 0.25681,-1.32731 0.68055,-1.8111l2.44769,-2.82644l0.13653,0.11822c0.19101,-0.26122 0.40174,-0.50844 0.63684,-0.73834c0.29384,-0.28734 0.64587,-0.45868 1.03327,-0.56023c-0.45984,-2.43929 -0.73744,-5.20802 -0.847,-7.97705c-0.21395,-0.2701 -0.4124,-0.56885 -0.59363,-0.89815c-0.70475,-1.2806 -0.46199,-2.65545 0.30585,-4.05494c-3.06289,-4.08512 -2.43987,-11.57347 0.70343,-16.40111c-0.17892,-1.62532 -0.31577,-3.16666 -0.39783,-4.58677l-0.32825,-0.69835c-0.18295,-0.36817 -0.28582,-0.78315 -0.28582,-1.22216c0,-0.6107 0.19907,-1.17491 0.53585,-1.63127c0.0542,-2.23342 0.35098,-3.89969 0.9792,-4.73847c1.85444,-2.47601 3.42697,-3.50172 4.73005,-3.52444l0.03516,-0.17579l-0.05492,-0.02353c-0.38236,-0.02034 -0.78368,-0.01557 -1.18659,0.00337c0,0 -2.75,0 -2.75,-2.75c0,-2.75 2.75,-2.75 2.75,-2.75c3.69218,0.10086 7.97862,1.05453 9.30558,5.30964c0.39243,1.25839 -0.17934,2.6302 -0.26901,3.94531l-0.09459,0.14721l0.05924,0.01481l-0.65272,2.61086c-0.11052,0.48704 -0.35032,0.92499 -0.68142,1.27585c0.00792,0.00194 0.01586,0.0039 0.02382,0.0059c2.66746,0.66868 1.99879,3.33614 1.99879,3.33614c-0.12428,0.49302 -0.26308,1.29829 -0.42784,2.32267c0.0505,0.18933 0.09943,0.37955 0.14675,0.57039c4.53626,3.09674 5.37778,9.0029 4.46339,14.82307c0.68606,-0.11534 1.32261,-0.10157 1.8883,0.08757c0.62424,-0.16804 1.25876,-0.33974 1.90169,-0.5231l0.30929,0.08281l-0.00695,-0.11756l2.57925,-0.15251c0.06164,-0.00413 0.12383,-0.00623 0.18651,-0.00623c1.51878,0 2.75,1.23121 2.75,2.75c0,0.8204 -0.35925,1.5569 -0.92902,2.06076l-2.29516,2.04799c-0.87494,1.36205 -1.8635,2.66956 -3.38179,4.29583c-0.42031,0.45021 -0.84546,0.91152 -1.29549,1.34208c1.01545,0.00356 2.12222,0.25526 3.39319,0.88185c5.92998,2.92348 3.73362,6.11414 -0.09442,8.84417c-1.00455,0.71642 -2.38052,0.65859 -3.59071,0.89903c-1.80491,0.3586 -3.64012,0.56601 -5.47776,0.73856c0.89079,1.02994 0.52563,2.49055 0.52563,2.49055c-0.41364,1.26091 -0.32742,2.82015 -1.24091,3.78271c-1.96708,2.07274 -4.90981,2.4613 -7.23275,1.50931c-0.47212,0.07274 -0.97666,0.15283 -1.51789,0.26111l-2.10415,-0.10584c0,0 -2.73876,-0.2483 -2.49046,-2.98707z" fill="#8e8e8e" stroke="none" stroke-width="0.5"/><path d="M103.75133,201.5v-42.5h19.5v42.5z" fill="#4b4b4b" stroke="#000000" stroke-width="5"/></g><g><path d="M144.40968,190.09032v-29.75699h29.75699v29.75699z" fill="#6b6b6b" stroke="#000000" stroke-width="2.5" stroke-linecap="butt"/><path d="M155.31075,206v-25.33763h8.24946v25.33763z" fill="#6b6b6b" stroke="#000000" stroke-width="2.5" stroke-linecap="butt"/><path d="M151.48065,188.91183v-11.49032h19.15054v11.49032z" fill="#6b6b6b" stroke="none" stroke-width="0" stroke-linecap="butt"/><path d="M149.12365,190.67957l5.30323,7.36559" fill="none" stroke="#000000" stroke-width="2.5" stroke-linecap="round"/><path d="M163.85484,198.63441l5.59785,-7.66021" fill="none" stroke="#000000" stroke-width="2.5" stroke-linecap="round"/></g><g><path d="M274.40968,190.09033v-29.75699h29.75698v29.75699z" fill="#6b6b6b" stroke="#000000" stroke-width="2.5" stroke-linecap="butt"/><path d="M285.31075,206v-25.33764h8.24946v25.33764z" fill="#6b6b6b" stroke="#000000" stroke-width="2.5" stroke-linecap="butt"/><path d="M281.48064,188.91183v-11.49032h19.15054v11.49032z" fill="#6b6b6b" stroke="none" stroke-width="0" stroke-linecap="butt"/><path d="M284.42688,198.04516l-5.30322,-7.36559" fill="none" stroke="#000000" stroke-width="2.5" stroke-linecap="round"/><path d="M299.45269,190.9742l-5.59785,7.66021" fill="none" stroke="#000000" stroke-width="2.5" stroke-linecap="round"/></g><g><path d="M206.40968,190.95171v-33.75699h33.75699v33.75699z" fill="#525252" stroke="#000000" stroke-width="2.5" stroke-linecap="butt"/><path d="M218.7761,209v-28.74358h9.35838v28.74358z" fill="#525252" stroke="#000000" stroke-width="2.5" stroke-linecap="butt"/><path d="M214.43114,189.61479v-13.03487h21.7248v13.03487z" fill="#525252" stroke="none" stroke-width="0" stroke-linecap="butt"/><path d="M211.75732,191.62016l6.0161,8.35569" fill="none" stroke="#000000" stroke-width="2.5" stroke-linecap="round"/><path d="M228.4687,200.64431l6.35032,-8.68991" fill="none" stroke="#000000" stroke-width="2.5" stroke-linecap="round"/></g><path d="M142.84923,219.60774v-3.40712h32.36762v3.40712z" fill="#393939" stroke="#000000" stroke-width="2" stroke-linecap="butt"/><path d="M206.19613,220.34885v-3.40712h32.36763v3.40712z" fill="#393939" stroke="#000000" stroke-width="2" stroke-linecap="butt"/><path d="M274.22782,218.9605v-3.40712h32.36762v3.40712z" fill="#393939" stroke="#000000" stroke-width="2" stroke-linecap="butt"/><path d="M302.84875,132.07184l0.74724,-3.16714c0.4821,-2.25768 2.48819,-3.9508 4.88974,-3.9508c2.37844,0 4.369,1.6607 4.8754,3.8858l0.75044,2.99363l-0.22152,0.05553c0.0688,0.12083 0.13483,0.24225 0.19799,0.3645c1.09006,-1.48954 2.05553,-3.06384 2.69299,-4.776l1.11284,-3.14444c0.65492,-1.99828 2.53508,-3.4415 4.75233,-3.4415c2.76142,0 5,2.23858 5,5c0,0.3504 -0.03604,0.69239 -0.10463,1.02245l-1.14535,6.09186l-0.34534,-0.06493c0.00252,0.34025 -0.00532,0.68092 -0.02493,1.02208c0.44443,-0.17202 0.90935,-0.35889 1.39605,-0.56666l2.68518,-1.42819c0.71985,-0.40149 1.54919,-0.63026 2.43195,-0.63026c2.76142,0 5,2.23858 5,5c0,0.29754 -0.02599,0.58901 -0.07582,0.87227l-0.56763,3.58519l-0.44514,-0.07048c-0.03575,0.7125 -0.14571,1.41591 -0.36284,2.10619c-0.1525,0.48482 -0.43012,0.88217 -0.7886,1.22124c2.99855,2.85574 6.82681,9.27685 3.13318,13.33773c-2.01248,2.21257 -5.69418,3.2425 -9.26439,3.29459c-0.27486,2.50156 -2.39508,4.44774 -4.96985,4.44774c-0.69489,0 -1.35666,-0.14175 -1.95799,-0.39792l-1.5949,-0.63622c0.01161,0.85269 0.01502,1.70537 0.01586,2.55712l-0.07777,0.13498l0.07197,0.00401l-0.19214,3.44921c-0.12784,2.64754 -2.31488,4.75481 -4.99409,4.75481c-2.43149,0 -4.45761,-1.73561 -4.90706,-4.03552l-0.13272,-0.61216c-0.59746,0.25228 -1.25417,0.39176 -1.94347,0.39176c-2.76142,0 -5,-2.23858 -5,-5c0,-0.03 0.00026,-0.05994 0.00079,-0.08982l-1.57785,0.62942c-0.60133,0.25617 -1.26312,0.39793 -1.95801,0.39793c-2.76142,0 -5,-2.23858 -5,-5c0,-0.90582 0.24088,-1.75539 0.66207,-2.48813c-0.29748,-0.30196 -0.55685,-0.64157 -0.77032,-1.01102c-1.25346,-0.06717 -2.41933,-0.25996 -3.43213,-0.62764c-0.14184,-0.05149 -0.28213,-0.10603 -0.42097,-0.16341l-0.01917,0.09133l-3.59225,-0.75421c-2.31502,-0.43745 -4.06595,-2.4707 -4.06595,-4.91291c0,-2.25061 1.48698,-4.15391 3.53208,-4.78106l2.71781,-0.90347c1.20712,-0.45834 2.43071,-0.8924 3.66779,-1.28816l-0.01708,-0.34058l-0.46366,0.17435l-1.12334,-2.98741c-0.2325,-0.57702 -0.36047,-1.20738 -0.36047,-1.86763c0,-2.76142 2.23858,-5 5,-5c0.72607,0 1.41599,0.15476 2.03858,0.43309l3.58559,1.50561c0.25323,-1.5757 0.5778,-3.14053 0.95954,-4.68676z" fill="#ff0000" stroke="none" stroke-width="0.5" stroke-linecap="butt"/><path d="M136.59004,197.8955c3.43224,-1.15706 11.56275,-1.78548 13.95183,2.80171c1.38106,2.65172 1.91635,6.24653 0.63329,8.94703c-0.71329,1.50129 -2.6485,1.77541 -4.4513,2.10452c1.21392,4.09081 1.3175,9.56737 -4.49573,10.65543c-1.24535,0.23309 -3.00977,-0.1114 -4.74898,-0.87847c-2.25093,1.8044 -4.94111,3.00694 -8.32386,3.49897c-4.47094,0.65031 -11.71461,2.14732 -12.64168,-5.59781c-0.13251,-1.10705 3.00584,-6.16167 5.63037,-9.97285c-0.91118,-0.68462 -1.60078,-1.47781 -1.69105,-2.56461c-0.03993,-0.48071 0.24085,-1.41414 0.75843,-2.50048c-0.29139,-0.63449 -0.45386,-1.34047 -0.45386,-2.0844c0,-2.76142 2.23858,-5 5,-5c0.28872,0 0.57173,0.02447 0.84706,0.07145l4.95466,0.76018l-0.03126,0.20378c0.18236,-0.03219 0.36472,-0.06437 0.54708,-0.09656l0.40878,0.40538l0.09288,-0.24448l2.45173,0.93145c0.423,-0.63008 0.87505,-1.20879 1.56159,-1.44024zM130.79869,214.07325c-0.05713,0.0988 -0.11301,0.1985 -0.16792,0.29887c0.10704,-0.06356 0.21011,-0.12689 0.30947,-0.19008c-0.04805,-0.03546 -0.09526,-0.0717 -0.14156,-0.10879z" fill="#ff0000" stroke="none" stroke-width="0.5" stroke-linecap="butt"/><path d="M155.34447,164.89319c-0.27215,-0.10641 -0.54022,-0.22076 -0.80469,-0.34214l-0.04779,0.1491l-5.32251,-1.70615c-2.0711,-0.61108 -3.58263,-2.52716 -3.58263,-4.79626c0,-1.99801 1.17193,-3.72231 2.8659,-4.52298l2.16265,-1.07838c0.41295,-0.22739 0.82443,-0.45744 1.23492,-0.68929l-5.67592,-1.17481c-2.32157,-0.4322 -4.07917,-2.46854 -4.07917,-4.91538c0,-2.67967 2.10798,-4.86699 4.75614,-4.99416l3.39337,-0.18801c0.60013,-0.0547 2.65238,-0.2741 4.6466,-0.41165c-0.01414,-0.01856 -0.02831,-0.03707 -0.04254,-0.05553c-0.62936,-0.37403 -1.31345,-0.69063 -2.07171,-0.93306l-2.24394,-0.51642c-2.27048,-0.47234 -3.97641,-2.48452 -3.97641,-4.89513c0,-2.76142 2.23858,-5 5,-5c0.42365,0 0.83499,0.05269 1.22783,0.15187l2.41529,0.55586v0l2.52172,0.58035l-0.04827,0.20972c0.32746,0.09901 0.65415,0.19946 0.97682,0.30736c0.135,-0.02568 0.28249,-0.02007 0.44467,0.02232c0.27175,0.07102 0.53291,0.16283 0.78453,0.27298l-0.68274,-2.38311c-0.14634,-0.47007 -0.22519,-0.96989 -0.22519,-1.48812c0,-2.76142 2.23858,-5 5,-5c0.48578,0 0.95537,0.06928 1.39945,0.19849c0.88648,-1.39827 2.44781,-2.32645 4.22593,-2.32645c1.26173,0 2.41431,0.46735 3.29407,1.23838c0.87796,-1.43868 2.46238,-2.39908 4.27112,-2.39908c2.12481,0 3.94005,1.32539 4.66409,3.19454c1.50551,-0.6709 3.00603,-1.35286 4.50016,-2.04873l0.22411,0.02727l-0.03617,-0.09974l4.1586,-1.5081c0.56224,-0.21892 1.17387,-0.33905 1.81355,-0.33905c2.76142,0 5,2.23858 5,5c0,2.1235 -1.32376,3.93781 -3.19108,4.66275c0.16297,0.20864 0.30974,0.43055 0.43842,0.66383l2.08831,-1.56196c0.84167,-0.64398 1.89393,-1.02659 3.03555,-1.02659c1.96734,0 3.66929,1.13622 4.48545,2.78825c0.37388,-0.07861 0.75221,-0.1306 1.13475,-0.15021c0.02719,-0.00139 0.05437,-0.00267 0.08155,-0.00384l-0.00817,-0.02294l2.60627,-0.92828c0.55494,-0.21243 1.15741,-0.32882 1.78706,-0.32882c2.76142,0 5,2.23858 5,5c0,1.94381 -1.10921,3.62856 -2.72921,4.4558l-3.04035,1.62927c0.89509,0.36669 1.63971,0.92147 2.13379,1.72645l0.15036,-0.03999c0.4428,-0.1284 0.91092,-0.19723 1.39511,-0.19723c2.76142,0 5,2.23858 5,5c0,1.53306 -0.68996,2.90496 -1.77629,3.82215l-2.69059,2.29993l-0.05776,-0.06757l-0.08864,0.18798c-1.62601,1.18076 -3.3154,2.30757 -5.0573,3.36795c-0.02554,0.20587 -0.03663,0.41265 -0.03129,0.61936c0.04188,1.61958 1.32264,2.97516 1.72037,4.5457c1.1716,4.62643 5.99739,16.45848 -6.75065,14.94824c-1.28381,-0.15209 -2.33689,-0.38154 -3.20814,-0.674c-0.02645,0.29551 -0.06964,0.58947 -0.13417,0.88144c-0.33232,1.50342 -1.62905,2.61324 -2.44357,3.91986l-7.01552,4.03201c-1.90925,-3.78594 -2.80212,-5.68477 -3.36477,-7.67674c-0.1244,0.20188 -0.24388,0.40561 -0.35412,0.61278c-1.02833,1.93251 -1.49742,4.28826 -3.08102,5.79965c-2.19631,2.09615 -5.12716,5.9815 -7.84479,4.62794c-3.48179,-1.73417 -4.77053,-6.07497 -6.03793,-9.96777l-1.1973,1.30257c-0.91433,1.00137 -2.23047,1.6296 -3.69333,1.6296c-2.76142,0 -5,-2.23858 -5,-5c0,-0.5233 0.08039,-1.02782 0.2295,-1.50189c-2.23981,-0.49552 -3.9151,-2.49311 -3.9151,-4.88198c0,-0.23765 0.01658,-0.47143 0.04865,-0.70025l0.20347,-1.62331c-0.35892,-0.06696 -0.68478,-0.15537 -0.96934,-0.26664z" fill="#ff0000" stroke="none" stroke-width="0.5" stroke-linecap="butt"/><path d="M181.85431,171.19745c-2.67779,0.67005 -6.01439,1.54875 -8.28099,-0.02669c-2.13718,-1.48549 -2.91024,-3.72482 -2.78969,-6.05191c-0.32394,-0.02861 -0.65256,-0.06376 -0.98624,-0.1057c-1.60973,-0.20234 -3.53821,-0.40934 -4.57694,-1.65561c-0.22688,-0.27221 -0.44606,-0.54977 -0.6584,-0.83208l-0.17687,0.18392l-5.42538,-5.21737c-0.94926,-0.91005 -1.54026,-2.19088 -1.54026,-3.60975c0,-2.76142 2.23858,-5 5,-5c0.71962,0 1.40373,0.15202 2.02198,0.42571l1.84386,0.76618c0.68011,0.11798 1.35993,0.23761 2.03988,0.35651c-0.90128,-2.80016 -0.26975,-6.90824 0.02714,-7.63075c0.2077,-0.50546 0.45341,-1.01359 0.73375,-1.51186c0.22489,-2.3398 0.90964,-4.48461 2.54808,-5.85548c1.31613,-1.1012 3.21344,-0.60353 5.05741,-0.17104c0.49461,-0.10938 0.98382,-0.20968 1.45778,-0.30771c1.05297,-0.21778 2.47992,0.2182 3.95511,0.91863c2.79975,-0.97422 5.29662,0.06207 8.3943,0.7327l0.31664,0.37324c0.04513,0.00659 0.08962,0.01374 0.13337,0.02153l0.08304,-0.16654l4.55841,2.273c1.69397,0.80068 2.8659,2.52497 2.8659,4.52299c0,2.41906 -1.7179,4.43688 -4.00028,4.90004c0.07902,0.353 0.1207,0.7201 0.1207,1.09694c0,0.74954 -0.16493,1.46055 -0.46047,2.09874l-1.75427,4.02384c-1.51693,6.73282 -2.51523,13.44866 -10.50756,15.44854z" fill="#ff7b00" stroke="none" stroke-width="0.5" stroke-linecap="butt"/><path d="M309.73205,162.88255c-1.60412,-0.0217 -3.11717,-0.33945 -4.38805,-1.15139c-4.92181,-3.14445 -4.0958,-10.86264 0.92537,-12.95978c0.29408,-0.12283 0.59322,-0.22355 0.89663,-0.30566l-0.06342,-0.14838l2.07018,-0.88481c-0.04764,-0.24154 -0.09345,-0.48349 -0.13757,-0.7258l-1.64986,-1.97445c-0.73853,-0.87142 -1.18393,-1.99914 -1.18393,-3.23089c0,-2.76142 2.23858,-5 5,-5c0.52384,0 1.02886,0.08056 1.50335,0.22996c1.61557,-2.39266 3.80173,-4.25141 5.7174,-3.89988c3.07465,0.56421 5.61942,3.16202 6.51268,6.0474c0.16915,-0.04386 0.34354,-0.08102 0.52354,-0.11095c0.12943,-0.02153 0.25898,-0.0417 0.38864,-0.06059l-0.03946,-0.09712l5.1329,-2.08549c0.60892,-0.26392 1.28068,-0.41022 1.98661,-0.41022c2.76142,0 5,2.23858 5,5c0,1.65914 -0.80811,3.12954 -2.0522,4.03905l-2.28074,1.70591l-0.04637,-0.06199l-0.06579,0.14348c-1.79155,1.19245 -5.5176,3.68722 -8.19869,5.37135c-0.44534,0.5058 -0.92834,0.96006 -1.48635,1.31268c0.7616,1.13943 1.76134,2.36559 1.29457,3.53869c-2.13532,5.36647 -7.29047,9.42805 -13.21601,7.08629c-0.83584,-0.33032 -1.54071,-0.79992 -2.14344,-1.3674z" fill="#ff7b00" stroke="none" stroke-width="0.5" stroke-linecap="butt"/><path d="M140.61162,207.60025c0,0 4.12381,2.8274 1.29641,6.95121c-0.27952,0.40769 -0.57171,0.74744 -0.87134,1.0287c-0.29697,0.55942 -0.57954,0.89758 -0.57954,0.89758l-3.59714,2.80613c-0.52785,0.13047 -1.20258,0.59611 -1.78089,0.84171c-0.44662,0.32702 -0.87913,0.66432 -1.2772,1.02672l-1.29262,-0.62508l-0.48901,0.17417l-0.04993,0.65086l-2.47787,-0.19009c-2.60352,-0.1741 -4.66141,-2.34108 -4.66141,-4.98872c0,-2.21373 1.43865,-4.09145 3.43201,-4.74921l0.56756,-0.20215l-0.68858,-2.51794c-0.13488,-0.45291 -0.20732,-0.93272 -0.20732,-1.42945c0,-2.76142 2.23858,-5 5,-5c1.65411,0 3.12061,0.80322 4.03076,2.04089l1.33433,1.77427c0.77059,0.50347 1.54119,1.00693 2.31178,1.5104z" fill="#ff7b00" stroke="none" stroke-width="0.5" stroke-linecap="butt"/><path d="M174.15888,162.33347c-0.73868,-2.40725 0.63506,-3.6941 1.61739,-4.27981c-0.15042,-0.16035 -0.29071,-0.32802 -0.4144,-0.50269c-0.90107,-0.18994 -1.68996,-0.57789 -2.28202,-1.31363c-4.25529,-5.28793 3.91943,-10.05026 6.67872,-11.12889c1.93893,-0.75795 4.6202,-2.13954 6.19657,-0.77975c1.91314,1.65028 2.10372,4.97183 1.51027,7.42771c-0.08784,0.36353 -0.2436,0.69591 -0.45133,0.99658c0.11915,0.4577 0.15612,0.99447 0.07247,1.62355c-0.30709,2.30944 -1.85817,2.9933 -2.98901,3.18005c0.01848,1.75223 -0.65074,3.4971 -0.90434,5.24642l-4.34923,2.01539c0,0 -3.58501,1.10008 -4.6851,-2.48493z" fill="#ffc500" stroke="none" stroke-width="0.5" stroke-linecap="butt"/><path d="M308.8112,155.62721c-2.51876,-2.77819 0.25943,-5.29695 0.25943,-5.29695l3.30265,-2.65494c1.31782,-0.07585 2.76748,0.45281 4.00443,0.10805l0.44713,-1.07018c0.54599,-1.39582 1.90435,-2.38446 3.49362,-2.38446c2.07107,0 3.75,1.67893 3.75,3.75c0,0.49519 -0.09598,0.96796 -0.27035,1.40072l-0.98301,2.6142c-0.03728,0.80335 -0.07456,1.6067 -0.11183,2.41005c0,0 -0.23454,3.74266 -3.9772,3.50811c-2.74823,-0.17222 -3.35197,-2.236 -3.47879,-3.32054c-0.05921,-0.00655 -0.11732,-0.01281 -0.17426,-0.01871l-0.96486,1.21408c0,0 -2.77819,2.51876 -5.29695,-0.25943z" fill="#ffc500" stroke="none" stroke-width="0.5" stroke-linecap="butt"/><path d="M132.67636,215.78653c0,-2.07107 1.67893,-3.75 3.75,-3.75c2.07107,0 3.75,1.67893 3.75,3.75c0,1.45966 -0.83396,2.72454 -2.05141,3.34414c0.07291,0.29188 0.11162,0.59731 0.11162,0.91178c0,2.07107 -1.67893,3.75 -3.75,3.75c-2.07107,0 -3.75,-1.67893 -3.75,-3.75c0,-1.45966 0.83396,-2.72454 2.05141,-3.34414c-0.07291,-0.29188 -0.11162,-0.59731 -0.11162,-0.91178z" fill="#ffc500" stroke="none" stroke-width="0.5" stroke-linecap="butt"/></g></g></svg>