<svg version="1.1" xmlns="http://www.w3.org/2000/svg" xmlns:xlink="http://www.w3.org/1999/xlink" width="222.1458" height="122.84217" viewBox="0,0,222.1458,122.84217"><g transform="translate(-127.81147,-102.11463)"><g stroke-miterlimit="10"><g stroke-linecap="butt"><path d="M310.50134,215.49999h-70.53201c-1.5364,-0.8709 -3.13242,-1.23616 -4.20092,-1.38934c-0.04444,-4.66945 -1.28952,-9.27391 -4.19733,-12.18172c-2.18793,-2.18793 -5.44679,-3.13738 -8.46925,-3.79981c-6.15816,-1.34966 -9.18553,0.76738 -13.94171,4.13746c-1.03735,0.73504 -1.83218,1.76335 -2.73118,2.66235c-0.4273,0.4273 -1.25881,1.42959 -1.71178,2.05929c-0.59025,-0.3627 -3.59288,-0.06159 -4.81897,0.1409c-1.56739,0.25886 -3.04031,0.9227 -4.56046,1.38404c0,0 -5.56578,1.85527 -6.75004,6.98684h-39.15379c-1.11677,-2.1046 -2.23572,-4.20848 -3.56022,-6.18212c-1.10971,-1.65359 -2.82144,-2.88036 -3.78192,-4.62486c-0.96015,-1.74391 -1.0759,-3.84802 -1.88459,-5.66713c-1.18497,-2.66556 -2.45752,-5.29461 -3.81376,-7.87872c8.71324,-4.04858 19.39571,-14.03803 26.44246,-19.16168c3.02987,-2.203 6.24672,-3.85346 9.43191,-5.66667l0.95259,0.11875l0.00922,-0.07395l0.11303,0.08843c1.50035,0.14048 2.99775,0.32861 4.49666,0.49233c1.47557,1.3216 3.61194,2.27832 6.70503,2.27832c3.41687,0 5.66624,-1.1675 7.14703,-2.70466c6.44041,0.02859 11.20741,0.0609 17.98188,-0.88513c8.65157,-1.34246 17.31034,-1.85485 25.91784,-3.70556c5.67861,-1.22097 12.00626,-3.33344 17.72936,-5.57335l2.10545,1.71796l0.37599,-0.46079c0.35689,0.50482 0.73196,0.99748 1.12845,1.47581c1.55587,1.87702 4.65085,1.48812 6.89352,2.44436c4.48369,1.91179 8.49397,4.99175 13.1798,6.33392c6.03688,1.72915 12.28488,2.62321 18.37648,4.14841c2.73289,0.68426 5.1596,2.29282 7.84513,3.14417c2.37431,0.75269 4.82387,1.25665 7.27609,1.74707z" fill="#8e8e8e" stroke="#000000" stroke-width="5"/><path d="M341.953,186.3205c1.38107,0.9124 2.81722,1.6857 4.29536,2.32972l-6.74836,10.34977c0,0 0,0.23515 0.03606,0.63334l-27.18342,15.04608l-0.37757,-37.47945c2.92768,0.59075 5.83841,1.22946 8.6084,2.31729c3.65814,1.43662 6.37265,3.89714 10.26342,4.81755c5.14452,1.217 6.81431,1.31001 9.71149,1.0683c0.46588,0.30797 0.93271,0.61225 1.39462,0.9174z" fill="#8e8e8e" stroke="#000000" stroke-width="5"/><path d="" fill="#8e8e8e" stroke="#000000" stroke-width="5"/><path d="M302.58309,209.62719c0.18251,-2.0131 1.71058,-2.41235 2.50752,-2.48258c-0.00267,-0.25592 0.00903,-0.51929 0.03605,-0.78988c0.02848,-0.28518 0.21095,-0.68726 0.50455,-1.15163c-0.0507,-0.06789 -0.10076,-0.13801 -0.15022,-0.21032c-0.03907,0.02166 -0.07685,0.04252 -0.11333,0.06257l-2.92021,1.64606c-0.40856,0.24053 -0.88474,0.37849 -1.39315,0.37849c-1.51878,0 -2.75,-1.23121 -2.75,-2.75c0,-0.69365 0.25681,-1.32731 0.68055,-1.8111l2.44769,-2.82644l0.13653,0.11822c0.19101,-0.26122 0.40174,-0.50844 0.63684,-0.73834c0.29384,-0.28734 0.64587,-0.45868 1.03327,-0.56023c-0.45984,-2.43929 -0.73744,-5.20802 -0.847,-7.97705c-0.21395,-0.2701 -0.4124,-0.56885 -0.59363,-0.89815c-0.70475,-1.2806 -0.46199,-2.65545 0.30585,-4.05494c-2.13238,-2.84405 -2.47823,-7.33762 -1.43088,-11.43449c0.83619,0.37824 1.68033,0.73421 2.55172,1.01045c5.68684,1.80282 11.80533,2.17868 17.35824,4.35941c0.11653,0.04576 0.2321,0.09257 0.34679,0.14033c-0.05473,0.5947 -0.12995,1.19161 -0.22359,1.78762c0.68606,-0.11534 1.32261,-0.10157 1.8883,0.08757c0.44451,-0.11966 0.89422,-0.24117 1.34848,-0.36743c2.02846,1.13729 3.9604,2.34605 6.30294,3.01295c-0.12973,0.57074 -0.437,1.074 -0.86065,1.44864l-2.29516,2.04799c-0.87494,1.36205 -1.8635,2.66956 -3.38179,4.29583c-0.42031,0.45021 -0.84546,0.91152 -1.29549,1.34208c1.01545,0.00356 2.12222,0.25526 3.39319,0.88185c5.92998,2.92348 3.73362,6.11414 -0.09442,8.84417c-1.00455,0.71642 -2.38052,0.65859 -3.59071,0.89903c-1.80491,0.3586 -3.64012,0.56601 -5.47776,0.73856c0.89079,1.02994 0.52563,2.49055 0.52563,2.49055c-0.41364,1.26091 -0.32742,2.82015 -1.24091,3.78271c-1.96708,2.07274 -4.90981,2.4613 -7.23275,1.50931c-0.47212,0.07274 -0.97666,0.15283 -1.51789,0.26111l-2.10415,-0.10584c0,0 -2.73876,-0.2483 -2.49046,-2.98707z" fill="#8e8e8e" stroke="none" stroke-width="0.5"/><path d="" fill="#4b4b4b" stroke="#000000" stroke-width="5"/></g><g><path d="M144.4097,190.09032v-3.75386c6.63872,-4.66859 13.44191,-10.72694 18.42618,-14.35097c3.02987,-2.203 6.24672,-3.85346 9.43191,-5.66667l0.95259,0.11875l0.00922,-0.07395l0.11303,0.08843c0.27478,0.02573 0.54945,0.05305 0.82406,0.08153v23.55674z" fill="#6b6b6b" stroke="#000000" stroke-width="2.5" stroke-linecap="butt"/><path d="M155.31076,206v-25.33763h8.24946v25.33763z" fill="#6b6b6b" stroke="#000000" stroke-width="2.5" stroke-linecap="butt"/><path d="M151.48066,188.91183v-7.92347c1.51308,-1.20355 2.99681,-2.40855 4.42621,-3.56685h14.72433v11.49032z" fill="#6b6b6b" stroke="none" stroke-width="0" stroke-linecap="butt"/><path d="M149.12366,190.67957l5.30323,7.36559" fill="none" stroke="#000000" stroke-width="2.5" stroke-linecap="round"/><path d="M163.85485,198.63441l5.59785,-7.66021" fill="none" stroke="#000000" stroke-width="2.5" stroke-linecap="round"/></g><g><path d="M274.4097,190.09033v-23.15342c0.84566,0.3585 1.70771,0.6745 2.59393,0.92834c6.03688,1.72915 12.28488,2.62321 18.37648,4.14841c2.73289,0.68426 5.1596,2.29282 7.84513,3.14417c0.31256,0.09909 0.62643,0.19386 0.94143,0.28487v14.64763z" fill="#6b6b6b" stroke="#000000" stroke-width="2.5" stroke-linecap="butt"/><path d="M285.31075,206v-25.33764h8.24946v25.33764z" fill="#6b6b6b" stroke="#000000" stroke-width="2.5" stroke-linecap="butt"/><path d="M281.48064,188.91183v-11.49032h19.15054v11.49032z" fill="#6b6b6b" stroke="none" stroke-width="0" stroke-linecap="butt"/><path d="M284.4269,198.04516l-5.30322,-7.36559" fill="none" stroke="#000000" stroke-width="2.5" stroke-linecap="round"/><path d="M299.45271,190.9742l-5.59785,7.66021" fill="none" stroke="#000000" stroke-width="2.5" stroke-linecap="round"/></g><g><path d="M206.4097,190.95171v-24.92002c1.04278,-0.1084 2.12479,-0.23978 3.26353,-0.3988c8.65157,-1.34246 17.31034,-1.85485 25.91784,-3.70556c1.48816,-0.31997 3.02088,-0.70117 4.57563,-1.12984v30.15421z" fill="#525252" stroke="#000000" stroke-width="2.5" stroke-linecap="butt"/><path d="M218.77611,180.25642h9.35838v19.40588c-1.60104,-0.70846 -3.35335,-1.16512 -5.03267,-1.53317c-1.63154,-0.35758 -3.04332,-0.47182 -4.32572,-0.38389z" fill="#525252" stroke="#000000" stroke-width="2.5" stroke-linecap="butt"/><path d="M214.43116,189.61479v-13.03487h21.7248v13.03487z" fill="#525252" stroke="none" stroke-width="0" stroke-linecap="butt"/><path d="M216.4582,198.14914l-4.70086,-6.52898" fill="none" stroke="#000000" stroke-width="2.5" stroke-linecap="round"/><path d="M228.91427,200.03461l5.90476,-8.08021" fill="none" stroke="#000000" stroke-width="2.5" stroke-linecap="round"/></g><path d="M175.21687,216.20062v3.40712h-23.52968c-0.65512,-1.11764 -1.27121,-2.26035 -1.88125,-3.40712z" fill="#393939" stroke="#000000" stroke-width="2" stroke-linecap="butt"/><path d="" fill="#393939" stroke="#000000" stroke-width="2" stroke-linecap="butt"/><path d="M274.22783,218.9605v-3.40712h32.36762v3.40712z" fill="#393939" stroke="#000000" stroke-width="2" stroke-linecap="butt"/><path d="" fill="#ff0000" stroke="none" stroke-width="0.5" stroke-linecap="butt"/><path d="M134.19259,194.91861c-1.28619,0.32346 -4.48357,0.70171 -5.94464,-2.96095c-1.85259,-4.64412 2.79153,-6.49672 2.79153,-6.49672l3.90433,-0.62434c0.41222,0.09378 0.82497,0.18532 1.23761,0.27731c-0.22145,-0.51156 -0.41349,-1.0045 -0.58121,-1.48531c-1.95454,0.061 -3.79844,-0.15213 -4.34504,-1.69875c-1.02009,-2.88637 0.05309,-6.01313 2.46229,-9.16592c-0.36921,-1.77106 -0.78849,-3.53595 -0.70558,-5.32896c0.00366,-0.07909 0.00765,-0.15815 0.01196,-0.23717l-0.02881,0.00138l-0.38623,-8.08841c-0.00494,-0.09104 -0.00743,-0.18273 -0.00743,-0.27501c0,-2.76142 2.23858,-5 5,-5c1.04853,0 2.02167,0.32275 2.82551,0.87432l2.16651,1.4404c1.64594,0.95173 3.70268,2.22359 5.55183,3.76568c4.41936,-7.64883 3.22018,-18.31185 11.8381,-23.38315c7.16157,-4.2143 12.22652,-4.38391 14.77386,4.612c0.59498,2.10116 -0.72145,4.3332 -1.473,6.38358c-0.16222,0.44256 -0.33819,0.87688 -0.5256,1.30425v0.00002c3.08702,-1.10004 5.22987,-1.61996 5.79436,-1.38025c1.35385,0.57492 2.46687,1.24879 3.35773,1.96862l1.39144,-1.76612c0.91445,-1.1827 2.34724,-1.94427 3.9579,-1.94427c2.76142,0 5,2.23858 5,5c0,0.39052 -0.04477,0.77058 -0.12946,1.13533c0.91709,-1.07447 2.28133,-1.75573 3.80469,-1.75573c0.51568,0 1.01313,0.07807 1.48117,0.22303l2.60468,0.74217l-0.16392,0.5753l1.21071,-0.14373c0.86358,0.81958 1.94002,2.00583 3.00669,3.41185c0.14852,-0.40861 0.28583,-0.82067 0.40078,-1.23959c0.54963,-2.00298 -0.02754,-4.96493 -0.14664,-6.97584c-0.17902,-3.02274 0.20033,-6.61435 -0.29932,-9.56846c-0.20213,-1.19505 -1.14907,-2.26771 -1.06447,-3.47678c0.09338,-1.33451 0.78228,-2.65765 1.16456,-3.96473c-0.78384,-1.92386 -2.11527,-5.67284 -3.26845,-6.25194c-0.77728,-0.39033 -8.23382,-1.99859 -8.63766,-2.15259c-2.09524,-0.79898 -3.74688,-2.64749 -5.92256,-3.19044c-1.27243,-0.31754 -2.62988,-0.1972 -3.89858,-0.52931c-0.55292,-0.14474 -3.24824,-1.64785 -4.56423,-1.56609c-3.97861,0.2472 -7.35169,1.72189 -11.08465,2.87556l-2.04871,0.21998c0,0 -5,0 -5,-5c0,-4.39526 3.86366,-4.92686 4.79827,-4.99115c4.45934,-1.39827 8.60656,-3.05552 13.44953,-3.10373c2.443,-0.02432 4.71177,1.29445 7.0745,1.91603c1.38462,0.36426 2.87285,0.23474 4.24854,0.63139c2.34528,0.6762 4.20901,2.52366 6.49208,3.38689c2.23802,0.8462 4.71792,1.1175 7.03958,1.72947l-1.15689,-2.75123c-0.27897,-0.62317 -0.4341,-1.31388 -0.4341,-2.04082c0,-2.76142 2.23858,-5 5,-5c1.6541,0 3.12061,0.80321 4.03075,2.04089l2.87798,3.82687c0.41308,-2.34507 2.46047,-4.1267 4.924,-4.1267c1.82664,0 3.4245,0.97952 4.29698,2.44195l1.29396,2.08929l0.21556,-0.32327l-0.22383,-0.04725l0.75615,-3.58197c0.43947,-2.31249 2.47153,-4.06086 4.91194,-4.06086c2.22182,0 4.10516,1.44918 4.75637,3.45388l0.79151,2.25531l0.14832,-0.44375c0.62956,-2.04113 2.53091,-3.52438 4.77869,-3.52438c2.76142,0 5,2.23858 5,5c0,0.312 -0.02858,0.61733 -0.08326,0.91351c0.98874,-0.64789 2.01325,-0.98805 3.04825,-0.59299c1.76378,0.67323 3.24774,2.30553 4.12143,4.18701c0.06804,-0.03576 0.13729,-0.06978 0.20782,-0.10197c1.6397,-1.81682 3.28243,-3.62997 4.93335,-5.4336l0.26679,-0.05437l-0.09699,-0.10698l2.12053,-1.92251c0.88904,-0.81228 2.07245,-1.30774 3.37158,-1.30774c2.76142,0 5,2.23858 5,5c0,0.64628 -0.12262,1.26392 -0.34585,1.83093l1.41722,-1.1902c0.87261,-0.74297 2.00376,-1.19136 3.23963,-1.19136c2.76142,0 5,2.23858 5,5c0,0.56815 -0.09476,1.11418 -0.26935,1.62312c1.30876,-0.63414 2.69585,-1.11302 4.07822,-1.56526c2.04898,-0.67032 4.73939,-0.19728 5.90721,-2.05358l1.08384,-1.26332c0,0 3.25903,-3.79193 7.05096,-0.5329c3.79193,3.25903 0.5329,7.05096 0.5329,7.05096l-1.24385,1.445c-0.95056,0.95059 -1.6923,2.17131 -2.85167,2.85177c-3.16254,1.85617 -7.15954,1.45835 -10.4157,3.17468c-2.80174,1.47681 -4.58602,4.73767 -6.55345,7.13655c-2.42085,2.75199 -3.40003,9.04031 -3.12627,16.23071c0.1028,0.01057 0.20812,0.02261 0.3159,0.03609c0.08055,-0.5854 0.16409,-1.17011 0.26563,-1.75061l0.16715,-0.17671l-0.11632,-0.0311l0.74808,-2.79767c0.53301,-2.18818 2.50588,-3.81251 4.85813,-3.81251c2.47748,0 4.53411,1.80189 4.93086,4.16663c5.28458,-4.88327 13.277,-10.63864 15.29171,0.21659c0.24454,1.31756 0.31865,2.58369 0.25246,3.8049l0.54031,1.54915l-0.28193,0.09833c0.1984,0.38279 0.38177,0.77364 0.54683,1.17428c0.54155,1.31445 -0.44781,2.80834 -0.62446,4.21896c-0.03847,0.30719 -0.07615,0.61448 -0.11319,0.92185c0.20797,-0.16211 0.41974,-0.31164 0.63557,-0.44751c2.04027,-1.28439 4.08594,-2.16206 5.9135,-2.23066c1.57508,-1.07805 3.36397,-1.50014 5.41875,-0.69058c0.30018,-0.03106 0.61236,-0.06088 0.93688,-0.08938c4.84709,-0.42574 7.19235,1.96451 8.37312,5.30571c0.09039,-0.00486 0.18143,-0.00733 0.27303,-0.00733c2.76142,0 5,2.23858 5,5v3.75387c0.59001,1.76065 1.06201,3.59508 1.70817,5.29041c0.20077,0.52676 0.46885,1.04586 0.74605,1.5643c2.0354,-0.1724 4.12169,-0.61745 5.70075,0.48907c1.89024,1.32458 2.79886,3.71369 3.66346,5.87974c0.22667,-0.03145 0.45819,-0.04771 0.69351,-0.04771c2.76142,0 5,2.23858 5,5c0,2.30248 -1.55632,4.24147 -3.67438,4.82238l-3.77205,1.12853l-0.11356,-0.37956c-0.3066,0.20451 -0.62175,0.39702 -0.94696,0.57545c-4.33476,2.37829 -10.67664,-3.45447 -15.50118,-7.32c-0.65712,-0.19936 -1.28656,-0.44965 -1.8924,-0.74218c-1.34233,-0.23463 -2.50058,-1.00464 -3.24658,-2.08185c-0.05792,-0.04611 -0.11565,-0.09253 -0.1732,-0.13924c-1.53807,0.23132 -3.17899,1.81987 -4.69953,1.34934c-3.57772,-1.10713 -5.50493,-6.43523 -8.57085,-8.04129c-0.61123,0.225 -1.26421,0.4125 -1.93995,0.55868c-0.00365,0.00544 -0.00726,0.01083 -0.01082,0.01618c-2.13247,3.20522 -4.53085,5.66868 -7.14215,7.53981c1.12895,0.6755 2.16512,1.91548 2.16512,4.19163c0,5 -5,5 -5,5c-1.22163,-0.05286 -2.40526,-0.22232 -3.55004,-0.49867c-1.61204,7.10993 -15.77103,9.09676 -29.15616,8.73626l0.00866,0.36264c0.7147,1.45331 1.22815,2.82489 1.26227,3.97878c2.60079,-0.27163 4.54468,0.43534 5.93318,1.54976c0.6763,0.2416 1.31786,0.55577 1.89632,0.9343c0.94095,0.61573 1.69295,1.1567 2.28314,1.63129c1.74176,-1.32602 3.50601,-2.62493 3.79055,-2.6655c0.13939,-0.01987 0.27823,-0.03697 0.41648,-0.05138c1.88789,-1.1176 3.92984,-1.74558 5.76664,-1.21499c0.3679,0.10627 0.67567,0.32552 0.92712,0.62019c2.01037,-1.05393 4.91035,-1.73498 6.64038,-1.5532c1.31651,0.13832 1.84774,1.64803 2.36515,3.07703c0.13421,-0.03136 0.26662,-0.05978 0.39726,-0.08535c2.58994,-1.76455 8.42952,-3.15448 9.71124,-3.55682c0.52541,0.5988 1.05081,1.1976 1.57622,1.7964c3.65943,-1.70601 12.20599,-2.22764 13.1089,-1.44387c0.17144,0.14882 0.33782,0.29485 0.49925,0.43815c0.94149,-0.28804 2.14986,-0.53004 3.7265,-0.7495c2.66514,-0.37097 4.37753,-0.02441 5.29771,0.61583c4.24554,-5.51252 10.89582,-12.08759 17.27289,-8.18683c1.4309,0.87526 2.24176,2.0062 2.56567,3.2927l-0.73264,1.12363c0,0 0,1.26172 0.44817,2.88882c-2.133,6.59159 -11.29547,14.35856 -16.00816,14.6683c-0.66502,0.04371 -7.15346,0.45605 -8.81275,-1.54511c-0.19806,0.14984 -0.40112,0.29568 -0.60852,0.43678c-0.76789,0.83414 -1.80251,1.29811 -2.95433,1.53282c-1.81263,0.6592 -3.70297,0.82884 -5.34397,0.15536c-0.17818,-0.07313 -0.3521,-0.14585 -0.52182,-0.21816c-0.69341,-0.08403 -1.3409,-0.16871 -1.90888,-0.22236c-1.96649,-0.18576 -4.97665,6.94332 -10.24989,5.98726c-2.8009,-0.50782 -4.4476,-2.331 -5.27497,-4.10842c-1.34137,1.62388 -3.84791,3.07417 -5.61786,3.63665c-3.6297,1.15349 -10.50891,-0.34808 -10.66279,-5.03942c-2.87278,2.01101 -6.82969,3.90479 -8.32183,3.853c-2.48801,-0.08635 -5.22099,-1.64604 -7.04277,-3.42781c-0.04854,0.03175 -0.09718,0.06328 -0.14588,0.09456c-2.01708,1.29566 -4.32206,3.49333 -6.62016,2.81063c-1.80888,-0.53737 -2.68862,-2.48917 -3.5359,-4.35151l0.00001,0.00004c-0.95524,0.88317 -2.0345,1.64773 -3.25768,2.25663c-1.95749,-3.11738 -5.42742,-4.03015 -7.29161,-4.29741c-0.01868,-1.96218 -0.24936,-3.91288 -0.72635,-5.73104c0.53202,0.24934 1.06787,0.59412 1.60252,0.85638c1.20828,-2.30446 3.34461,-2.5413 4.69186,-2.42485c1.27234,-2.33766 1.78712,-5.51982 2.1654,-7.46158l0.13505,-0.16515l-0.08362,-0.02446l0.26098,-0.89234c-6.04484,-0.7522 -10.89903,-1.90847 -12.79684,-3.10086c-0.0439,-0.02758 -0.08748,-0.05515 -0.13074,-0.08272c-6.43571,3.56042 -14.72287,4.60987 -22.02263,4.20266c-4.56304,2.25324 -9.40576,4.01572 -13.38651,7.81215c0,0 -3.64566,3.42187 -7.06753,-0.22379c-2.82985,-3.01492 -0.82614,-5.87678 -0.04811,-6.77681c-3.01915,1.86262 -6.69744,3.29267 -10.21624,4.84389l1.11756,0.87668c0.01527,-0.00441 0.03057,-0.00875 0.0459,-0.01302l0.3064,-0.86025l2.60608,0.92821c1.99336,0.65776 3.43202,2.53547 3.43202,4.74921c0,1.69612 -0.84454,3.195 -2.13605,4.09903c1.31698,0.77835 2.93957,2.38841 2.1815,5.42893v-0.00003c-1.20957,4.85149 -6.06106,3.64192 -6.06106,3.64192l-3.83554,-0.95649c-0.58238,-0.14454 -1.16476,-0.28908 -1.74714,-0.43362c-6.71964,4.05131 -17.41749,3.32542 -20.57243,-2.48109c-0.28707,0.33594 -0.63585,0.64893 -1.05881,0.90263c-2.34211,-3.73201 -4.09229,-7.84351 -6.5504,-11.50635c-1.10971,-1.65359 -2.82144,-2.88036 -3.78192,-4.62486c-0.96015,-1.74391 -1.0759,-3.84802 -1.88459,-5.66713c-0.26231,-0.59006 -0.52891,-1.17833 -0.79976,-1.76472c3.89703,-0.5481 9.26798,-0.14777 11.13449,3.43605c0.38006,0.72974 0.69607,1.5309 0.92775,2.36519c1.10207,-1.26084 1.91525,-2.74993 2.86743,-4.1292l0.97588,-2.10864c0.77107,-1.76704 2.53374,-3.00213 4.58489,-3.00213c2.24778,0 4.14913,1.48325 4.77869,3.52439l1.04518,3.12701c4.06033,-2.38095 10.73838,-5.34368 15.22142,-7.7606c-0.44259,-2.13841 -0.91291,-4.94561 -1.27703,-7.7755c-3.67339,-0.19402 -7.50069,-1.25224 -11.44752,-2.30269l-0.62819,-1.43564l-0.54185,0.50153l-2.31816,-2.50451c-0.81258,-0.87256 -1.31686,-2.03606 -1.33939,-3.31706l-1.83909,2.0961c-0.91673,1.05569 -2.26877,1.72323 -3.77671,1.72323c-0.29012,0 -0.57446,-0.02471 -0.85105,-0.07214c1.14868,3.00024 -1.54073,5.34707 -1.54073,5.34707c-2.51155,2.19163 -4.97483,4.43983 -7.53465,6.57488c-1.61248,1.34491 -2.99498,3.16855 -4.97729,3.86087c-2.51723,0.87914 -5.89414,0.14577 -8.67889,-0.49078zM207.84282,185.79488c1.0166,-0.09362 2.0386,-0.16201 3.05835,-0.24162c0.30571,-0.45851 0.57406,-0.9472 0.81892,-1.45447c-0.86888,0.23314 -1.72087,0.50738 -2.52067,0.91279c-0.46772,0.23708 -0.91866,0.5001 -1.3566,0.7833zM234.25272,145.309l-1.1389,0.52421c-0.00001,0.00232 -0.00002,0.00465 -0.00003,0.00697c0.37313,-0.18969 0.77563,-0.35441 1.21298,-0.48929c-0.02494,-0.01381 -0.04962,-0.02778 -0.07405,-0.0419zM278.75188,175.68406c0.31422,0.45072 0.63731,0.87761 0.96911,1.27845c0.8678,-0.20351 1.70406,-0.45938 2.4992,-0.77568c-1.17004,-0.00843 -2.32903,-0.15684 -3.46831,-0.50277zM177.24601,205.4487c0.02727,-0.04777 0.05462,-0.0953 0.08214,-0.14228c-0.04957,0.02235 -0.0991,0.04474 -0.14857,0.06716c0.02227,0.02485 0.04441,0.04989 0.06644,0.07512z" fill="#ff0000" stroke="none" stroke-width="0.5" stroke-linecap="butt"/><path d="M288.44258,140.17527c1.51957,3.42832 -1.90875,4.94789 -1.90875,4.94789l-0.86854,0.22953c-5.01345,4.16385 -9.42719,9.0553 -14.98377,12.49946c0,0 -0.32293,0.19818 -0.82649,0.36591l0.04808,0.3069l-0.08603,0.01348c0.04984,0.21688 0.09344,0.43566 0.13016,0.65656c0.10699,0.64368 0.10238,1.28573 0.02609,1.92668c0.34038,-0.10162 0.70105,-0.1562 1.07446,-0.1562c1.81655,0 3.33143,1.29164 3.67632,3.00661l0.08078,0.36254c0.53336,0.59217 0.8807,1.35518 0.95,2.19701l0.08882,0.94478c1.73229,-1.86939 3.28298,-4.49095 5.75964,-4.75728c1.65302,-0.17776 2.97346,0.24832 3.98795,1.03196c0.67215,-0.0637 1.35951,-0.05692 2.06261,0.03184c1.24538,0.15721 1.6915,1.69046 2.14345,3.03893c0.30787,-0.31724 0.61992,-0.62696 0.9295,-0.92231c1.11876,-1.43524 2.44035,-2.72589 3.86931,-3.83415c6.30901,-4.89304 11.14215,-4.20994 17.32854,-0.20886c1.22603,0.04698 2.55621,0.42514 4.28527,1.26302c3.96024,1.91907 4.37273,5.38779 6.10287,8.81391l0.39773,1.87417c0,0 0,3.75 -3.75,3.75c-2.65629,0 -3.43101,-1.88157 -3.65697,-2.97911c-0.78439,-2.07421 -1.55345,-5.50824 -4.20744,-5.15649c-3.01169,0.39916 -5.1965,3.75288 -8.46156,3.68271c-1.91951,-0.04125 -3.75682,-0.84986 -5.55477,-1.52336c-0.20324,-0.07613 -0.33518,-0.29883 -0.46742,-0.50699c-0.6949,0.86976 -1.36691,1.65671 -2.04555,2.176c-1.49905,1.14707 -3.02503,3.09096 -4.87019,2.96993c-2.23433,1.38261 -4.52733,2.63591 -6.97787,2.27709c-0.17912,-0.02623 -0.87724,-1.35926 -1.45431,-3.00147c-1.52645,1.19744 -3.24912,2.25261 -4.48258,3.2919l-1.66365,2.88163c-0.05267,0.24552 -0.35921,1.48363 -1.33339,2.30958l-0.42341,0.73339c-0.63905,1.15519 -1.86999,1.93739 -3.28361,1.93739c-1.28627,0 -2.42129,-0.6476 -3.09678,-1.63455l-3.283,4.79415c-0.6718,1.0106 -1.82071,1.67667 -3.12519,1.67667c-0.73873,0 -1.42756,-0.2136 -2.00811,-0.58242c-0.04171,0.00137 -0.0836,0.00207 -0.12565,0.00207c-0.4941,0 -0.96589,-0.09556 -1.39788,-0.26921c-1.08809,0.84956 -2.4817,0.84956 -2.4817,0.84956c-1.83082,-0.48716 -4.92962,0.3475 -5.49246,-1.46149c-0.16187,-0.52025 -0.2935,-1.02607 -0.39689,-1.51841c-0.29268,0.10702 -0.60242,0.17861 -0.92403,0.20957c-0.67746,0.9729 -1.80416,1.60962 -3.07957,1.60962c-1.83458,0 -3.36147,-1.3174 -3.68624,-3.05779l-0.451,-2.17394c-0.60409,0.09344 -1.14518,0.07138 -1.6297,-0.04723c-0.67163,0.63422 -1.57749,1.02304 -2.57415,1.02304c-1.25386,0 -2.36399,-0.61538 -3.04485,-1.56059l-1.06586,2.36751c-0.56976,1.34485 -1.90193,2.2883 -3.45445,2.2883c-2.07107,0 -3.75,-1.67893 -3.75,-3.75c0,-0.28142 0.031,-0.55561 0.08977,-0.81932c-0.9183,-0.23826 -1.69991,-0.81576 -2.20306,-1.59076c-1.18842,2.67904 -2.28707,4.88166 -2.21945,8.40706c0,0 0,3.75 -3.75,3.75c-3.75,0 -3.75,-3.75 -3.75,-3.75c0.00415,-0.30296 -0.00248,-0.60713 -0.01398,-0.91185c-0.48516,0.24927 -1.09497,0.40593 -1.86142,0.40593c-3.75,0 -3.75,-3.75 -3.75,-3.75l0.00003,-0.01593c-0.94944,0.83784 -1.986,1.54382 -3.13883,2.03109c-3.24772,1.37272 -5.22203,1.66806 -6.47011,1.17914c-0.5166,0.31854 -1.11631,0.51526 -1.75907,0.55011l-0.35886,2.86294c-0.20739,1.87485 -1.79694,3.33307 -3.72708,3.33307c-1.35076,0 -2.53471,-0.71417 -3.19487,-1.78551c-0.67689,1.7051 -1.08534,3.52987 -1.97849,5.1304c-0.30924,0.55417 -7.70995,11.189 -8.96284,11.83491c-5.63818,2.90668 -9.10494,3.15107 -10.29607,-0.46643c-1.82055,1.73897 -3.81264,3.59715 -4.03324,3.80497c0,0 -2.7298,2.57113 -5.30093,-0.15867c-2.57113,-2.7298 0.15867,-5.30093 0.15867,-5.30093c2.31618,-2.1812 4.2865,-4.76359 6.85379,-6.64278c1.88181,-1.37743 3.79397,-4.13367 6.04459,-3.52273c1.87889,0.51003 2.54153,2.90346 3.03318,4.97957c0.60296,-0.83019 1.26847,-1.61938 1.86828,-2.45209c1.35848,-1.88597 2.92415,-3.64214 4.05377,-5.67347c2.12183,-3.81554 2.24975,-9.59739 8.02629,-10.639c0.38988,-0.0703 0.77531,-0.07339 1.15747,-0.02696c0.04928,-0.13903 0.09082,-0.27663 0.12105,-0.41212l0.10146,-0.17026l-0.04482,-0.01498l2.30032,-6.88218c0.03974,-0.12886 0.08624,-0.25475 0.13909,-0.37726c-3.40873,-0.22032 -3.40873,-3.7392 -3.40873,-3.7392l0.06457,-1.27326c0.17319,-0.75797 0.29783,-1.52869 0.51957,-2.2739c0.20124,-0.67632 0.66797,-1.27965 0.74645,-1.98089c0.06716,-0.60009 -0.2839,1.23941 -0.71122,1.66604c-1.53377,1.5313 -2.88965,3.98269 -5.05431,4.0902c-2.79938,0.13903 -5.02619,-1.0457 -6.13095,-2.8402c-0.66398,1.3734 -1.09611,2.94955 -2.37633,3.65552c-0.31396,0.17313 -0.6359,0.32506 -0.96451,0.4593l0.06718,0.14084l-4.391,2.09433c-0.50658,0.2552 -1.07895,0.39892 -1.68489,0.39892c-1.13776,0 -2.15718,-0.50669 -2.8449,-1.30674c-0.19696,0.16125 -0.36825,0.27967 -0.50735,0.34579c-0.17898,0.08507 -0.35956,0.1656 -0.54161,0.24198l0.04258,0.0793l-4.98119,2.67487c-0.54276,0.30543 -1.16923,0.47965 -1.83639,0.47965c-2.07107,0 -3.75,-1.67893 -3.75,-3.75c0,-0.23151 0.02098,-0.45811 0.06114,-0.67802c-1.92746,1.23294 -4.50828,1.41692 -7.321,-0.60126c-0.33731,-0.24202 -0.60234,-0.5302 -0.80905,-0.85509c-0.31264,0.29755 -0.61748,0.5228 -0.9097,0.65496c-0.52793,0.23875 -1.11054,0.44971 -1.71656,0.61027c-0.70061,3.03858 -1.11068,6.05101 -0.01643,9.42037c0,0 1.12131,3.57843 -2.45712,4.69974c-3.57843,1.12131 -4.69974,-2.45712 -4.69974,-2.45712c-0.93504,-3.06728 -1.70633,-4.58548 -1.32457,-7.98411c0.43368,-3.8608 1.37634,-6.98989 1.94419,-10.25993c-0.11625,-2.59159 0.02964,-5.24516 0.42396,-6.27271c-0.0129,-0.23372 -0.02931,-0.47003 -0.04945,-0.70913l0.24718,-0.34632l0.00225,-0.0382l-0.21336,-0.03056l0.38012,-2.65363c0.23435,-1.84581 1.81048,-3.27294 3.71994,-3.27294c2.07107,0 3.75,1.67893 3.75,3.75c0,0.08527 -0.00285,0.16987 -0.00845,0.25372l-0.12744,2.16056c0.11259,-0.17107 0.23311,-0.35459 0.36309,-0.55331l0.83358,-2.16141c0.51976,-1.44724 1.90416,-2.4823 3.53031,-2.4823c1.98525,0 3.61019,1.54268 3.74144,3.49467l0.19142,2.48182l-0.39974,0.03083c0.36298,1.10405 0.56003,2.21914 0.43082,3.25602c1.70391,-1.96249 3.46275,-4.24985 5.60999,-3.55684c2.80157,0.90419 4.07814,2.5041 4.53523,4.35342c1.14141,-1.13915 2.34048,-2.24118 3.34805,-3.47836l0.30108,-0.10615l-0.08933,-0.09952l1.92881,-1.73121c0.66531,-0.60226 1.54772,-0.9691 2.51582,-0.9691c1.53122,0 2.84809,0.91774 3.43057,2.23317c0.59702,-0.53381 1.19772,-1.06354 1.76153,-1.6037l0.01596,-0.00715l-0.00387,-0.00416l2.90249,-2.70162c0.6704,-0.62755 1.57141,-1.01176 2.56215,-1.01176c2.07107,0 3.75,1.67893 3.75,3.75c0,0.25973 -0.0264,0.51329 -0.07668,0.75815l-0.18452,0.99372c2.53162,-1.45616 5.88421,-2.08723 7.07772,-1.44698c3.39874,1.82324 3.80637,4.97319 3.50932,8.02847c0.54139,-0.30336 1.16572,-0.47632 1.83045,-0.47632c1.68532,0 3.11097,1.11175 3.58358,2.64188c0.62639,-0.16138 1.10777,-0.30948 1.24165,-0.41111c2.55709,-1.94095 2.12804,-3.1284 3.15784,-5.53278c1.30676,-3.05102 2.92917,-5.91138 4.57027,-8.76925c-3.44978,-1.87425 -8.12887,-4.00681 -10.80172,-5.99578c-2.48827,-1.85162 -3.83086,-5.0865 -6.5113,-6.647c-2.25894,-1.31511 -4.83556,-2.01169 -7.13063,-3.26268l-2.33511,-3.84017c0,0 -1.18877,-3.55659 2.36782,-4.74536c3.55659,-1.18877 4.74536,2.36782 4.74536,2.36782l-1.17123,-0.35806c2.31897,1.28112 4.9621,1.93493 7.2238,3.31465c2.96546,1.80905 4.66531,5.21188 7.45519,7.28146c2.47709,1.83755 6.70705,3.6799 9.86107,5.36782c1.16351,-2.08836 2.8215,-5.57066 1.70483,-7.17511c-1.45146,-2.08546 -3.90823,-3.45406 -5.01308,-5.74211c-0.681,-1.41031 -0.93934,-2.98807 -1.40901,-4.4821l2.22226,-4.78545c0,0 2.93139,-2.33869 5.27008,0.5927c0.33506,0.41997 0.56195,0.82778 0.70478,1.21829c-0.00403,-0.09021 -0.00793,-0.18043 -0.01171,-0.27065l-0.00327,-2.28452c0,0 0,-3.75 3.75,-3.75c3.75,0 3.75,3.75 3.75,3.75l-0.00327,1.9714c0.0593,1.42354 0.14678,2.84403 0.25261,4.26224l0.78035,-2.18797c0.49377,-1.49423 1.90167,-2.57249 3.5614,-2.57249c2.07107,0 3.75,1.67893 3.75,3.75c0,0.0764 -0.00228,0.15226 -0.00679,0.22752l-0.19239,3.64567l-0.03645,-0.00192c0.00865,0.05333 0.0169,0.10677 0.02472,0.16031c0.0737,0.50446 0.07882,1.01002 0.03982,1.51594c0.09918,-0.00787 0.19946,-0.01188 0.30066,-0.01188c1.83744,0 3.36622,1.32151 3.68775,3.06592l0.16663,-1.0208c0.26358,-1.81317 1.82456,-3.20583 3.7108,-3.20583c1.50827,0 2.80857,0.89044 3.40389,2.17431l1.35425,2.76489l-0.21818,0.10686l0.42913,0.42214c0.03143,0.19884 0.06291,0.3977 0.09441,0.59656c0.55411,0.21902 1.04355,0.56624 1.43177,1.00509c1.07098,-1.8744 2.21471,-3.76082 4.15212,-3.97458c2.21998,-0.24493 3.69492,1.81804 4.61545,4.18169c0.07802,-2.00218 1.72581,-3.6014 3.74711,-3.6014c2.07107,0 3.75,1.67893 3.75,3.75c0,0.03046 -0.00036,0.06083 -0.00109,0.09111l-0.07835,3.75073c0.19441,-0.0311 0.39381,-0.04726 0.59698,-0.04726c1.18094,0 2.23439,0.54589 2.92176,1.39909c4.60771,-3.13736 8.43456,-7.41468 12.72146,-10.97949l2.62304,-1.31808c0,0 3.42832,-1.51957 4.94789,1.90875zM215.69937,166.06966c0,-0.44644 0.07801,-0.87466 0.22115,-1.27177l0.08617,-0.25781c-0.20321,0.372 -0.40258,0.74607 -0.5969,1.12287c-1.21264,2.35143 -1.99682,4.68274 -3.07212,6.86093c1.52699,0.43775 2.65502,1.81939 2.71228,3.47311l0.19327,4.81809l-0.496,0.0199c0.07107,0.40015 0.13187,0.80116 0.18076,1.20291c0.77013,-1.55322 1.60874,-3.08655 2.17502,-4.71328c0.38124,-1.09518 1.36314,-4.55178 2.08886,-7.51363c-1.95096,-0.1323 -3.49251,-1.75678 -3.49251,-3.7413zM226.22527,135.16998l-0.01627,-0.0058c0.00055,0.00706 0.0011,0.01412 0.00165,0.02117zM218.1703,133.68437c0.15196,0.3117 0.31446,0.61332 0.48511,0.9069c-0.04542,-0.60053 -0.08714,-1.20125 -0.12435,-1.8022c-0.08385,0.32977 -0.21352,0.63021 -0.36076,0.8953zM202.94946,180.34631c0.13067,-0.13166 0.26238,-0.26246 0.3947,-0.39276c-0.14762,0.0366 -0.29527,0.07237 -0.44249,0.10734c0.0171,0.09568 0.03305,0.19084 0.04779,0.28542z" fill="#ff7b00" stroke="none" stroke-width="0.5" stroke-linecap="butt"/><path d="M322.7013,214.15781c-2.84739,2.14622 -5.89094,3.51692 -10.5688,3.35463c-0.76586,-0.02657 -1.0334,-1.22896 -1.75618,-1.4836c-0.26343,-0.09281 -0.20877,0.56784 -0.45164,0.70575c-1.68539,0.95705 -4.08445,1.59038 -6.00324,1.63037c-2.21838,0.04623 -4.56969,0.46468 -6.64941,-0.30868c-1.53997,-0.57265 -2.61769,-2.07261 -3.52459,-3.44694c-0.03837,0.02571 -0.08474,0.03894 -0.1416,0.03617c-2.43242,-0.11837 -5.35837,0.17766 -7.30681,-1.1833c-2.32425,2.4776 -5.82729,3.95402 -8.67524,0.21665c-0.47503,-0.62339 -0.89731,-1.20704 -1.27078,-1.75306c-3.14002,2.65905 -6.86222,5.4826 -7.40923,5.62599c-6.9115,1.8118 -5.37157,-1.68142 -6.98171,-4.37827c-0.8669,-1.45198 -3.3697,1.27264 -5.00372,0.83706c-0.99593,-0.26549 -0.97929,-2.01826 -1.93034,-2.4156c-0.48034,-0.20068 0.34652,1.33721 -0.12553,1.55667c-2.60807,1.21249 -5.58625,3.31459 -8.29938,2.36006c-1.94495,-0.68427 -1.20459,-3.94375 -1.80689,-5.91562c0,0 0,-3.75 3.75,-3.75c0.80312,0 1.43424,0.172 1.9302,0.44233c0.50982,-1.09497 1.85915,-2.05315 4.00267,-2.17333c1.85741,-0.10414 12.87217,3.57069 13.57341,5.90318c0.49468,1.64541 2.24607,-2.60493 3.4625,-3.81833c1.68102,-1.67684 7.74122,-8.20187 10.76902,-7.19435c2.03538,0.67728 3.37024,1.48323 4.17999,2.33521c2.60079,-0.98939 5.49179,-1.03106 7.06534,0.83556c0.89401,1.06051 0.78518,2.48169 0.50444,3.96471c0.85056,-0.1798 1.92626,-0.1027 3.10132,0.38444c1.48414,0.61528 1.93393,2.56775 2.83558,3.8975c0.15718,0.23181 0.05336,0.73429 0.33083,0.77234c1.01224,0.13884 2.03479,-0.18982 3.04956,-0.30868c2.58819,-0.30316 5.36355,-2.45129 7.89954,-2.3067c0.99305,0.05662 1.52917,1.45451 2.51134,1.61162c3.1411,0.50244 8.73873,-5.7764 9.83034,-6.752l2.66603,-2.54743c0.67369,-0.64604 1.58807,-1.04304 2.59517,-1.04304c2.07107,0 3.75,1.67893 3.75,3.75c0,0.63124 -0.15597,1.22606 -0.43147,1.74801l-2.29402,4.57553l-0.24709,-0.12388c-0.03674,0.23329 -0.07348,0.46658 -0.11022,0.69987l-2.97688,2.82367c0,0 -1.80706,1.66351 -3.84254,0.83549zM294.01137,213.81191c0.20395,-0.27547 0.39912,-0.48264 0.21973,-0.37142c-0.11583,0.07181 -0.17761,0.21164 -0.21973,0.37142z" fill="#ff7b00" stroke="none" stroke-width="0.5" stroke-linecap="butt"/><path d="M177.83729,172.90105c1.10008,3.58501 -2.48494,4.68509 -2.48494,4.68509l-3.80191,0.93446c-1.21953,-0.42693 -2.49117,-0.72702 -3.65859,-1.28079c-0.48595,-0.23051 -0.70934,-1.15945 -1.23374,-1.03992c-1.3206,0.30101 -2.11715,2.07926 -3.47122,2.11235c-2.02309,0.04944 -4.21127,-0.59654 -5.77055,-1.88649c-2.6651,-2.20475 -2.19024,-6.62643 -4.30025,-8.77438c-0.60963,-0.62059 -1.58887,0.7415 -2.28011,1.26967c-1.06014,0.81005 -2.84752,3.2666 -3.51085,4.11215c0,0 -2.32074,2.94562 -5.26636,0.62488c-2.94562,-2.32074 -0.62488,-5.26636 -0.62488,-5.26636c3.39888,-4.29793 8.69638,-10.46071 15.15877,-7.38591c1.74057,0.82816 3.90897,5.00139 4.73368,6.89758c0.41832,0.96181 0.17533,3.43898 1.1018,2.94732c4.30744,-2.28588 5.06977,-2.71511 9.48251,0.17854l1.24155,-0.61315c0,0 3.58501,-1.10008 4.68509,2.48494z" fill="#ffc500" stroke="none" stroke-width="0.5" stroke-linecap="butt"/><path d="M185.01437,201.5465c2.24608,3.00294 -0.75686,5.24902 -0.75686,5.24902l-2.21632,1.6544c-1.90059,1.65661 -3.71844,3.41322 -5.43891,5.25622c0,0 -2.56242,2.73797 -5.30039,0.17555c-2.73797,-2.56242 -0.17555,-5.30039 -0.17555,-5.30039c1.96185,-2.09144 4.04014,-4.07751 6.19986,-5.96394l2.43916,-1.82771c0,0 3.00294,-2.24608 5.24902,0.75686z" fill="#ffc500" stroke="none" stroke-width="0.5" stroke-linecap="butt"/><path d="M214.01132,177.17169c3.21332,1.93316 1.28016,5.14647 1.28016,5.14647l-0.36998,0.5606c-0.51728,1.16071 -1.03457,2.32141 -1.55185,3.48212c0,0 -1.5265,3.42524 -4.95175,1.89874c-3.42524,-1.5265 -1.89874,-4.95175 -1.89874,-4.95175c0.51728,-1.16071 1.03457,-2.32141 1.55185,-3.48212l0.79384,-1.37391c0,0 1.93316,-3.21332 5.14647,-1.28016z" fill="#ffc500" stroke="none" stroke-width="0.5" stroke-linecap="butt"/><path d="M246.45213,191.00948c-3.66023,0.8156 -4.47583,-2.84463 -4.47583,-2.84463l-0.71801,-3.25574c-0.27555,-0.86479 -0.69652,-1.83181 -1.09021,-2.84631c-0.53998,1.52105 -1.01305,3.06759 -1.32925,4.66783l-0.50855,1.61396c0,0 -1.1888,3.55658 -4.74538,2.36778c-3.55658,-1.1888 -2.36778,-4.74538 -2.36778,-4.74538l0.26739,-0.70745c0.40374,-1.99738 0.98792,-3.90241 1.6505,-5.77032c-1.41032,0.16078 -2.93199,0.27663 -4.73698,0.38343c0,0 -0.39164,0.02297 -0.929,-0.07261c-0.04299,0.02303 -0.08686,0.04577 -0.13162,0.06822c-0.74309,0.37256 -1.40405,0.49782 -1.98277,0.4671c-0.11147,0.19274 -0.22293,0.38547 -0.3344,0.57821c0,0 -1.88272,3.24313 -5.12584,1.36041c-3.24313,-1.88272 -1.36041,-5.12584 -1.36041,-5.12584c0.75043,-1.28828 1.50086,-2.57655 2.25128,-3.86483l0.20703,-0.12293l-0.07847,-0.05902l2.30175,-3.06063c0.68261,-0.92825 1.78248,-1.53065 3.02306,-1.53065c2.07107,0 3.75,1.67893 3.75,3.75c0,0.00086 0,0.00172 0,0.00257c2.2647,-0.14758 4.10181,-0.32241 6.17641,-0.73416c0.03765,-0.10413 0.07508,-0.20839 0.11229,-0.31278c0.36818,-1.03296 0.30559,-2.18379 0.6493,-3.22515c1.48564,-4.50116 3.38626,-5.92366 1.12562,-3.97245c0,0 -3.55853,-1.18295 -2.37557,-4.74148c1.18295,-3.55853 4.74148,-2.37557 4.74148,-2.37557c1.65978,0.88651 4.43144,0.85937 4.97934,2.65953c0.76198,2.50351 -0.06703,5.16615 -0.69383,7.79201c0.05204,-0.00214 0.10436,-0.00322 0.15693,-0.00322c2.07107,0 3.75,1.67893 3.75,3.75c0,0.20273 -0.01609,0.40171 -0.04706,0.59572l-0.57278,3.9985l-0.10702,-0.01533c0.00648,0.15736 0.01059,0.31492 0.01211,0.4727c0.00866,0.89503 -1.30189,1.49708 -1.22612,2.38894c0.13109,1.54288 1.19546,2.85684 1.79318,4.28526l0.83381,3.7085c0,0 0.8156,3.66023 -2.84463,4.47583z" fill="#ffc500" stroke="none" stroke-width="0.5" stroke-linecap="butt"/><path d="M284.56787,172.08196c0.95192,3.62717 -2.67525,4.57909 -2.67525,4.57909l-3.4966,0.91231c-1.81317,0.68772 -3.62633,1.37545 -5.4395,2.06317c0,0 -3.50744,1.32679 -4.83423,-2.18065c-1.32679,-3.50744 2.18065,-4.83423 2.18065,-4.83423c1.93708,-0.73092 3.87415,-1.46183 5.81123,-2.19275l3.87462,-1.0222c0,0 3.62717,-0.95192 4.57909,2.67525z" fill="#ffc500" stroke="none" stroke-width="0.5" stroke-linecap="butt"/><path d="M312.57294,164.48754c0.61486,3.69925 -3.08439,4.31411 -3.08439,4.31411l-1.54546,0.23694c-1.03456,0.06448 -2.06911,0.12897 -3.10367,0.19345c0,0 -3.74274,0.23328 -3.97602,-3.50945c-0.23328,-3.74274 3.50945,-3.97602 3.50945,-3.97602c1.03456,-0.06448 2.06911,-0.12897 3.10367,-0.19345l0.7823,-0.14996c0,0 3.69925,-0.61486 4.31411,3.08439z" fill="#ffc500" stroke="none" stroke-width="0.5" stroke-linecap="butt"/><path d="M271.65663,212.05953c-0.52892,3.71251 -4.24143,3.1836 -4.24143,3.1836l-2.4519,-0.3588c-1.98074,0.00313 -3.96148,0.00626 -5.94221,0.00938c0,0 -3.75,0 -3.75,-3.75c0,-3.75 3.75,-3.75 3.75,-3.75c2.15749,0.00313 4.31497,0.00626 6.47246,0.00938l2.97949,0.41501c0,0 3.71251,0.52892 3.1836,4.24143z" fill="#ffc500" stroke="none" stroke-width="0.5" stroke-linecap="butt"/><path d="M282.23416,214.23892c0,-2.07107 1.67893,-3.75 3.75,-3.75c2.07107,0 3.75,1.67893 3.75,3.75c0,2.07107 -1.67893,3.75 -3.75,3.75c-2.07107,0 -3.75,-1.67893 -3.75,-3.75z" fill="#ffc500" stroke="none" stroke-width="0.5" stroke-linecap="butt"/><path d="M330.71415,212.17132c-1.02761,3.60645 -4.63407,2.57884 -4.63407,2.57884l-2.68382,-0.76487c-0.95925,-0.25505 -1.91849,-0.5101 -2.87774,-0.76515c0,0 -3.62404,-0.96377 -2.66026,-4.58781c0.96377,-3.62404 4.58781,-2.66026 4.58781,-2.66026c0.98055,0.26082 1.9611,0.52164 2.94166,0.78245l2.74758,0.78274c0,0 3.60645,1.02761 2.57884,4.63407z" fill="#ffc500" stroke="none" stroke-width="0.5" stroke-linecap="butt"/></g></g></svg>