<svg version="1.1" xmlns="http://www.w3.org/2000/svg" xmlns:xlink="http://www.w3.org/1999/xlink" width="166.87715" height="118.44162" viewBox="0,0,166.87715,118.44162"><g transform="translate(-157.19966,-114.75)"><g stroke="none" stroke-width="0.5" stroke-miterlimit="10"><path d="M232.97607,226.56335c-1.07202,0 -2.07552,-0.29337 -2.93459,-0.8042c-1.85779,4.23701 -6.48009,9.82606 -12.5893,5.03505c-1.17849,-0.9242 -2.65221,-4.87793 -3.40187,-9.13052c-2.84139,4.36983 -6.66017,9.21252 -9.99279,8.52049c-2.49261,-0.51761 -3.77253,-2.75297 -4.7821,-5.37127c-2.03853,2.06959 -4.01886,4.22867 -6.44928,5.794c-6.71534,4.32506 -23.67122,4.16896 -19.07968,-7.88531c-1.8311,-0.31605 -3.64111,-0.8922 -5.46435,-1.2549c-5.53448,-1.10101 -7.94609,-0.63162 -9.98268,-7.64956c-0.7578,-2.61134 -1.57153,-6.11894 0.23185,-8.15394c2.67259,-3.01585 7.34941,-3.32966 11.14472,-4.68381c0.50459,-0.18003 1.01648,-0.36728 1.53399,-0.53877c-0.85556,-2.54428 -1.31873,-5.25153 -2.61747,-7.59273c-1.61195,-2.90583 -4.42022,-5.39721 -4.89098,-8.68668c-0.25945,-1.81289 0.39905,-3.56634 1.13348,-5.31488l-2.2918,-2.56259l0.09451,-0.08452c-0.09964,-0.04789 -0.19814,-0.0987 -0.29538,-0.1527c-1.02439,-0.56885 -1.37338,-1.89693 -2.05295,-2.8534l-1.86044,-2.41199c-0.76996,-0.97813 -1.2293,-2.21226 -1.2293,-3.55367c0,-3.17564 2.57436,-5.75 5.75,-5.75c1.0432,0 2.02151,0.27781 2.865,0.76347c-0.42467,-0.86316 -0.84704,-1.72737 -1.28022,-2.58483c-2.02783,-4.01404 -5.13768,-10.38293 0.4237,-14.40354c4.67604,-3.38056 13.67783,3.86541 19.87229,10.69118c-0.46893,-3.03821 -0.6823,-5.47287 -0.59631,-5.55791c0.50149,-0.49597 1.01878,-0.91823 1.54987,-1.27165c0.43036,-2.75001 2.80978,-4.85386 5.68058,-4.85386c0.84763,0 1.65241,0.18341 2.37684,0.5127l3.95654,1.69104l-0.06899,0.16142c0.22778,0.04405 0.45495,0.09214 0.68144,0.14467c0.10437,0.02421 0.20724,0.05105 0.30866,0.08042c-0.38003,-2.32676 -0.78878,-4.65193 -1.2995,-6.96452c-1.19357,-5.40451 -3.04301,-9.6205 -3.09422,-15.22695l-0.73782,-2.21346c-0.21847,-0.60766 -0.33751,-1.26275 -0.33751,-1.94564c0,-3.17564 2.57436,-5.75 5.75,-5.75c2.29542,0 4.27668,1.34503 5.19867,3.28994l1.94429,3.88858l-0.14345,0.07172c0.10513,0.09877 0.20941,0.19852 0.3128,0.29933c0.81171,0.79141 0.68842,2.16133 1.08686,3.22267c0.97164,2.58822 2.40148,5.61253 3.12153,8.37013c0.23718,0.90832 0.05178,1.94071 0.48296,2.77461c0.40039,0.77435 1.45373,1.05396 1.88759,1.81006c1.04768,1.82584 1.76417,4.12057 2.41642,6.36773c0.41751,-1.23038 0.83386,-2.461 1.18664,-3.70449l0.14981,-0.18796l-0.06925,-0.02749l3.63613,-9.16107c0.8115,-2.19139 2.92028,-3.75331 5.39386,-3.75331c2.10565,0 3.94695,1.13183 4.94871,2.8203c0.85291,-2.10744 2.91893,-3.5941 5.33218,-3.5941c1.99076,0 3.74523,1.01169 4.77732,2.54898l0.22263,-0.30716c1.04117,-1.47328 2.75774,-2.43527 4.69899,-2.43527c3.0656,0 5.57087,2.39904 5.74081,5.42213l0.30985,4.78946c2.16878,-0.77176 4.53039,-0.76826 6.80636,0.5391c0.79178,0.45481 1.39296,0.98105 1.83591,1.5598c3.60314,-2.81921 9.29735,-6.5674 13.0383,-4.38067c7.66631,4.48126 3.50091,12.96644 -0.2912,19.35053c-0.04381,0.2593 -0.10742,0.50554 -0.18707,0.73903c0.46009,-0.02757 0.91136,-0.04614 1.35182,-0.05467c1.16402,-0.79102 2.31893,-1.59676 3.48653,-2.37946c1.29633,-0.86901 2.53157,-1.82584 3.79673,-2.73964l4.54418,-3.58769c0.98551,-0.79263 2.23787,-1.26698 3.60102,-1.26698c3.17564,0 5.75,2.57436 5.75,5.75c0,1.0323 -0.27203,2.00106 -0.74832,2.83851l-2.47061,4.54871l-0.01631,-0.00886c-0.00505,0.02206 -0.01013,0.04411 -0.01524,0.06616c-0.04321,0.1864 -0.32092,0.83226 -0.75334,1.64468c0.12401,-0.03275 0.24631,-0.06958 0.36662,-0.1111c6.39362,-2.20628 8.17337,-3.7396 13.15925,-7.07563l2.1868,-1.63563c0.96792,-0.74058 2.17802,-1.18057 3.49089,-1.18057c3.17564,0 5.75,2.57436 5.75,5.75c0,1.388 -0.4918,2.66114 -1.31065,3.65466l-4.92757,6.07804c0.19729,-0.00253 0.39466,-0.00228 0.59211,0.00109c2.9876,0.05102 10.18997,2.35882 10.85937,5.1522c1.76533,7.36661 -2.74235,10.11573 -7.62324,11.78163c0.51785,0.3519 1.05885,0.65222 1.64211,0.85551l0.04948,0.0443l0.00858,-0.0215l4.72502,1.88487c2.18647,0.81404 3.74395,2.92032 3.74395,5.39038c0,2.69681 -1.85656,4.96 -4.3613,5.58118l-4.14712,1.12796l-0.03951,-0.14526c-0.74028,0.3098 -1.49122,0.52756 -2.24081,0.61216c1.81413,3.9945 1.72826,8.28131 -3.22702,11.28003c-2.27132,1.37451 -5.93043,2.4021 -8.80519,2.03158c0.31045,1.21404 -0.23235,2.90762 -2.68422,5.155c-5.91148,5.41847 -9.45068,4.47627 -14.88749,0.72614c-0.3976,-0.27425 -0.95483,-0.72059 -1.44442,-1.20302c-1.32456,2.05119 -3.6255,4.63734 -3.76616,4.65257c-6.46151,0.69952 -8.83282,-1.14874 -10.41922,-4.21683c-1.36333,2.29598 -3.98941,4.42875 -6.09629,4.65285c-0.58456,0.06218 -5.67652,-1.62606 -8.21816,-4.11446c-1.98913,2.9153 -6.16346,6.50276 -10.15863,6.49832c-1.959,-0.00218 -3.61301,-0.38271 -4.98082,-1.06539c-0.5523,2.59912 -2.86063,4.54898 -5.62438,4.54898zM169.02154,210.20727c0.0504,-0.06767 0.09467,-0.13302 0.13017,-0.19516c0.04692,-0.08213 -0.04655,0.0441 -0.13017,0.19516z" fill="#dc0000"/><path d="M261.09846,201.33446c-0.74193,1.68157 -3.6353,2.87197 -4.68617,3.21792c-2.3559,0.77557 -5.02103,1.68064 -7.38319,0.92436c-0.37938,-0.12147 -0.72626,-0.29684 -1.04898,-0.51228c-1.09178,1.50825 -2.19857,3.00566 -3.2956,4.51011l-0.59514,0.23665l0.1718,0.1895l-2.11857,1.92071c-1.02239,0.9341 -2.3833,1.50388 -3.87729,1.50388c-0.90411,0 -1.75949,-0.20867 -2.52059,-0.58047c-1.67234,1.06203 -3.38554,1.77182 -4.20022,1.84009c-2.50965,0.21032 -4.9526,-0.76917 -7.41389,-1.42139c-4.13624,2.71003 -10.39378,3.37008 -13.65858,1.01821c-1.90615,-1.37314 -2.39676,-3.98239 -3.3449,-6.1921l-3.06988,-1.72701c-2.37075,4.30106 -5.76124,6.32378 -10.83682,7.82809c-1.2299,0.36452 -2.53349,1.09945 -3.7717,0.76422c-0.2498,-0.06763 -0.49752,-0.14103 -0.74339,-0.21957l-0.01205,0.22962l-3.64978,-0.19157c-3.05236,-0.13876 -5.48444,-2.65735 -5.48444,-5.74398c0,-2.03028 1.05225,-3.81479 2.64115,-4.83793l2.57156,-1.70971c1.0703,-0.97135 2.05178,-1.85145 3.00031,-2.77056c-1.63084,-1.83604 -1.5563,-4.81812 0.76277,-9.73698c0.16033,-0.34006 0.33549,-0.66851 0.52459,-0.98577c-1.66661,-0.81633 -3.06788,-1.84973 -3.67061,-3.33964c-1.14512,-2.83067 -1.14197,-4.96072 -0.42533,-6.61605c-1.83281,-3.53538 -2.84969,-7.30922 -1.09654,-11.2911c0.99041,-2.24949 7.14378,-2.19563 11.65253,-1.83384c-0.01207,-0.54211 0.03829,-0.89463 0.03829,-0.89463c0.47615,-3.33305 0.81358,-13.08076 4.99178,-13.99913c2.85805,-0.6282 5.79515,1.0291 8.3337,2.7936c0.95206,-3.11037 2.36498,-6.75004 2.79057,-7.91986l0.41693,-2.08465c0.48269,-2.68748 2.83281,-4.72678 5.65923,-4.72678c2.46814,0 4.57308,1.55506 5.38848,3.73886l0.95026,2.37564l-0.10716,0.04287c0.08151,0.10637 0.16138,0.21418 0.23951,0.32353c0.86609,1.21229 0.95068,2.80781 1.13261,4.31941c0.71922,-0.41296 1.43824,-0.82625 2.15024,-1.25067l3.22688,3.50425c0.8889,-0.56313 1.94287,-0.88916 3.07299,-0.88916c2.47113,0 4.57818,1.55883 5.39144,3.7468l2.13623,-1.11153c0.4866,-0.26589 1.01587,-0.4635 1.5749,-0.57992c0.36229,-0.93558 0.75389,-1.84027 1.53057,-2.40315c8.86116,-6.42195 12.27798,-2.01491 13.5856,5.38857c2.62013,0.16154 4.7655,2.07776 5.27549,4.58803c0.7537,-0.12947 1.50343,-0.27814 2.24773,-0.44608l2.47439,-0.98707c0.69153,-0.2946 1.45258,-0.45762 2.25171,-0.45762c3.17564,0 5.75,2.57436 5.75,5.75c0,1.17133 -0.35024,2.26085 -0.9517,3.16956c0.44422,0.57923 0.84502,1.19904 1.1964,1.85444c0.31364,0.585 -0.44828,1.77207 -1.04268,2.57967c0.0417,0.06131 0.08224,0.12347 0.12159,0.18644c7.43321,-6.30715 16.40571,-4.58142 16.78527,6.31088c0.55822,-0.00609 1.09419,0.08063 1.58643,0.34589c0.36665,0.19758 0.71915,0.4151 1.06002,0.64899l0.12674,-0.31771l2.78523,1.11107c2.18647,0.81404 3.74394,2.92032 3.74394,5.39038c0,2.61957 -1.75173,4.82999 -4.14769,5.52379l-3.53193,1.11231c-1.91449,0.62941 -3.73027,1.89376 -5.74497,1.8785c-0.19733,-0.00149 -0.39444,-0.00565 -0.59135,-0.01227l0.01294,0.11027l-3.82383,0.44864c-0.77356,1.61255 -2.27689,2.80852 -4.08206,3.15998c0.48672,0.84416 0.76518,1.82354 0.76518,2.86796c0,3.17564 -2.57436,5.75 -5.75,5.75c-1.33634,0 -2.5662,-0.45587 -3.54256,-1.22058l-2.4402,-1.87196c-2.73124,-0.58706 -5.22327,-1.33661 -7.45818,-2.32098z" fill="#ff5600"/><path d="M217.60084,168.80996c-0.01449,-0.16646 -0.02189,-0.33496 -0.02189,-0.50518c0,-3.17564 2.57436,-5.75 5.75,-5.75c1.46898,0 2.8093,0.55086 3.82566,1.45727l0.64794,-1.6962c0.79211,-2.22817 2.91942,-3.82354 5.41934,-3.82354c3.17564,0 5.75,2.57436 5.75,5.75c0,0.17691 -0.00799,0.35196 -0.02363,0.5248l-0.14092,1.75665c0.94103,-0.6719 2.09313,-1.06722 3.33755,-1.06722c0.90475,0 1.7607,0.20896 2.52221,0.58126l2.93949,-0.18322l0.00128,0.02048l0.03439,-0.02259c1.28907,-0.06425 2.64935,-0.62011 3.86722,-0.19294l2.80681,-0.18661c0.14433,-0.01085 0.29015,-0.01638 0.43725,-0.01638c1.71155,0 3.24844,0.7478 4.30177,1.93451c0.95999,0 4.62126,0 4.62126,0c3.17564,0 5.75,2.57436 5.75,5.75c0,2.9407 -2.20755,5.36581 -5.05587,5.70853l-1.17086,0.15923c1.53288,1.03279 2.54113,2.78467 2.54113,4.77204c0,2.7077 -1.87159,4.97827 -4.39168,5.58863l-2.79019,0.74203l-0.05972,-0.22457c-1.53989,0.75624 -3.19885,1.01656 -5.48981,0.46713c0.02667,0.57637 0.00399,1.1734 0.04165,1.74517h0.08113c0,0 0,2.51486 0,2.51486c0,3.17564 -2.57436,5.75 -5.75,5.75c-1.43009,0 -2.73824,-0.52207 -3.74425,-1.38603l-3.85341,-3.26648l0.07383,-0.0871c-0.08782,-0.05076 -0.17531,-0.10216 -0.26245,-0.15424c-0.25228,0.70919 -0.58919,1.35625 -1.15532,1.82661c-2.28321,1.89697 -5.12387,4.2686 -8.05475,3.79801c-4.32447,-0.69435 -6.88295,-3.64441 -7.37299,-7.03261c-0.1167,0.0807 -0.23063,0.16377 -0.34075,0.25012l-1.9247,-0.66973l-0.04776,0.91l-3.64975,-0.19157c-2.07808,-0.09447 -3.86865,-1.29199 -4.8,-3.02085c-4.45484,-0.95752 -4.48647,-1.54619 -7.91999,-4.19114l-3.04927,-1.96769c-1.62827,-1.01532 -2.71178,-2.82247 -2.71178,-4.88269c0,-3.17564 2.57436,-5.75 5.75,-5.75l3.19683,0c0.26602,-2.92871 2.72816,-5.22318 5.72619,-5.22318c0.79912,0 1.56017,0.16302 2.2517,0.45761l2.25144,0.89812z" fill="#ffdd00"/></g></g></svg>