<svg version="1.1" xmlns="http://www.w3.org/2000/svg" xmlns:xlink="http://www.w3.org/1999/xlink" width="63.8026" height="12.4385" viewBox="0,0,63.8026,12.4385"><g transform="translate(-200.26241,-173.33011)"><g stroke="none" stroke-miterlimit="10"><path d="M221.0463,176.41281l37.9966,0.50832l-0.08918,6.66607l-37.9966,-0.50832z" fill="#888888" stroke-width="0"/><path d="M258.85544,176.85529l5.20957,3.37008l-5.28799,3.39139z" fill="#757575" stroke-width="0"/><path d="M221.18751,176.5v-3.16989c2.05249,0.6675 3.70039,1.48981 5.875,1.99771v1.17218z" fill="#757575" stroke-width="0"/><path d="M221.06251,183h5.875v1.25503c-0.1491,-0.00087 -0.2466,0.01538 -0.2466,0.01538c-1.93823,0.33792 -3.736,1.01057 -5.6284,1.4982z" fill="#757575" stroke-width="0"/><path d="M212.89644,183.04076c-2.0323,-0.06244 -4.40131,-0.71921 -5.9704,-0.94633l-0.06052,-0.04738l-0.00933,0.02675l-0.75947,-0.26509c-0.30132,-0.09732 -0.51928,-0.38013 -0.51928,-0.71384c0,-0.02149 0.0009,-0.04277 0.00267,-0.0638l-0.29763,-0.14195c-0.26069,-0.11749 -0.44216,-0.37962 -0.44216,-0.68412c0,-0.01663 0.00054,-0.03314 0.0016,-0.0495c-1.43912,0.07871 -2.58872,0.26901 -3.58133,-0.75493l-0.24177,0.20202l-0.57882,-0.6927c-0.11078,-0.13072 -0.17759,-0.29987 -0.17759,-0.48463c0,-0.41422 0.33578,-0.75 0.75,-0.75c0.05832,0 0.11509,0.00666 0.16959,0.01925l0.72164,0.15151l-0.00125,0.00593l0.01805,-0.0022c3.26422,0.84462 5.63588,0.48224 8.91367,0.6814c0.21345,0.01297 0.42548,0.04316 0.63692,0.08218c0.55437,-0.34023 1.12234,-0.61292 1.73557,-0.5368c0.57217,0.07102 1.06811,0.39038 1.57033,0.6998c0.62846,-0.27892 1.11529,-0.83929 1.74938,-1.08714c1.42903,-0.55856 2.57498,0.33408 3.79203,-0.16549c0,0 0.7081,-0.24716 0.95526,0.46095c0.14927,0.42764 -0.04987,0.68715 -0.23103,0.82565c0.0855,0.09388 0.14748,0.20954 0.17665,0.33769l0.19016,0.75857l-0.04458,0.01118c0.03626,0.1228 0.05176,0.24922 0.03717,0.3809c-0.04018,0.36276 -0.16552,0.63969 -0.35248,0.84981c0.30986,0.56527 0.26291,1.23005 -0.40065,1.9614c-0.29636,0.32663 -2.23745,0.1582 -3.71841,-0.00997l-0.83626,0.19246c-0.05892,0.01487 -0.12063,0.02278 -0.18417,0.02278c-0.20723,0 -0.39483,-0.08405 -0.53057,-0.21991c-0.39901,0.26555 -0.9595,0.31853 -1.43675,0.27469c-0.37115,-0.03409 -0.72694,-0.15359 -1.04623,-0.32911z" fill="#ff0000" stroke-width="0.5"/><path d="M209.93198,181.14206c-0.15786,-0.0101 -0.31582,-0.02117 -0.4739,-0.03326l-0.00802,-0.05493l-0.00615,0.05343l-0.20298,-0.02336l-0.01815,0.08007l-0.76135,-0.17256c-0.34173,-0.06996 -0.59878,-0.37234 -0.59878,-0.73475c0,-0.41421 0.33579,-0.75 0.75,-0.75c0.03281,0 0.06513,0.00211 0.09683,0.00619l0.89529,0.10302c0.16068,0.01234 0.32124,0.0236 0.48168,0.03385c0.63237,-0.19975 1.58923,-0.10533 2.60891,0.08864c0.40253,0.00334 0.80473,0.0027 1.20676,-0.00079c1.12054,-0.62545 2.35907,-0.75433 3.98052,-0.4367c0.60109,-0.40652 1.1914,-0.46261 2.05082,0.10753l0.0866,-0.13569l0.19131,0.12211c0.10972,-0.13305 0.28595,-0.23991 0.56905,-0.23991c0.75,0 0.75,0.75 0.75,0.75l-0.00691,0.76989c-0.1186,0.41244 0.00369,1.00291 -0.35579,1.23731c-1.00485,0.6552 -1.59012,0.18059 -2.20337,-0.34434c-0.52104,0.0456 -1.0778,0.08998 -1.65674,0.12555c-0.17907,0.34623 -0.37607,0.66338 -0.6913,0.83725c-1.70818,0.94216 -1.68507,-0.34235 -3.09625,-0.33484l-0.0628,-0.03246l-0.00464,0.02016l-0.90232,-0.20766c-0.21996,-0.04576 -0.4046,-0.18787 -0.50779,-0.38019c-0.73859,-0.09865 -1.45079,-0.24497 -2.11055,-0.45356z" fill="#ff9000" stroke-width="0.5"/><path d="M220.67744,179.75597c0,0 0.7459,-0.06762 0.81451,0.67766c0.06575,0.104 0.10901,0.24087 0.10901,0.421c0,0.75 -0.75,0.75 -0.75,0.75h-0.67011c-0.81393,-0.00015 -1.24943,0.00975 -1.68014,-0.08891c-0.04057,0.00488 -0.08114,0.00973 -0.12173,0.01454l-0.01204,0.10463l-0.90774,-0.10445c-0.37829,-0.03832 -0.67351,-0.35776 -0.67351,-0.74615c0,-0.41421 0.33579,-0.75 0.75,-0.75l0.74223,0c0.80049,-0.09717 1.59637,-0.20531 2.39952,-0.27832z" fill="#fff500" stroke-width="0.5"/></g></g></svg>