<svg version="1.1" xmlns="http://www.w3.org/2000/svg" xmlns:xlink="http://www.w3.org/1999/xlink" width="177.75192" height="98.9848" viewBox="0,0,177.75192,98.9848"><g transform="translate(-129.17865,-130.50761)"><g stroke-miterlimit="10"><path d="M132.049,156.33632l143.27643,0.55667l-0.35305,50.99931l-143.27643,-0.55667z" fill="#754a00" stroke="#503300" stroke-width="5" stroke-linecap="butt"/><path d="M276.30732,157.49459l26.93394,25.09414l-27.12773,24.72037z" fill="#754a00" stroke="#503300" stroke-width="5" stroke-linecap="butt"/><path d="M271.35128,176.2413c-0.27903,-2.53454 -0.06411,-4.41442 0.44831,-5.73809c-1.35652,-0.73951 -2.66942,-1.6196 -4.03113,-2.64924l2.3691,-1.64517l0.56502,-2.02839l-0.39022,-0.29585c-0.19808,-0.14682 -0.37367,-0.32222 -0.52069,-0.52006c-0.60479,-0.45925 -0.99376,-1.18741 -0.98951,-2.00526c0.00716,-1.38069 1.13224,-2.49416 2.51293,-2.487c0.34826,0.00181 0.67951,0.07473 0.98007,0.20495l1.73063,0.70268l0.77412,0.15901l-0.04945,0.24074c0.29778,0.01236 0.59465,0.04391 0.89033,0.10007c0.57195,0.10863 0.82943,0.71875 1.10199,1.30483l2.42765,0.98569c0.94763,0.35944 1.61898,1.27812 1.61342,2.35122c-0.00062,0.1204 -0.00975,0.23876 -0.02681,0.35454c0.10815,0.43128 0.0898,0.95282 -0.162,1.57299c-0.24789,0.61052 -0.59137,0.9948 -0.96281,1.22966c0.66491,0.25594 1.94941,0.99788 1.572,2.83536c-0.23401,1.1393 -0.8892,1.63969 -1.52301,1.84906c0.02293,0.15585 0.04077,0.31452 0.05319,0.47583c0.02733,0.35475 -0.10453,0.65704 -0.33168,0.92778c0.09164,0.16073 0.16596,0.33258 0.22042,0.513l0.9513,2.90401c1.76971,4.70917 1.30201,10.48613 -0.61668,15.47118c0.0358,0.01322 0.07194,0.02722 0.10842,0.04203c2.31634,0.94051 1.37585,3.25685 1.37585,3.25685c-0.37823,0.93151 -2.13006,5.37705 -2.58367,5.82597c-0.87257,0.86357 -2.23153,1.02406 -3.3473,1.53608l-2.4524,0.96623c-0.30189,0.12709 -0.63389,0.19658 -0.98214,0.19477c-1.38069,-0.00716 -2.49416,-1.13224 -2.487,-2.51293c0.003,-0.57785 0.2018,-1.10889 0.53322,-1.53057c-0.35575,-0.29032 -0.72225,-0.64938 -1.09978,-1.08566c-0.66874,-0.77278 -0.46993,-1.88529 -0.18569,-2.98894c-0.19395,-0.07598 -0.39544,-0.18137 -0.60377,-0.32182c-2.07291,-1.39752 -0.67539,-3.47043 -0.67539,-3.47043l0.76432,-1.03778c0.34989,-0.86176 0.69327,-1.72412 1.03455,-2.58553c-1.20187,-0.89232 -2.12208,-1.80178 -2.16116,-2.63835c-0.10213,-2.18646 2.854,-3.11838 4.5892,-4.68871c-0.02471,-1.1433 -0.0719,-2.28724 -0.06017,-3.39512c-0.1303,-0.65351 -0.23307,-1.2729 -0.31049,-1.85923c-0.10214,-0.15367 -0.16567,-0.24302 -0.16565,-0.24317c0.01816,-0.09682 0.0532,-0.18909 0.10257,-0.27727z" fill="#754a00" stroke="none" stroke-width="0.5" stroke-linecap="butt"/><path d="M266.41657,171.43032l-17.1343,-38.42271" fill="none" stroke="#503300" stroke-width="5" stroke-linecap="round"/><path d="M246.42256,226.99241l18.93962,-37.56567" fill="none" stroke="#503300" stroke-width="5" stroke-linecap="round"/><path d="M212.32374,225.15592l22.47837,-35.56138" fill="none" stroke="#503300" stroke-width="5" stroke-linecap="round"/><path d="M217.60913,134.1767l17.13431,38.42272" fill="none" stroke="#503300" stroke-width="5" stroke-linecap="round"/><path d="M202.60304,188.78699l-22.54655,35.51819" fill="none" stroke="#503300" stroke-width="5" stroke-linecap="round"/><path d="M185.69892,135.34926l17.13431,38.42272" fill="none" stroke="#503300" stroke-width="5" stroke-linecap="round"/><path d="M152.74351,135.83076l17.13431,38.42272" fill="none" stroke="#503300" stroke-width="5" stroke-linecap="round"/><path d="M170.09948,190.17219l-22.54655,35.51819" fill="none" stroke="#503300" stroke-width="5" stroke-linecap="round"/></g></g></svg>