<svg version="1.1" xmlns="http://www.w3.org/2000/svg" xmlns:xlink="http://www.w3.org/1999/xlink" width="248.70594" height="109.531" viewBox="0,0,248.70594,109.531"><g transform="translate(-101.25134,-116.05514)"><g stroke-miterlimit="10"><g stroke-linecap="butt"><path d="M123.50134,215.5v-71h164.15831c3.60964,0.8301 7.16841,1.82033 10.44684,3.48315c1.59061,0.80676 3.04722,1.908 4.50808,3.00957c2.00496,3.25472 5.72315,4.49411 5.72315,4.49411c0.72475,0.24158 1.44574,0.48602 2.16361,0.73261v59.28055h-70.53201c-1.5364,-0.8709 -3.13242,-1.23616 -4.20092,-1.38934c-0.04444,-4.66945 -1.28952,-9.27391 -4.19733,-12.18172c-2.18793,-2.18793 -5.44679,-3.13738 -8.46925,-3.79981c-6.15816,-1.34966 -9.18553,0.76738 -13.94171,4.13746c-1.03735,0.73504 -1.83218,1.76335 -2.73118,2.66235c-0.4273,0.4273 -1.25881,1.42959 -1.71178,2.05929c-0.59025,-0.3627 -3.59288,-0.06159 -4.81897,0.1409c-1.56739,0.25886 -3.04031,0.9227 -4.56046,1.38404c0,0 -5.56578,1.85527 -6.75004,6.98684z" fill="#8e8e8e" stroke="#000000" stroke-width="5"/><path d="M332.50001,174c0.25726,6.61627 5.0763,9.42907 9.453,12.3205c1.38107,0.9124 2.81722,1.6857 4.29536,2.32972l-6.74836,10.34977c0,0 0,0.23515 0.03606,0.63334l-27.18342,15.04608l-0.58321,-57.89203c1.50118,0.64443 3.06986,1.1312 4.66223,1.52429c2.62453,0.94191 5.22957,1.88644 7.84702,2.79721c3.35635,2.512 5.22646,7.49793 8.84943,9.95933c-0.42005,0.9326 -0.66806,1.90421 -0.62811,2.93178z" fill="#8e8e8e" stroke="#000000" stroke-width="5"/><path d="" fill="#8e8e8e" stroke="#000000" stroke-width="5"/><path d="M302.5831,209.62719c0.18251,-2.0131 1.71058,-2.41235 2.50752,-2.48258c-0.00267,-0.25592 0.00903,-0.51929 0.03605,-0.78988c0.02848,-0.28518 0.21095,-0.68726 0.50455,-1.15163c-0.0507,-0.06789 -0.10076,-0.13801 -0.15022,-0.21032c-0.03907,0.02166 -0.07685,0.04252 -0.11333,0.06257l-2.92021,1.64606c-0.40856,0.24053 -0.88474,0.37849 -1.39315,0.37849c-1.51878,0 -2.75,-1.23121 -2.75,-2.75c0,-0.69365 0.25681,-1.32731 0.68055,-1.8111l2.44769,-2.82644l0.13653,0.11822c0.19101,-0.26122 0.40174,-0.50844 0.63684,-0.73834c0.29384,-0.28734 0.64587,-0.45868 1.03327,-0.56023c-0.45984,-2.43929 -0.73744,-5.20802 -0.847,-7.97705c-0.21395,-0.2701 -0.4124,-0.56885 -0.59363,-0.89815c-0.70475,-1.2806 -0.46199,-2.65545 0.30585,-4.05494c-3.06289,-4.08512 -2.43987,-11.57347 0.70343,-16.40111c-0.17892,-1.62532 -0.31577,-3.16666 -0.39783,-4.58677l-0.32825,-0.69835c-0.18295,-0.36817 -0.28582,-0.78315 -0.28582,-1.22216c0,-0.6107 0.19907,-1.17491 0.53585,-1.63127c0.0542,-2.23342 0.35098,-3.89969 0.9792,-4.73847c0.76271,-1.01836 1.47774,-1.79138 2.14594,-2.3502c1.51943,1.0795 2.88082,1.53329 2.88082,1.53329c0.93918,0.31306 1.87207,0.63092 2.80001,0.95204c0.13398,0.10401 0.27767,0.19373 0.43528,0.26312c1.25132,0.55095 2.55126,0.98953 3.87415,1.35322l-0.26399,1.05596c-0.11052,0.48704 -0.35032,0.92499 -0.68142,1.27585c0.00792,0.00194 0.01586,0.0039 0.02382,0.0059c2.66746,0.66868 1.99879,3.33614 1.99879,3.33614c-0.12428,0.49302 -0.26308,1.29829 -0.42784,2.32267c0.0505,0.18933 0.09943,0.37955 0.14675,0.57039c4.53626,3.09674 5.37778,9.0029 4.46339,14.82307c0.68606,-0.11534 1.32261,-0.10157 1.8883,0.08757c0.62424,-0.16804 1.25876,-0.33974 1.90169,-0.5231l0.30929,0.08281l-0.00695,-0.11756l2.57925,-0.15251c0.06164,-0.00413 0.12383,-0.00623 0.18651,-0.00623c1.51878,0 2.75,1.23121 2.75,2.75c0,0.8204 -0.35925,1.5569 -0.92902,2.06076l-2.29516,2.04799c-0.87494,1.36205 -1.8635,2.66956 -3.38179,4.29583c-0.42031,0.45021 -0.84546,0.91152 -1.29549,1.34208c1.01545,0.00356 2.12222,0.25526 3.39319,0.88185c5.92998,2.92348 3.73362,6.11414 -0.09442,8.84417c-1.00455,0.71642 -2.38052,0.65859 -3.59071,0.89903c-1.80491,0.3586 -3.64012,0.56601 -5.47776,0.73856c0.89079,1.02994 0.52563,2.49055 0.52563,2.49055c-0.41364,1.26091 -0.32742,2.82015 -1.24091,3.78271c-1.96708,2.07274 -4.90981,2.4613 -7.23275,1.50931c-0.47212,0.07274 -0.97666,0.15283 -1.51789,0.26111l-2.10415,-0.10584c0,0 -2.73876,-0.2483 -2.49046,-2.98707z" fill="#8e8e8e" stroke="none" stroke-width="0.5"/><path d="M103.75134,201.5v-19.22396c0.07049,0.01699 0.15479,0.01197 0.25518,-0.01873c0.88565,-0.27085 0.96665,-1.36618 1.1132,-2.42894c0.91482,0.09014 1.80052,0.02624 2.62566,-0.36964c4.23729,-2.03296 6.70873,-6.82605 8.73779,-11.06521c0.74651,-1.55963 2.05965,-2.84922 2.58777,-4.49568c0.47743,-1.48844 0.22201,-3.11847 0.35416,-4.67601c0.00629,-0.07417 0.01274,-0.14812 0.01933,-0.22183h3.80692v42.5z" fill="#4b4b4b" stroke="#000000" stroke-width="5"/></g><g><path d="M144.4097,190.09032v-29.75699h29.75699v29.75699z" fill="#6b6b6b" stroke="#000000" stroke-width="2.5" stroke-linecap="butt"/><path d="M155.31076,206v-25.33763h8.24946v25.33763z" fill="#6b6b6b" stroke="#000000" stroke-width="2.5" stroke-linecap="butt"/><path d="M151.48066,188.91183v-11.49032h19.15054v11.49032z" fill="#6b6b6b" stroke="none" stroke-width="0" stroke-linecap="butt"/><path d="M149.12366,190.67957l5.30323,7.36559" fill="none" stroke="#000000" stroke-width="2.5" stroke-linecap="round"/><path d="M169.4527,190.9742l-5.59785,7.66021" fill="none" stroke="#000000" stroke-width="2.5" stroke-linecap="round"/></g><g><path d="M274.4097,190.09033v-29.75699h29.75698v29.75699z" fill="#6b6b6b" stroke="#000000" stroke-width="2.5" stroke-linecap="butt"/><path d="M285.31075,206v-25.33764h8.24946v25.33764z" fill="#6b6b6b" stroke="#000000" stroke-width="2.5" stroke-linecap="butt"/><path d="M281.48064,188.91183v-11.49032h19.15054v11.49032z" fill="#6b6b6b" stroke="none" stroke-width="0" stroke-linecap="butt"/><path d="M279.12368,190.67957l5.30322,7.36559" fill="none" stroke="#000000" stroke-width="2.5" stroke-linecap="round"/><path d="M293.85486,198.63441l5.59785,-7.66021" fill="none" stroke="#000000" stroke-width="2.5" stroke-linecap="round"/></g><g><path d="M206.4097,190.95171v-33.75699h33.75699v33.75699z" fill="#525252" stroke="#000000" stroke-width="2.5" stroke-linecap="butt"/><path d="M218.77611,180.25642h9.35838v19.40588c-1.60104,-0.70846 -3.35335,-1.16512 -5.03267,-1.53317c-1.63154,-0.35758 -3.04332,-0.47182 -4.32572,-0.38389z" fill="#525252" stroke="#000000" stroke-width="2.5" stroke-linecap="butt"/><path d="M214.43117,189.61479v-13.03487h21.7248v13.03487z" fill="#525252" stroke="none" stroke-width="0" stroke-linecap="butt"/><path d="M211.75735,191.62016l4.70086,6.52898" fill="none" stroke="#000000" stroke-width="2.5" stroke-linecap="round"/><path d="M234.81904,191.9544l-5.90476,8.08021" fill="none" stroke="#000000" stroke-width="2.5" stroke-linecap="round"/></g><path d="M142.84926,219.60774v-3.40712h32.36762v3.40712z" fill="#393939" stroke="#000000" stroke-width="2" stroke-linecap="butt"/><path d="" fill="#393939" stroke="#000000" stroke-width="2" stroke-linecap="butt"/><path d="M274.22783,218.9605v-3.40712h32.36762v3.40712z" fill="#393939" stroke="#000000" stroke-width="2" stroke-linecap="butt"/><path d="M281.37215,155.23048c0,-2.23297 0.99723,-3.46871 2.10098,-4.15257c-0.10518,-0.40375 -0.16116,-0.82737 -0.16116,-1.26406c0,-0.20338 0.01214,-0.40393 0.03574,-0.60095c-0.04815,-0.02026 -0.09588,-0.04059 -0.14315,-0.06099c-1.37665,1.34254 -3.3533,1.84003 -5.47971,1.93613c-0.3214,0.90067 -0.76352,1.93083 -1.34495,3.10665c-1.42757,2.88695 -5.66424,3.35587 -8.83778,3.90459c-4.8649,0.84116 -13.55341,-2.8094 -15.14016,-7.74748c-0.85376,-2.65694 1.33843,-5.61869 3.1144,-7.7714c2.20497,-2.67271 5.72468,-3.92489 8.37561,-6.156c0.70688,-0.59493 1.32368,-1.2813 1.8731,-2.02857c-0.06897,-0.33094 -0.10522,-0.67389 -0.10522,-1.02531c0,-1.42818 0.59879,-2.71651 1.55901,-3.62763c0.21093,-1.08 0.48289,-2.12369 1.16031,-2.95485c0.10394,-0.12753 0.2097,-0.25327 0.31717,-0.37732l-0.10839,-0.05852l2.66701,-4.93955c0.82988,-1.61209 2.51035,-2.71467 4.44834,-2.71467c2.76142,0 5,2.23858 5,5c0,0.51824 -0.07884,1.01807 -0.22519,1.48814l-0.65492,2.28597c1.78298,-0.48465 3.76987,-0.86875 5.41393,-0.13019c2.20865,0.99219 4.0566,3.34258 5.14307,6.05892c0.78059,0.01486 1.68348,0.18891 2.50394,0.73541c0.89009,-0.81738 2.07726,-1.31635 3.38098,-1.31635c0.72607,0 1.41599,0.15476 2.03858,0.43309l3.58559,1.50561c0.25323,-1.5757 0.5778,-3.14053 0.95954,-4.68676l-0.00003,0.00001l0.74724,-3.16714c0.4821,-2.25768 2.48819,-3.9508 4.88974,-3.9508c2.37844,0 4.369,1.6607 4.8754,3.8858l0.75044,2.99363l-0.22152,0.05553c0.0688,0.12083 0.13483,0.24225 0.19799,0.3645c1.09006,-1.48954 2.05553,-3.06384 2.69299,-4.776l1.11284,-3.14444c0.65492,-1.99828 2.53508,-3.4415 4.75233,-3.4415c2.76142,0 5,2.23858 5,5c0,0.3504 -0.03604,0.69239 -0.10463,1.02245l-1.14535,6.09186l-0.34534,-0.06493c0.00252,0.34025 -0.00532,0.68092 -0.02493,1.02208c0.44443,-0.17202 0.90935,-0.35889 1.39605,-0.56666l2.68518,-1.42819c0.71985,-0.40149 1.54919,-0.63026 2.43195,-0.63026c2.76142,0 5,2.23858 5,5c0,0.29754 -0.02599,0.58901 -0.07582,0.87227l-0.56763,3.58519l-0.44514,-0.07048c-0.03575,0.7125 -0.14571,1.41591 -0.36284,2.10619c-0.1525,0.48482 -0.43012,0.88217 -0.7886,1.22124c2.99855,2.85574 6.82681,9.27685 3.13318,13.33773c-2.01248,2.21257 -5.69418,3.2425 -9.26439,3.29459c-0.27486,2.50156 -2.39508,4.44774 -4.96985,4.44774c-0.69489,0 -1.35666,-0.14175 -1.95799,-0.39792l-1.5949,-0.63622c0.01161,0.85269 0.01502,1.70537 0.01586,2.55712l-0.07777,0.13498l0.07197,0.00401l-0.19214,3.44921c-0.12784,2.64754 -2.31488,4.75481 -4.99409,4.75481c-2.43149,0 -4.45761,-1.73561 -4.90706,-4.03552l-0.13272,-0.61216c-0.59746,0.25228 -1.25417,0.39176 -1.94347,0.39176c-2.76142,0 -5,-2.23858 -5,-5c0,-0.03 0.00026,-0.05994 0.00079,-0.08982l-1.57785,0.62942c-0.60133,0.25617 -1.26312,0.39793 -1.95801,0.39793c-2.76142,0 -5,-2.23858 -5,-5c0,-0.90582 0.24088,-1.75539 0.66207,-2.48813c-0.29748,-0.30196 -0.55685,-0.64157 -0.77032,-1.01102c-0.83211,-0.04459 -1.62562,-0.14454 -2.36137,-0.31427c-0.75242,0.94099 -1.44949,1.77529 -1.98744,2.45837l-4.12147,1.9057c0,0 -5,0 -5,-5z" fill="#ff0000" stroke="none" stroke-width="0.5" stroke-linecap="butt"/><path d="M185.69907,220.15089c-1.20957,4.85149 -6.06106,3.64192 -6.06106,3.64192l-3.83554,-0.95649c-0.58238,-0.14454 -1.16476,-0.28908 -1.74714,-0.43362c-6.71964,4.05131 -17.41749,3.32542 -20.57243,-2.48109c-0.82943,0.97064 -2.17401,1.74961 -4.33454,1.46075c-1.34118,-0.17931 -2.27088,-0.67305 -2.91359,-1.2979c-0.8017,1.11547 -2.07881,1.95891 -4.0066,2.31974c-1.24535,0.23309 -3.00977,-0.1114 -4.74898,-0.87847c-2.25093,1.8044 -4.94111,3.00694 -8.32386,3.49897c-4.47094,0.65031 -11.71461,2.14732 -12.64168,-5.59781c-0.13251,-1.10705 3.00584,-6.16167 5.63037,-9.97285c-0.91118,-0.68462 -1.60078,-1.47781 -1.69105,-2.56461c-0.03993,-0.48071 0.24085,-1.41414 0.75843,-2.50048c-0.29139,-0.63449 -0.45386,-1.34047 -0.45386,-2.0844c0,-2.76142 2.23858,-5 5,-5c0.28872,0 0.57173,0.02447 0.84706,0.07145l4.95466,0.76018l-0.03126,0.20378c0.18236,-0.03219 0.36472,-0.06437 0.54708,-0.09656l0.40878,0.40538l0.09288,-0.24448l2.45173,0.93145c0.423,-0.63008 0.87505,-1.20879 1.56159,-1.44024h0.00002c3.43224,-1.15706 11.56275,-1.78548 13.95183,2.80171c0.38006,0.72974 0.69607,1.5309 0.92775,2.36519c1.10207,-1.26084 1.91525,-2.74993 2.86743,-4.1292l0.97588,-2.10864c0.77107,-1.76704 2.53374,-3.00213 4.58489,-3.00213c2.24778,0 4.14913,1.48325 4.77869,3.52439l1.20632,3.6091c0.88728,0.52707 1.71519,1.16975 2.46867,1.89052c3.3258,-0.53648 6.71858,0.10946 8.89448,2.60224c0.16925,-0.29644 0.34138,-0.58334 0.53754,-0.79062l1.47966,1.16073c0.01527,-0.00441 0.03057,-0.00875 0.0459,-0.01302l0.3064,-0.86025l2.60608,0.92821c1.99336,0.65776 3.43202,2.53547 3.43202,4.74921c0,1.69612 -0.84454,3.195 -2.13605,4.09903c1.31698,0.77835 2.93957,2.38841 2.1815,5.42893zM130.63078,214.37212c0.10704,-0.06356 0.21011,-0.12689 0.30947,-0.19008c-0.04805,-0.03546 -0.09526,-0.0717 -0.14155,-0.10878c-0.05713,0.0988 -0.11301,0.1985 -0.16792,0.29886z" fill="#ff0000" stroke="none" stroke-width="0.5" stroke-linecap="butt"/><path d="M246.31771,216.15143c-0.95524,0.88317 -2.0345,1.64773 -3.25768,2.25663c-1.95749,-3.11738 -5.42742,-4.03015 -7.29161,-4.29741c-0.01868,-1.96218 -0.24936,-3.91288 -0.72635,-5.73104c0.53202,0.24934 1.06787,0.59412 1.60252,0.85638c1.20828,-2.30446 3.34461,-2.5413 4.69186,-2.42485c1.27234,-2.33766 1.78712,-5.51982 2.1654,-7.46158l0.13505,-0.16515l-0.08362,-0.02446l1.32657,-4.53588c0.57108,-2.13286 2.51725,-3.70343 4.83025,-3.70343c2.72648,0 4.94326,2.18228 4.99893,4.89542l0.08675,3.63332c0.7147,1.45331 1.22815,2.82489 1.26227,3.97878c2.60079,-0.27163 4.54468,0.43534 5.93318,1.54976c0.6763,0.2416 1.31786,0.55577 1.89632,0.9343c0.94095,0.61573 1.69295,1.1567 2.28314,1.63129c1.74176,-1.32602 3.50601,-2.62493 3.79055,-2.6655c0.13939,-0.01987 0.27823,-0.03697 0.41648,-0.05138c1.88789,-1.1176 3.92984,-1.74558 5.76664,-1.21499c0.3679,0.10627 0.67567,0.32552 0.92712,0.62019c2.01037,-1.05393 4.91035,-1.73498 6.64038,-1.5532c1.31651,0.13832 1.84774,1.64803 2.36515,3.07703c0.13421,-0.03136 0.26662,-0.05978 0.39726,-0.08535c2.58994,-1.76455 8.42952,-3.15448 9.71124,-3.55682c0.52541,0.5988 1.05081,1.1976 1.57622,1.7964c3.65943,-1.70601 12.20599,-2.22764 13.1089,-1.44387c0.17144,0.14882 0.33782,0.29485 0.49925,0.43815c0.94149,-0.28804 2.14986,-0.53004 3.7265,-0.7495c2.66514,-0.37097 4.37753,-0.02441 5.29771,0.61583c4.24554,-5.51252 10.89582,-12.08759 17.27289,-8.18683c1.4309,0.87526 2.24176,2.0062 2.56567,3.2927l-0.73264,1.12363c0,0 0,1.26172 0.44817,2.88882c-2.133,6.59159 -11.29547,14.35856 -16.00816,14.6683c-0.66502,0.04371 -7.15346,0.45605 -8.81275,-1.54511c-0.19806,0.14984 -0.40112,0.29568 -0.60852,0.43678c-0.76789,0.83414 -1.80251,1.29811 -2.95433,1.53282c-1.81263,0.6592 -3.70297,0.82884 -5.34397,0.15536c-0.17818,-0.07313 -0.3521,-0.14585 -0.52182,-0.21816c-0.69341,-0.08403 -1.3409,-0.16871 -1.90888,-0.22236c-1.96649,-0.18576 -4.97665,6.94332 -10.24989,5.98726c-2.8009,-0.50782 -4.4476,-2.331 -5.27497,-4.10842c-1.34137,1.62388 -3.84791,3.07417 -5.61786,3.63665c-3.6297,1.15349 -10.50891,-0.34808 -10.66279,-5.03942c-2.87278,2.01101 -6.82969,3.90479 -8.32183,3.853c-2.48801,-0.08635 -5.22099,-1.64604 -7.04277,-3.42781c-0.04854,0.03175 -0.09718,0.06328 -0.14588,0.09456c-2.01708,1.29566 -4.32206,3.49333 -6.62016,2.81063c-1.80888,-0.53737 -2.68862,-2.48917 -3.5359,-4.35151z" fill="#ff0000" stroke="none" stroke-width="0.5" stroke-linecap="butt"/><path d="M194.54542,124.35809c2.26484,-2.41983 4.38388,-4.84926 5.64188,-5.16657c4.98055,-1.25629 7.74377,4.96859 10.17039,7.51139c0.5292,0.55454 5.04777,-3.55118 9.20393,-2.30181c3.08785,0.92823 6.29338,4.93216 8.14796,7.37351c0.15839,0.2085 0.03485,0.86644 0.26403,0.73981c0.33718,-0.1863 0.67953,-0.36251 1.02638,-0.52958l-0.47549,-0.65016l2.86566,-2.09578c0.8349,-0.62569 1.87196,-0.99633 2.99559,-0.99633c2.76142,0 5,2.23858 5,5c0,0.72296 -0.15344,1.41009 -0.42953,2.03058l-0.92682,2.21835l-0.39453,-0.16483l0.01715,0.89343c-2.29378,2.43615 -3.47078,4.26042 -5.11896,5.27475c-1.65198,5.61999 -8.02816,10.84155 -14.28072,10.54481c-1.72973,-0.08209 -2.76689,-2.27568 -4.45091,-2.6791c-3.38016,0.16635 -5.6032,2.92548 -9.36591,2.47817c-1.23021,-0.14625 -2.19911,-1.14268 -3.21664,-1.95876c-3.17852,0.01432 -6.35715,-0.34062 -9.21197,-1.18164c-3.09272,-0.03395 -5.94407,-0.2431 -9.32109,-1.45333c-2.27614,-0.8157 -7.75251,2.6754 -9.88559,3.04219c-2.54449,0.43754 -5.10658,-0.76834 -7.6672,-1.09867c-4.27702,-0.55174 -7.20874,6.01892 -11.43881,6.53142c-4.47916,0.54267 -6.06103,-1.06276 -6.52462,-2.08566c-1.59649,1.26809 -2.90441,3.07261 -4.82927,3.73029c-2.20649,0.75391 -4.68732,0.62645 -6.99032,0.2615c-0.52858,-0.08376 -0.14784,-1.67423 -0.64299,-1.47115c-3.47422,1.42493 -6.8044,5.34332 -10.41191,4.30093c-2.74823,-0.7941 -3.82066,-4.03005 -4.44814,-7.04145c0.48382,-4.04769 0.71309,-7.25258 -2.15477,-9.72282c0.96468,-2.04939 3.26595,-6.76289 3.60196,-7.31339c6.90545,-11.31377 14.3098,-9.30862 23.3464,-8.22703l0.17259,-4.99179c0.0802,-2.69124 2.28707,-4.8483 4.99774,-4.8483c0.62411,0 1.22151,0.11435 1.77239,0.32323c0.80093,-0.80182 1.93043,-1.32285 2.81819,-2.05047l0.26079,-0.0629l-0.05446,-0.08191l2.2705,-1.50955c0.80384,-0.55158 1.77699,-0.87433 2.82552,-0.87433c2.76142,0 5,2.23858 5,5c0,0.09683 -0.00275,0.19301 -0.00818,0.28848l-0.19206,3.8309l-0.86004,-0.04312c0.14802,1.70553 0.22267,3.38226 0.2821,5.07293c1.25609,0.29538 2.58683,0.79819 4.06714,1.60528c2.35883,0.63867 3.2923,-3.8725 5.56355,-4.7744c1.05709,-0.41976 2.2132,-0.58756 3.40383,-0.58728c3.16402,-5.18878 6.31481,-9.73867 7.51296,-9.77106c2.11085,-0.05707 6.36666,3.95703 10.07226,7.68119zM137.18481,138.05243c-0.8737,0.10599 -1.67329,0.35609 -2.36488,0.80396c0.7639,-0.27151 1.54303,-0.54255 2.36488,-0.80396zM200.44033,130.02342c-0.02824,-0.0238 -0.05053,-0.02848 -0.06791,-0.01661c0.02263,0.00561 0.04526,0.01114 0.06791,0.01661z" fill="#ff0000" stroke="none" stroke-width="0.5" stroke-linecap="butt"/><path d="M229.21782,148.63697c-1.81409,0.41978 -2.93585,-0.26965 -3.60555,-1.07025c-1.20959,2.38814 -2.7162,4.66278 -6.86993,3.06626c-1.92626,-0.74038 -3.00632,-3.08328 -3.50752,-5.11496c-2.40876,1.05918 -5.05637,2.02984 -7.58443,1.53425c-0.68203,-0.1337 -0.63732,-0.91056 -0.49712,-1.77575c-2.68007,0.90879 -5.9213,2.39837 -8.2569,0.91295c-0.09499,-0.06042 -0.27504,-0.48836 -0.46268,-1.13266l-0.65929,0.46024c-0.61515,0.44159 -1.36944,0.7016 -2.18446,0.7016c-1.3015,0 -2.44815,-0.66303 -3.12059,-1.66975c-2.86358,1.57119 -5.5162,4.09862 -8.73678,4.11392c-1.01199,0.00481 -0.91281,-1.336 -0.84447,-2.65976c-1.6269,0.09796 -3.56607,0.33365 -5.17091,-0.00038c-2.72143,2.215 -6.26885,4.36176 -9.20501,2.21327c-0.35051,-0.25648 -0.61234,-0.58823 -0.80106,-0.97124c-3.28053,1.82462 -6.94104,3.5637 -8.66839,3.14274c-10.51737,-2.56313 -9.50492,-4.2889 -6.52965,-5.30503c-0.50567,-0.21794 -0.97278,-0.48796 -1.37693,-0.82405l-1.69568,1.55014c-0.66795,0.61496 -1.55975,0.99051 -2.53927,0.99051c-0.83532,0 -1.60685,-0.27312 -2.23016,-0.73492c-0.07005,0.07096 -0.14043,0.1416 -0.21114,0.21191l0.08792,0.06742l-4.53899,5.91944c-0.68414,0.91105 -1.77353,1.50038 -3.00056,1.50038c-0.40668,0 -0.79824,-0.06474 -1.16494,-0.18447c-3.16301,-0.03286 -3.53189,-3.34375 -3.53189,-3.34375c-0.0308,-0.28846 -0.05797,-0.57735 -0.08169,-0.86658c-0.56783,-0.65722 -0.91126,-1.51371 -0.91126,-2.45042c0,-0.2447 0.02344,-0.48393 0.06819,-0.71556l0.72681,-4.16773l0.17987,-3.04954c0.10135,-1.98053 1.7393,-3.5552 3.74503,-3.5552c2.07107,0 3.75,1.67893 3.75,3.75v0.98488c0.42669,-0.40385 0.88903,-0.78676 1.26567,-1.22001l0.40903,-0.16288l-0.08008,-0.10898l3.6531,-2.68444c0.62727,-0.47216 1.40748,-0.75203 2.25306,-0.75203c0.8204,0 1.57927,0.26345 2.19663,0.71037c0.26943,-0.58513 0.6083,-1.12868 1.03277,-1.60072h0.00001v0l1.73484,-1.92235c0.68664,-0.76705 1.68441,-1.24976 2.79492,-1.24976c2.00941,0 3.64969,1.58046 3.74557,3.56611l0.13136,2.35808c0.95458,-0.32697 1.91282,-0.41708 2.73424,0.02932c1.29892,0.7059 2.01148,2.14996 2.44379,3.68658c1.34746,-1.28317 3.34796,-2.10599 4.56495,-2.81455l1.99055,-1.44374c0.62426,-0.46426 1.39785,-0.73897 2.2356,-0.73897c1.31809,0 2.47735,0.68004 3.14606,1.70841c0.03377,-0.02759 0.06726,-0.05541 0.10046,-0.08347l0.02427,-0.00702l-0.00623,-0.00769l3.08173,-2.49708c0.64785,-0.53369 1.47788,-0.8542 2.38278,-0.8542c1.8419,0 3.37365,1.32794 3.69007,3.07865c0.04778,0.01812 0.09516,0.03794 0.14211,0.05954c1.39207,0.64026 -0.47995,4.29929 1.04195,4.47709c1.64727,0.19245 1.73351,-2.87702 2.94327,-4.0115c0.638,-0.59829 1.7625,-0.43881 2.41885,-1.01691c0.90753,-0.79936 1.44496,-1.93595 2.137,-2.93166l0.63263,-2.83905c0.3449,-1.71496 1.85977,-3.00659 3.67632,-3.00659c2.01968,0 3.66644,1.59664 3.74692,3.59657c0.45684,-0.19809 0.96085,-0.3079 1.49051,-0.3079c1.99687,0 3.6292,1.56079 3.74359,3.52898l0.15629,2.33796c1.1909,-0.39274 2.40448,-0.57365 3.52842,-0.18193c1.18553,0.41319 -0.56421,3.05416 0.49109,3.73426c0.80573,0.51925 0.77382,-1.98728 1.66259,-2.34631c2.53741,-1.02503 5.70593,-2.98135 8.05644,-1.57985c1.41793,0.84545 1.51944,2.72172 1.4516,4.6029c1.9156,-0.87902 4.94641,-1.60367 6.52648,-2.29256l2.86626,5.16057c0,0 0.84541,3.65346 -2.80805,4.49887z" fill="#ff7b00" stroke="none" stroke-width="0.5" stroke-linecap="butt"/><path d="M307.94991,154.55839c-4.5654,2.10807 -10.30288,2.37394 -13.74948,-1.05454c-1.09122,0.50158 -2.18461,0.81462 -3.28534,0.48667c-0.9407,-0.28027 -1.74793,-0.55546 -2.43579,-0.82496c-1.90804,1.01302 -3.95783,1.37613 -5.73842,-0.13495c-0.37378,-0.31721 -0.71032,-0.61994 -1.01212,-0.90888c-1.90184,0.66956 -3.83029,0.97347 -5.53003,0.17851c-0.17342,0.17053 -0.36334,0.32433 -0.56717,0.45876c-0.4392,1.58319 -1.89083,2.74529 -3.61389,2.74529c-2.07107,0 -3.75,-1.67893 -3.75,-3.75c0,-0.31935 0.03992,-0.62938 0.11504,-0.92537l0.30734,-1.32818c-0.06177,-0.65263 0.02861,-1.13938 0.02861,-1.13938l0.95778,-5.158c0.25026,-1.50558 1.39745,-2.70795 2.87395,-3.03948l0.56717,-0.86392c0.66517,-1.04713 1.83527,-1.74201 3.16766,-1.74201c0.72315,0 1.39849,0.20469 1.97124,0.55929c0.66227,-0.58864 1.53452,-0.9462 2.49028,-0.9462c1.52559,0 2.8384,0.911 3.42411,2.21868c0.64965,-0.53988 1.48454,-0.86452 2.39526,-0.86452c1.68199,0 3.10535,1.10737 3.58077,2.63283c0.68732,-0.78381 1.69614,-1.27867 2.82053,-1.27867c1.56468,0 2.90554,0.95829 3.46769,2.31997c0.37327,-0.12455 0.77265,-0.19201 1.18779,-0.19201c1.2783,0 2.40722,0.63961 3.08417,1.61625c1.25862,-2.00504 2.61152,-3.99356 4.70552,-4.85561c1.59806,-0.65788 2.88779,-0.88651 3.93268,-0.78923l0.29216,-1.55393c0.29847,-1.77247 1.84043,-3.12277 3.69778,-3.12277c1.33495,0 2.50697,0.69754 3.17147,1.74803l2.87668,4.39893l-0.20251,0.13243c0.15184,0.19499 0.29841,0.39423 0.43899,0.59827c0.28607,-0.06985 0.585,-0.10688 0.89258,-0.10688c2.07107,0 3.75,1.67893 3.75,3.75v2.53363l2.87578,-1.01222c0.41262,-0.1562 0.86,-0.24169 1.32734,-0.24169c2.07107,0 3.75,1.67893 3.75,3.75c0,1.49851 -0.87895,2.79173 -2.14943,3.39224l-3.80676,1.8982l-0.08461,-0.16968c-2.0259,2.10106 -4.19287,4.05976 -6.63219,5.77966c-1.64113,1.15711 -3.3637,3.36129 -5.30612,2.85217c-2.27033,-0.59507 -3.06489,-3.55866 -4.49358,-5.42075c-0.80036,-1.04316 -1.37362,-1.86299 -1.79296,-2.62597z" fill="#ff7b00" stroke="none" stroke-width="0.5" stroke-linecap="butt"/><path d="M177.03238,213.27167c0,3.75 -3.75,3.75 -3.75,3.75h-0.58194c-1.11263,-0.02996 -2.25872,0.18261 -3.33788,-0.08989c-1.3828,-0.34917 -2.62451,-1.11986 -3.90885,-1.73999c-0.39496,-0.19071 -0.68498,-0.73483 -1.12114,-0.68871c-0.58488,0.06185 -0.92673,0.75884 -1.47809,0.96357c-2.52181,0.9364 -10.59646,1.70866 -11.32237,1.6991c-0.68287,-0.00899 -1.03922,-1.14737 -1.7212,-1.11133c-1.04592,0.05528 -1.81224,1.57201 -2.8363,1.35222c-1.44372,-0.30986 -2.85839,-0.97616 -4.05452,-1.89046c-1.86746,0.80404 -5.05494,0.91273 -6.96457,0.81995c-0.45112,0.19225 -0.94762,0.29864 -1.46896,0.29864c-1.48583,0 -2.76982,-0.86413 -3.37684,-2.11725c-0.219,0.2414 -0.4391,0.48178 -0.66036,0.72108c0,0 -2.54729,2.75206 -5.29935,0.20477c-2.75206,-2.54729 -0.20477,-5.29935 -0.20477,-5.29935c1.62647,-1.75523 3.1837,-3.57547 4.69426,-5.43139l2.50152,-3.07042c0.68725,-0.85728 1.74326,-1.40619 2.92747,-1.40619c0.49183,0 0.96155,0.09468 1.39192,0.26682c0.23981,-0.04812 0.48788,-0.07337 0.74185,-0.07337c2.07107,0 3.75,1.67893 3.75,3.75c0,0.04292 -0.00072,0.08567 -0.00215,0.12824l-0.10614,3.59891c1.74323,-0.80911 3.50163,-2.22782 5.28782,-1.72141c1.17897,0.33426 1.36409,1.90611 1.61903,3.2589c0.60804,-0.48152 1.31526,-0.87004 2.06006,-0.88971c1.05764,-0.02793 1.87677,1.1788 2.93431,1.21008c1.92505,0.05694 3.80335,-0.61063 5.69824,-0.95475c1.91495,-0.34777 3.60861,-1.77152 5.55468,-1.79921c3.48627,-0.0496 5.37957,2.68625 8.70229,2.51113h0.58194c0,0 3.75,0 3.75,3.75z" fill="#ff7b00" stroke="none" stroke-width="0.5" stroke-linecap="butt"/><path d="M338.42101,211.72794c-2.51874,2.77821 -5.29695,0.25946 -5.29695,0.25946l-1.91898,-1.75393c-2.00786,-1.90546 -3.91557,0.61344 -6.51921,0.39323c-1.33324,-0.11276 -2.57141,-0.80798 -3.73737,-1.46431c-0.21176,-0.1192 0.04443,-0.87875 -0.1362,-0.71619c-1.35196,1.21667 -1.95075,3.34964 -3.61227,4.08954c-2.68725,1.19668 -5.77996,1.61975 -8.71335,1.39928c-0.84449,-0.06347 -0.73905,-1.56385 -1.34521,-2.15527c-0.24802,-0.24199 0.45421,0.80516 0.18474,1.02302c-1.08493,0.8771 -2.40125,1.50169 -3.74982,1.85912c-2.29544,0.60841 -4.69281,0.72199 -7.04668,1.04674c-2.90307,1.42939 -6.10075,2.42544 -9.32018,2.65295c-1.4104,0.09967 -2.38694,-1.67795 -3.77873,-1.92707c-2.09809,-0.37553 -4.31439,1.34837 -6.35294,0.72603c-0.98568,-0.30091 -1.47477,-2.40523 -2.39934,-1.94992c-8.96161,4.41316 -27.71561,2.92618 -29.48324,-8.99813c0,0 0.28838,-3.7389 4.02727,-3.45052c3.7389,0.28838 3.45052,4.02727 3.45052,4.02727c-1.2493,-0.3397 2.13811,1.53784 2.89766,2.58628c0.16142,0.22281 0.54001,0.1059 0.80914,0.16304c3.71205,0.78808 4.61801,-0.89288 8.72019,-1.17543c1.70871,-0.11769 3.19846,2.2497 4.83412,1.74162c7.33671,-2.27897 10.56675,0.29342 17.92826,0.78529c6.86027,0.45837 5.50693,-7.43331 11.21594,-2.04167c1.90246,-1.22317 6.85777,-4.64122 8.81184,-4.53116c1.2772,0.07193 1.68659,2.15675 2.92231,2.48755c3.33421,0.89257 5.3677,-4.58695 8.62409,-5.73133c1.94476,-0.68344 3.76636,1.97794 5.82541,2.07542c0.61547,0.02914 1.09605,-0.6192 1.70479,-0.71456c1.68326,-0.26369 3.43277,-0.70582 5.09928,-0.35135c1.4221,0.30249 2.4979,1.48863 3.74685,2.23294l2.3486,2.11509c0,0 2.77821,2.51874 0.25946,5.29695z" fill="#ff7b00" stroke="none" stroke-width="0.5" stroke-linecap="butt"/><path d="M220.26832,146.44294c-2.03979,3.1467 -5.1865,1.10691 -5.1865,1.10691l-3.43745,-2.26893c-4.34433,-1.63192 -9.41933,1.24653 -13.37005,3.33323c-5.38311,0.11593 -10.54813,2.77952 -15.76969,2.82619c-2.24593,0.02007 -4.52805,-0.48494 -6.60205,-1.34698c-1.68077,-0.6986 -2.2517,-4.05723 -4.03271,-3.68166c-2.23137,0.47054 -4.16132,2.48747 -6.43566,2.32075c-3.06266,-0.22451 -5.23748,-3.20784 -7.84974,-4.82228c-0.51654,-0.31924 -0.86534,0.8637 -1.372,1.1984c-5.46043,3.60718 -14.08977,2.75878 -17.52482,8.07144c0,0 -2.19952,3.0372 -5.23673,0.83768c-3.0372,-2.19952 -0.83768,-5.23673 -0.83768,-5.23673c2.64903,-3.42797 23.04909,-13.01861 27.27017,-12.00976c2.35444,0.56272 3.30817,4.48933 5.72878,4.46336c2.25893,-0.02424 4.11074,-2.43529 6.36696,-2.32207c4.78639,0.24019 5.65686,5.43862 10.31498,5.0308c4.94786,-0.43319 8.9751,-2.73411 14.10308,-2.59044c2.89664,-1.70187 6.20646,-2.64241 9.46232,-3.47082c1.24564,-0.31694 2.46616,-0.99172 3.7485,-0.90409c1.81156,0.12378 3.48777,1.01181 5.23166,1.51771l4.32171,2.76079c0,0 3.1467,2.03979 1.10691,5.1865z" fill="#ffc500" stroke="none" stroke-width="0.5" stroke-linecap="butt"/><path d="M324.43358,151.20004c-0.41301,3.72719 -4.1402,3.31418 -4.1402,3.31418l-1.03428,-0.18254c-3.79792,0.29999 -5.18867,0.34496 -9.75864,1.27513c-5.0829,1.03457 -5.70521,2.97029 -12.23182,1.39696c-3.72894,-0.89891 -2.87777,-2.99146 -4.61018,-5.0143c-0.5748,-0.67117 -1.79099,0.23284 -2.57014,0.64972c-2.23445,1.19554 -3.43875,3.044 -6.03733,3.70297c-1.38164,0.35037 -2.84944,0.08625 -4.27416,0.12938c0,0 -3.75,0 -3.75,-3.75c0,-3.75 3.75,-3.75 3.75,-3.75c4.73765,0.26408 6.95966,-4.3828 12.10873,-4.4477c1.67512,-0.02111 3.44874,0.32513 4.88243,1.19173c1.25013,0.75565 1.87631,2.24179 2.74313,3.41756c0.18699,0.25363 0.09132,0.83452 0.40584,0.85378c3.55976,0.21798 4.64023,-1.03361 7.94195,-1.69825c5.24916,-1.05666 6.53302,-1.08883 10.80319,-1.43318l2.4573,0.20436c0,0 3.72719,0.41301 3.31418,4.1402z" fill="#ffc500" stroke="none" stroke-width="0.5" stroke-linecap="butt"/><path d="M316.1153,213.46512c0,3.75 -3.75,3.75 -3.75,3.75l-2.70246,-0.04337c-4.13366,-0.63453 -8.48498,-0.43411 -12.53092,-1.41524c-2.28979,-0.55527 -2.77928,-1.27424 -5.01876,-1.25051c-4.76874,0.05052 -9.36451,1.72573 -14.09629,2.1101c-4.03285,0.32759 -6.82863,-0.52207 -10.69482,-0.97309c-2.36994,-0.27647 -4.79679,0.31884 -7.15801,-0.02426c-3.12696,-0.45437 -4.15688,-1.70743 -6.4234,-3.50402c0,0 -2.90552,-2.37075 -0.53477,-5.27627c2.37075,-2.90552 5.27627,-0.53477 5.27627,-0.53477c3.1347,2.67428 5.75302,1.43944 9.69606,1.88835c1.93701,0.22052 3.79141,0.98787 5.73402,1.15188c6.11909,0.51664 12.22459,-2.38073 18.35761,-2.33628c2.25947,0.01637 4.43179,0.89448 6.61998,1.4578c3.76518,0.9693 8.02615,0.6974 11.91043,1.29307l1.56506,-0.04337c0,0 3.75,0 3.75,3.75z" fill="#ffc500" stroke="none" stroke-width="0.5" stroke-linecap="butt"/><path d="M163.91218,218.80352c-2.43664,2.85049 -5.28713,0.41386 -5.28713,0.41386l0.66578,-0.28401c-6.53483,-0.72823 -13.64065,-2.4757 -20.141,-1.02725c0,0 -3.6672,0.78369 -4.45088,-2.88351c-0.78369,-3.6672 2.88351,-4.45088 2.88351,-4.45088c7.43676,-1.53841 15.07325,0.08488 22.53438,0.90726l3.38148,2.0374c0,0 2.85049,2.43664 0.41386,5.28713z" fill="#ffc500" stroke="none" stroke-width="0.5" stroke-linecap="butt"/></g></g></svg>