<svg version="1.1" xmlns="http://www.w3.org/2000/svg" xmlns:xlink="http://www.w3.org/1999/xlink" width="119.19767" height="47.54229" viewBox="0,0,119.19767,47.54229"><g transform="translate(-188.12063,-214.2979)"><g stroke="#404040" stroke-width="5" stroke-miterlimit="10"><path d="M208.43154,258.84019v-25.90918h10.48705v25.90918z" fill="#404040" stroke-linecap="butt"/><path d="M231.79442,222.16466c2.56982,3.91627 -4.564,13.13919 -15.93383,20.59995c-11.36983,7.46076 -22.67015,10.33414 -25.23996,6.41786c-2.56982,-3.91627 4.564,-13.13919 15.93383,-20.59995c11.36983,-7.46076 22.67015,-10.33414 25.23996,-6.41786z" fill="#b1b1b1" stroke-linecap="butt"/><path d="M198.56137,222.44395l10.48705,11.72082" fill="none" stroke-linecap="round"/><path d="M280.93154,259.34019v-25.90919h10.48705v25.90919z" fill="#404040" stroke-linecap="butt"/><path d="M304.29441,222.66466c2.56982,3.91628 -4.564,13.13918 -15.93383,20.59995c-11.36983,7.46077 -22.67014,10.33414 -25.23996,6.41787c-2.56982,-3.91628 4.56399,-13.13918 15.93382,-20.59995c11.36983,-7.46077 22.67015,-10.33414 25.23997,-6.41786z" fill="#b1b1b1" stroke-linecap="butt"/><path d="M271.06137,222.94396l10.48705,11.72082" fill="none" stroke-linecap="round"/></g></g></svg>