<svg version="1.1" xmlns="http://www.w3.org/2000/svg" xmlns:xlink="http://www.w3.org/1999/xlink" width="219.08668" height="91.21488" viewBox="0,0,219.08668,91.21488"><g transform="translate(-130.87059,-133.74193)"><g stroke-miterlimit="10"><g stroke-linecap="butt"><path d="M310.50134,215.49999h-70.53201c-1.5364,-0.8709 -3.13242,-1.23616 -4.20092,-1.38934c-0.04444,-4.66945 -1.28952,-9.27391 -4.19733,-12.18172c-2.18793,-2.18793 -5.44679,-3.13738 -8.46925,-3.79981c-6.15816,-1.34966 -9.18553,0.76738 -13.94171,4.13746c-1.03735,0.73504 -1.83218,1.76335 -2.73118,2.66235c-0.4273,0.4273 -1.25881,1.42959 -1.71178,2.05929c-0.59025,-0.3627 -3.59288,-0.06159 -4.81897,0.1409c-1.56739,0.25886 -3.04031,0.9227 -4.56046,1.38404c0,0 -5.56578,1.85527 -6.75004,6.98684h-39.15379c-1.11677,-2.1046 -2.23572,-4.20848 -3.56022,-6.18212c-1.10971,-1.65359 -2.82144,-2.88036 -3.78192,-4.62486c-0.96015,-1.74391 -1.0759,-3.84802 -1.88459,-5.66713c-1.18497,-2.66556 -2.45752,-5.29461 -3.81376,-7.87872c8.71324,-4.04858 19.39571,-14.03803 26.44246,-19.16168c3.02987,-2.203 6.24672,-3.85346 9.43191,-5.66667l0.95259,0.11875l0.00922,-0.07395l0.11303,0.08843c1.50035,0.14048 2.99775,0.32861 4.49666,0.49233c1.47557,1.3216 3.61194,2.27832 6.70503,2.27832c3.41687,0 5.66624,-1.1675 7.14703,-2.70466c6.44041,0.02859 11.20741,0.0609 17.98188,-0.88513c8.65157,-1.34246 17.31034,-1.85485 25.91784,-3.70556c5.67861,-1.22097 12.00626,-3.33344 17.72936,-5.57335l2.10545,1.71796l0.37599,-0.46079c0.35689,0.50482 0.73196,0.99748 1.12845,1.47581c1.55587,1.87702 4.65085,1.48812 6.89352,2.44436c4.48369,1.91179 8.49397,4.99175 13.1798,6.33392c6.03688,1.72915 12.28488,2.62321 18.37648,4.14841c2.73289,0.68426 5.1596,2.29282 7.84513,3.14417c2.37431,0.75269 4.82387,1.25665 7.27609,1.74707z" fill="#8e8e8e" stroke="#000000" stroke-width="5"/><path d="M341.953,186.3205c1.38107,0.9124 2.81722,1.6857 4.29536,2.32972l-6.74836,10.34977c0,0 0,0.23515 0.03606,0.63334l-27.18342,15.04608l-0.37757,-37.47945c2.92768,0.59075 5.83841,1.22946 8.6084,2.31729c3.65814,1.43662 6.37265,3.89714 10.26342,4.81755c5.14452,1.217 6.81431,1.31001 9.71149,1.0683c0.46588,0.30797 0.93271,0.61225 1.39462,0.9174z" fill="#8e8e8e" stroke="#000000" stroke-width="5"/><path d="" fill="#8e8e8e" stroke="#000000" stroke-width="5"/><path d="M302.58309,209.62719c0.18251,-2.0131 1.71058,-2.41235 2.50752,-2.48258c-0.00267,-0.25592 0.00903,-0.51929 0.03605,-0.78988c0.02848,-0.28518 0.21095,-0.68726 0.50455,-1.15163c-0.0507,-0.06789 -0.10076,-0.13801 -0.15022,-0.21032c-0.03907,0.02166 -0.07685,0.04252 -0.11333,0.06257l-2.92021,1.64606c-0.40856,0.24053 -0.88474,0.37849 -1.39315,0.37849c-1.51878,0 -2.75,-1.23121 -2.75,-2.75c0,-0.69365 0.25681,-1.32731 0.68055,-1.8111l2.44769,-2.82644l0.13653,0.11822c0.19101,-0.26122 0.40174,-0.50844 0.63684,-0.73834c0.29384,-0.28734 0.64587,-0.45868 1.03327,-0.56023c-0.45984,-2.43929 -0.73744,-5.20802 -0.847,-7.97705c-0.21395,-0.2701 -0.4124,-0.56885 -0.59363,-0.89815c-0.70475,-1.2806 -0.46199,-2.65545 0.30585,-4.05494c-2.13238,-2.84405 -2.47823,-7.33762 -1.43088,-11.43449c0.83619,0.37824 1.68033,0.73421 2.55172,1.01045c5.68684,1.80282 11.80533,2.17868 17.35824,4.35941c0.11653,0.04576 0.2321,0.09257 0.34679,0.14033c-0.05473,0.5947 -0.12995,1.19161 -0.22359,1.78762c0.68606,-0.11534 1.32261,-0.10157 1.8883,0.08757c0.44451,-0.11966 0.89422,-0.24117 1.34848,-0.36743c2.02846,1.13729 3.9604,2.34605 6.30294,3.01295c-0.12973,0.57074 -0.437,1.074 -0.86065,1.44864l-2.29516,2.04799c-0.87494,1.36205 -1.8635,2.66956 -3.38179,4.29583c-0.42031,0.45021 -0.84546,0.91152 -1.29549,1.34208c1.01545,0.00356 2.12222,0.25526 3.39319,0.88185c5.92998,2.92348 3.73362,6.11414 -0.09442,8.84417c-1.00455,0.71642 -2.38052,0.65859 -3.59071,0.89903c-1.80491,0.3586 -3.64012,0.56601 -5.47776,0.73856c0.89079,1.02994 0.52563,2.49055 0.52563,2.49055c-0.41364,1.26091 -0.32742,2.82015 -1.24091,3.78271c-1.96708,2.07274 -4.90981,2.4613 -7.23275,1.50931c-0.47212,0.07274 -0.97666,0.15283 -1.51789,0.26111l-2.10415,-0.10584c0,0 -2.73876,-0.2483 -2.49046,-2.98707z" fill="#8e8e8e" stroke="none" stroke-width="0.5"/><path d="" fill="#4b4b4b" stroke="#000000" stroke-width="5"/></g><g><path d="M144.4097,190.09032v-3.75386c6.63872,-4.66859 13.44191,-10.72694 18.42618,-14.35097c3.02987,-2.203 6.24672,-3.85346 9.43191,-5.66667l0.95259,0.11875l0.00922,-0.07395l0.11303,0.08843c0.27478,0.02573 0.54945,0.05305 0.82406,0.08153v23.55674z" fill="#6b6b6b" stroke="#000000" stroke-width="2.5" stroke-linecap="butt"/><path d="M155.31076,206v-25.33763h8.24946v25.33763z" fill="#6b6b6b" stroke="#000000" stroke-width="2.5" stroke-linecap="butt"/><path d="M151.48066,188.91183v-7.92347c1.51308,-1.20355 2.99681,-2.40855 4.42621,-3.56685h14.72433v11.49032z" fill="#6b6b6b" stroke="none" stroke-width="0" stroke-linecap="butt"/><path d="M154.42689,198.04516l-5.30323,-7.36559" fill="none" stroke="#000000" stroke-width="2.5" stroke-linecap="round"/><path d="M169.4527,190.9742l-5.59785,7.66021" fill="none" stroke="#000000" stroke-width="2.5" stroke-linecap="round"/></g><g><path d="M274.4097,190.09033v-23.15342c0.84566,0.3585 1.70771,0.6745 2.59393,0.92834c6.03688,1.72915 12.28488,2.62321 18.37648,4.14841c2.73289,0.68426 5.1596,2.29282 7.84513,3.14417c0.31256,0.09909 0.62643,0.19386 0.94143,0.28487v14.64763z" fill="#6b6b6b" stroke="#000000" stroke-width="2.5" stroke-linecap="butt"/><path d="M285.31075,206v-25.33764h8.24946v25.33764z" fill="#6b6b6b" stroke="#000000" stroke-width="2.5" stroke-linecap="butt"/><path d="M281.48064,188.91183v-11.49032h19.15054v11.49032z" fill="#6b6b6b" stroke="none" stroke-width="0" stroke-linecap="butt"/><path d="M284.4269,198.04516l-5.30322,-7.36559" fill="none" stroke="#000000" stroke-width="2.5" stroke-linecap="round"/><path d="M299.45271,190.9742l-5.59785,7.66021" fill="none" stroke="#000000" stroke-width="2.5" stroke-linecap="round"/></g><g><path d="M206.4097,190.95171v-24.92002c1.04278,-0.1084 2.12479,-0.23978 3.26353,-0.3988c8.65157,-1.34246 17.31034,-1.85485 25.91784,-3.70556c1.48816,-0.31997 3.02088,-0.70117 4.57563,-1.12984v30.15421z" fill="#525252" stroke="#000000" stroke-width="2.5" stroke-linecap="butt"/><path d="M218.77611,180.25642h9.35838v19.40588c-1.60104,-0.70846 -3.35335,-1.16512 -5.03267,-1.53317c-1.63154,-0.35758 -3.04332,-0.47182 -4.32572,-0.38389z" fill="#525252" stroke="#000000" stroke-width="2.5" stroke-linecap="butt"/><path d="M214.43116,189.61479v-13.03487h21.7248v13.03487z" fill="#525252" stroke="none" stroke-width="0" stroke-linecap="butt"/><path d="M211.75734,191.62016l4.70086,6.52898" fill="none" stroke="#000000" stroke-width="2.5" stroke-linecap="round"/><path d="M234.81903,191.9544l-5.90476,8.08021" fill="none" stroke="#000000" stroke-width="2.5" stroke-linecap="round"/></g><path d="M175.21687,216.20062v3.40712h-23.52968c-0.65512,-1.11764 -1.27121,-2.26035 -1.88125,-3.40712z" fill="#393939" stroke="#000000" stroke-width="2" stroke-linecap="butt"/><path d="" fill="#393939" stroke="#000000" stroke-width="2" stroke-linecap="butt"/><path d="M274.22783,218.9605v-3.40712h32.36762v3.40712z" fill="#393939" stroke="#000000" stroke-width="2" stroke-linecap="butt"/><path d="" fill="#ff0000" stroke="none" stroke-width="0.5" stroke-linecap="butt"/><path d="M185.69906,220.15089c-1.20957,4.85149 -6.06106,3.64192 -6.06106,3.64192l-3.83554,-0.95649c-0.58238,-0.14454 -1.16476,-0.28908 -1.74714,-0.43362c-6.71964,4.05131 -17.41749,3.32542 -20.57243,-2.48109c-0.28707,0.33594 -0.63585,0.64893 -1.05881,0.90263c-2.34211,-3.73201 -4.09229,-7.84351 -6.5504,-11.50635c-1.10971,-1.65359 -2.82144,-2.88036 -3.78192,-4.62486c-0.96015,-1.74391 -1.0759,-3.84802 -1.88459,-5.66713c-0.26231,-0.59006 -0.52891,-1.17833 -0.79976,-1.76472c3.89703,-0.5481 9.26798,-0.14777 11.13449,3.43605c0.38006,0.72974 0.69607,1.5309 0.92775,2.36519c1.10207,-1.26084 1.91525,-2.74993 2.86743,-4.1292l0.97588,-2.10864c0.77107,-1.76704 2.53374,-3.00213 4.58489,-3.00213c2.24778,0 4.14913,1.48325 4.77869,3.52439l1.20632,3.6091c0.88728,0.52707 1.71519,1.16975 2.46867,1.89052c3.3258,-0.53648 6.71858,0.10946 8.89448,2.60224c0.16925,-0.29644 0.34138,-0.58334 0.53754,-0.79062l1.47966,1.16073c0.01527,-0.00441 0.03057,-0.00875 0.0459,-0.01302l0.3064,-0.86025l2.60608,0.92821c1.99336,0.65776 3.43202,2.53547 3.43202,4.74921c0,1.69612 -0.84454,3.195 -2.13605,4.09903c1.31698,0.77835 2.93957,2.38841 2.1815,5.42893z" fill="#ff0000" stroke="none" stroke-width="0.5" stroke-linecap="butt"/><path d="M246.3177,216.15143c-0.95524,0.88317 -2.0345,1.64773 -3.25768,2.25663c-1.95749,-3.11738 -5.42742,-4.03015 -7.29161,-4.29741c-0.01868,-1.96218 -0.24936,-3.91288 -0.72635,-5.73104c0.53202,0.24934 1.06787,0.59412 1.60252,0.85638c1.20828,-2.30446 3.34461,-2.5413 4.69186,-2.42485c1.27234,-2.33766 1.78712,-5.51982 2.1654,-7.46158l0.13505,-0.16515l-0.08362,-0.02446l1.32657,-4.53588c0.57108,-2.13286 2.51725,-3.70343 4.83025,-3.70343c2.72648,0 4.94326,2.18228 4.99893,4.89542l0.08675,3.63332c0.7147,1.45331 1.22815,2.82489 1.26227,3.97878c2.60079,-0.27163 4.54468,0.43534 5.93318,1.54976c0.6763,0.2416 1.31786,0.55577 1.89632,0.9343c0.94095,0.61573 1.69295,1.1567 2.28314,1.63129c1.74176,-1.32602 3.50601,-2.62493 3.79055,-2.6655c0.13939,-0.01987 0.27823,-0.03697 0.41648,-0.05138c1.88789,-1.1176 3.92984,-1.74558 5.76664,-1.21499c0.3679,0.10627 0.67567,0.32552 0.92712,0.62019c2.01037,-1.05393 4.91035,-1.73498 6.64038,-1.5532c1.31651,0.13832 1.84774,1.64803 2.36515,3.07703c0.13421,-0.03136 0.26662,-0.05978 0.39726,-0.08535c2.58994,-1.76455 8.42952,-3.15448 9.71124,-3.55682c0.52541,0.5988 1.05081,1.1976 1.57622,1.7964c3.65943,-1.70601 12.20599,-2.22764 13.1089,-1.44387c0.17144,0.14882 0.33782,0.29485 0.49925,0.43815c0.94149,-0.28804 2.14986,-0.53004 3.7265,-0.7495c2.66514,-0.37097 4.37753,-0.02441 5.29771,0.61583c4.24554,-5.51252 10.89582,-12.08759 17.27289,-8.18683c1.4309,0.87526 2.24176,2.0062 2.56567,3.2927l-0.73264,1.12363c0,0 0,1.26172 0.44817,2.88882c-2.133,6.59159 -11.29547,14.35856 -16.00816,14.6683c-0.66502,0.04371 -7.15346,0.45605 -8.81275,-1.54511c-0.19806,0.14984 -0.40112,0.29568 -0.60852,0.43678c-0.76789,0.83414 -1.80251,1.29811 -2.95433,1.53282c-1.81263,0.6592 -3.70297,0.82884 -5.34397,0.15536c-0.17818,-0.07313 -0.3521,-0.14585 -0.52182,-0.21816c-0.69341,-0.08403 -1.3409,-0.16871 -1.90888,-0.22236c-1.96649,-0.18576 -4.97665,6.94332 -10.24989,5.98726c-2.8009,-0.50782 -4.4476,-2.331 -5.27497,-4.10842c-1.34137,1.62388 -3.84791,3.07417 -5.61786,3.63665c-3.6297,1.15349 -10.50891,-0.34808 -10.66279,-5.03942c-2.87278,2.01101 -6.82969,3.90479 -8.32183,3.853c-2.48801,-0.08635 -5.22099,-1.64604 -7.04277,-3.42781c-0.04854,0.03175 -0.09718,0.06328 -0.14588,0.09456c-2.01708,1.29566 -4.32206,3.49333 -6.62016,2.81063c-1.80888,-0.53737 -2.68862,-2.48917 -3.5359,-4.35151z" fill="#ff0000" stroke="none" stroke-width="0.5" stroke-linecap="butt"/><path d="M172.75858,148.83287c3.08702,-1.10004 5.22987,-1.61996 5.79436,-1.38025c1.35385,0.57492 2.46687,1.24879 3.35773,1.96862l1.39144,-1.76612c0.91445,-1.1827 2.34724,-1.94427 3.9579,-1.94427c2.76142,0 5,2.23858 5,5c0,0.50513 -0.07491,0.99276 -0.21421,1.4524l-1.24093,4.45513c1.9338,-0.0125 3.92763,-0.01025 5.84566,0.03951c2.72017,-0.79247 5.41636,-1.30041 7.33077,-1.02066c0.58626,-0.32203 1.17446,-0.63997 1.76618,-0.92931c0.86139,-1.01004 1.71472,-2.02714 2.57945,-3.03426l0.04668,-0.01879l-0.01683,-0.015l3.08744,-3.46387c0.91615,-1.03723 2.25608,-1.69135 3.74879,-1.69135c2.76142,0 5,2.23858 5,5c0,0.29247 -0.02511,0.57908 -0.0733,0.85778c0.62726,-0.2834 1.32346,-0.44115 2.05651,-0.44115c1.51324,0 2.86948,0.67224 3.78636,1.73438c3.66765,-2.86519 4.12401,-8.77282 11.499,-8.69621c0.50118,0.00521 0.97874,0.0686 1.43608,0.18052c2.13327,-1.52071 3.99557,-2.4217 5.10707,-2.03961c2.41999,0.83188 4.82757,5.05506 6.09769,8.78895c0.77269,-0.2455 1.5464,-0.49038 2.32042,-0.73113c2.54291,-2.94891 5.7959,-5.69842 7.30342,-5.37893c1.62632,0.34468 2.89218,1.30128 3.87498,2.56923c2.44323,-0.38229 4.85279,-0.54681 7.20426,-0.37721c5.98978,0.432 22.01101,6.65742 31.75175,11.44177c0.11435,-0.051 0.22931,-0.10063 0.34496,-0.14872c5.25306,-2.184 14.04829,-3.15585 18.53097,1.37135c2.78456,2.81221 3.36534,7.17215 4.77484,10.8702c0.20077,0.52676 0.46885,1.04586 0.74605,1.5643c2.0354,-0.1724 4.12169,-0.61745 5.70075,0.48907c1.89024,1.32458 2.79886,3.71369 3.66346,5.87974c0.22667,-0.03145 0.45819,-0.04771 0.69351,-0.04771c2.76142,0 5,2.23858 5,5c0,2.30248 -1.55632,4.24147 -3.67438,4.82238l-3.77205,1.12853l-0.11356,-0.37956c-0.3066,0.20451 -0.62175,0.39702 -0.94696,0.57545c-4.33476,2.37829 -10.67664,-3.45447 -15.50118,-7.32c-1.98606,-0.60253 -3.71933,-1.67039 -5.31217,-2.96327c-1.53807,0.23132 -3.17899,1.81987 -4.69953,1.34934c-4.35005,-1.34613 -6.26008,-8.93231 -10.74365,-8.48114c-0.63957,0.38598 -1.26381,0.69328 -1.87278,0.83803c-1.3935,0.33123 -2.81662,0.4794 -4.24963,0.56641c-4.19198,1.18818 -8.52062,2.43716 -12.58988,1.10862c-1.69333,-0.55284 -3.25336,-1.8442 -4.73595,-3.45262c-4.36264,2.72016 -11.26107,4.71939 -16.29065,3.04182c-1.37947,-0.46011 -2.89019,-1.29144 -4.07953,-2.4167c-1.86613,2.10594 -4.91816,1.34504 -4.91816,1.34504l-0.33953,-0.23644c-2.59599,2.0582 -5.77255,3.71663 -7.73869,3.80278c-1.95277,0.08557 -4.22523,0.07791 -5.90059,-0.88852c-2.68485,1.67662 -4.97618,3.96877 -8.04971,4.94874c-11.47284,3.65802 -18.26961,1.1028 -22.28442,-5.88243c-0.73928,2.27959 -2.1354,4.84191 -5.55487,6.6556c-2.89404,1.535 -6.56084,0.89728 -9.81432,0.51439c-2.04141,-0.24025 -5.64141,-3.09935 -8.06253,-6.09334c-2.29423,1.20396 -4.92684,1.88075 -7.50637,1.97044c-0.50692,0.01762 -0.98911,0.00386 -1.44979,-0.03824c-2.75896,-0.02152 -5.56331,-1.38796 -8.22424,-3.23019l-2.03475,2.3191c-0.91673,1.05569 -2.26877,1.72323 -3.77671,1.72323c-1.75475,0 -3.29838,-0.90394 -4.19064,-2.27156c-0.90731,0.92437 -2.17095,1.49776 -3.56852,1.49776c-0.14615,0 -0.29083,-0.00627 -0.43379,-0.01856c-0.72714,0.54572 -1.46147,1.06685 -2.20188,1.54874l-0.93589,6.8445c-0.29951,2.47519 -2.40755,4.39308 -4.96354,4.39308c-2.54595,0 -4.64747,-1.90286 -4.95993,-4.36395l-0.30628,-2.1382c-0.23558,-0.53902 -0.43846,-1.05715 -0.61453,-1.56192c-1.95454,0.061 -3.79844,-0.15213 -4.34504,-1.69875c-1.02009,-2.88637 0.05309,-6.01313 2.46229,-9.16592c-0.36921,-1.77106 -0.78849,-3.53595 -0.70558,-5.32896c0.00366,-0.07909 0.00765,-0.15815 0.01196,-0.23717l-0.02881,0.00138l-0.38623,-8.08841c-0.00494,-0.09104 -0.00743,-0.18273 -0.00743,-0.27501c0,-2.76142 2.23858,-5 5,-5c1.04853,0 2.02167,0.32275 2.82551,0.87432l2.16651,1.4404c1.64594,0.95173 3.70268,2.22359 5.55183,3.76568c4.41936,-7.64883 3.22018,-18.31185 11.8381,-23.38315c7.16157,-4.2143 12.22652,-4.38391 14.77386,4.612c0.59498,2.10116 -0.72145,4.3332 -1.473,6.38358c-0.16222,0.44256 -0.33819,0.87688 -0.5256,1.30425zM261.74445,165.65174c-0.81159,-0.2711 -1.57078,-0.60233 -2.25446,-1.00187c0.18559,0.59372 0.47786,1.01795 1.06505,1.03048c0.40109,0.00856 0.79747,-0.00163 1.18941,-0.02861zM193.62774,168.66778c-0.87404,0.20266 -1.73882,0.44578 -2.50968,0.79479c-0.98215,0.44467 -1.83941,1.28539 -2.74203,1.93462c0.64466,0.93644 1.49827,1.63439 2.74578,1.91678c0.86178,0.19508 1.92206,1.08063 2.60036,0.51439c1.20523,-1.00612 2.13362,-2.13503 2.88455,-3.30614c-0.65407,-0.50895 -1.17834,-1.17686 -1.51481,-1.9457c-0.48335,0.03608 -0.97175,0.06627 -1.46417,0.09126z" fill="#ff0000" stroke="none" stroke-width="0.5" stroke-linecap="butt"/><path d="M327.46908,184.53859c-2.79942,2.49514 -5.29456,-0.30428 -5.29456,-0.30428l1.77651,-0.52369c-1.67445,-0.0081 -3.52814,0.72948 -5.02335,-0.0243c-1.09356,-0.55129 -0.54159,-2.6821 -1.59249,-3.3109c-0.93932,-0.56204 -2.25788,0.85239 -3.25841,0.40836c-0.88653,-0.39344 -0.71671,-1.90286 -1.47416,-2.50866c-0.3289,-0.26305 -0.81196,0.49698 -1.21068,0.36137c-1.76067,-0.59881 -3.75289,-1.0949 -5.00069,-2.47387c-0.10622,-0.11739 -0.20013,-0.24555 -0.28238,-0.38227c-1.51286,1.80652 -3.93756,1.85509 -6.80545,0.58147c-2.44438,2.57643 -7.08402,2.79235 -10.03926,0.59358c-0.33521,-0.2494 -0.64259,-0.48814 -0.92377,-0.71669c-1.94289,1.49478 -4.23417,2.36024 -7.09139,0.98295c-1.12586,-0.54271 -1.28995,-2.00527 -1.30169,-3.44027l-4.38218,3.07098c-0.61608,0.44384 -1.37232,0.70531 -2.18962,0.70531c-1.08422,0 -2.06097,-0.46013 -2.74563,-1.19576c-2.28987,1.80564 -5.30258,2.24912 -9.91263,-0.21471c-0.36242,0.32157 -0.78055,0.56358 -1.27685,0.69398c-4.72417,1.24121 -6.47181,-1.31778 -6.71871,-4.23498c-2.74499,0.93156 -6.11046,1.0963 -6.95663,0.60641c-0.30241,-0.17508 -0.54106,-0.41156 -0.72587,-0.69299l-2.67795,1.58262c-0.5708,0.35114 -1.24281,0.55367 -1.96213,0.55367c-0.72188,0 -1.39611,-0.20397 -1.96822,-0.55743c-0.64303,1.14102 -1.86613,1.91158 -3.26921,1.91158c-1.02091,0 -1.94653,-0.40796 -2.62274,-1.06975c-2.44145,0.139 -5.54329,1.51781 -6.91948,-0.34315c-0.67141,-0.90792 -0.34776,-1.96779 0.25776,-3.0707l-1.12539,-0.23757c-1.37269,0.36531 -2.70716,0.52404 -3.89452,-0.11225c-0.40685,-0.21802 -0.70542,-0.53921 -0.92137,-0.92944c-0.57878,0.56844 -1.20754,1.08197 -1.87254,1.52499c-2.77969,1.85178 -5.84749,4.49159 -9.15978,4.06205c-1.39984,-0.18153 -2.4648,-0.42697 -3.25531,-0.71532l-2.44088,1.97371c-0.64745,0.53234 -1.47642,0.85195 -2.38004,0.85195c-2.07107,0 -3.75,-1.67893 -3.75,-3.75c0,-0.09339 0.00341,-0.18598 0.01012,-0.27766l0.03082,-0.47639c-0.02067,-0.01666 -0.04117,-0.03353 -0.06147,-0.05062l-1.36493,1.14628c-0.65446,0.55723 -1.50282,0.89352 -2.42972,0.89352c-1.15986,0 -2.19674,-0.52657 -2.8846,-1.35369l-1.01357,1.74595c-0.64033,1.15067 -1.86878,1.92915 -3.27904,1.92915c-2.07107,0 -3.75,-1.67893 -3.75,-3.75c0,-0.06063 0.00144,-0.12093 0.00428,-0.18086l0.10004,-2.39451c-2.06269,0.79712 -4.23064,1.39689 -5.87493,0.27983c-0.75731,-0.51448 -1.31178,-1.62674 -1.60986,-2.86844c-2.72072,2.24495 -6.53255,3.31179 -9.83777,0.95964c-0.08778,-0.06247 -0.16802,-0.12923 -0.24116,-0.19999l-1.98212,3.08862c-0.66117,1.06663 -1.84244,1.77703 -3.18963,1.77703c-1.39337,0 -2.60926,-0.75994 -3.25578,-1.88797l-2.20085,1.67842c-0.63549,0.49503 -1.43457,0.7899 -2.30252,0.7899c-0.11073,0 -0.22034,-0.0048 -0.32863,-0.0142c-0.006,0.05385 -0.01199,0.10771 -0.01799,0.16156c0,0 -0.41524,3.72694 -4.14218,3.3117c-3.72694,-0.41524 -3.3117,-4.14218 -3.3117,-4.14218c0.26096,-2.34085 0.52192,-4.6817 0.78288,-7.02255l0.04021,-0.05356l-0.03233,-0.00463l0.38012,-2.65361c0.23435,-1.84581 1.81049,-3.27294 3.71994,-3.27294c0.61483,0 1.1951,0.14796 1.70715,0.41022c0.42422,-0.59935 1.32491,-0.76804 1.97989,-1.15881l1.75029,-1.57097c0.66531,-0.60226 1.54772,-0.9691 2.51582,-0.9691c0.79483,0 1.53191,0.24728 2.1385,0.66912l0.99671,-2.2365c0.56659,-1.35195 1.90242,-2.30164 3.46007,-2.30164c1.19939,0 2.26726,0.56307 2.9537,1.43929c0.73356,-0.49349 1.52819,-0.75001 2.42171,-0.59574c2.10838,0.36403 3.0994,2.76507 3.67347,5.17267c1.17836,-1.50627 2.48271,-2.87631 4.2464,-3.24735c4.51914,-0.95074 6.49019,1.95871 6.71631,5.0486c0.8655,-0.50813 1.7524,-0.75518 2.54799,-0.32272c0.83882,0.45596 1.40563,1.18196 1.8431,2.03638c1.86911,-1.76731 4.227,-3.05569 5.90313,-2.36669c1.19117,0.48965 1.77396,1.65376 2.22556,2.96331l3.18083,-2.92145l0.65824,3.26403c0.39422,-0.14079 0.8189,-0.21746 1.26149,-0.21746c0.35957,0 0.70732,0.05061 1.03651,0.14509l0.15387,-0.02204l0.01051,0.07336c0.80863,0.27317 1.4937,0.81459 1.94932,1.5184c1.18929,-2.33921 3.01002,-4.29508 6.14419,-3.5261c1.43266,0.35151 2.1932,1.75035 2.70304,3.33301c1.5003,-2.1296 7.77157,-8.92212 9.98026,-8.39202c1.97016,0.47285 2.78137,2.80952 3.38716,4.99439l1.00552,-0.7879c0.64119,-0.51212 1.45409,-0.81828 2.3385,-0.81828c1.75984,0 3.23654,1.21225 3.64062,2.84725c0.32279,-0.09053 0.66319,-0.13895 1.01489,-0.13895c0.51644,0 1.00849,0.10439 1.45621,0.29323c1.73924,-1.70166 3.95486,-3.46009 4.06485,-3.55614l0.5743,-0.04934l-0.09814,-0.21322l2.44913,-1.12729c0.49554,-0.24146 1.05221,-0.37694 1.64053,-0.37694c1.33222,0 2.50218,0.69469 3.16739,1.74159c1.63027,0.02716 3.00737,1.09466 3.49616,2.56736l0.40352,1.12676c0.10679,-0.05053 0.21432,-0.09676 0.32152,-0.13859c2.44628,-0.95446 5.28849,-3.21553 7.61839,-2.00439c0.52028,0.27046 0.95039,0.75994 1.28185,1.37388l0.86243,-0.63072c0.62617,-0.46926 1.40396,-0.74723 2.24667,-0.74723c2.07107,0 3.75,1.67893 3.75,3.75c0,0.0661 -0.00171,0.1318 -0.00509,0.19705l-0.14085,3.08988c0.82223,-1.32991 1.25217,-2.89549 2.03781,-4.25506l0.28864,-0.16714l-0.10063,-0.08256l1.72618,-2.10402c0.68744,-0.85109 1.73955,-1.39541 2.9188,-1.39541c2.07107,0 3.75,1.67893 3.75,3.75v0.1192c1.08463,-1.30536 2.51319,-2.0667 4.40632,-1.27123c1.70144,0.71492 2.69916,2.40055 3.47259,4.22713c0.40838,-0.32552 0.81937,-0.64938 1.17041,-1.01134l0.16614,-0.0659l-0.03793,-0.04565l2.30856,-1.91855c0.65258,-0.55029 1.49557,-0.88191 2.41602,-0.88191c2.07107,0 3.75,1.67893 3.75,3.75v0.83284c1.72848,-1.08569 3.64572,-2.3594 5.58964,-1.99569c0.98936,0.18511 1.25925,1.39962 1.45907,2.56278c1.56733,-1.71991 3.16897,-3.92181 5.3511,-3.77017c2.33959,0.16258 3.4664,3.23492 4.72195,5.21576c0.26414,0.41672 -0.47754,0.88786 -0.54325,1.37685c-0.03064,0.22803 0.20091,-0.55062 0.43071,-0.53936c1.30015,0.06371 2.724,0.0663 3.83277,0.74827c0.65262,0.4014 0.14772,1.83623 0.8536,2.13416c1.03087,0.43511 2.3767,-0.93999 3.33687,-0.36544c2.63828,1.57871 0.71548,4.82245 1.91925,2.46833l4.88015,2.95843c0,0 2.49514,2.79942 -0.30428,5.29456z" fill="#ff7b00" stroke="none" stroke-width="0.5" stroke-linecap="butt"/><path d="M243.63235,220.42935c0,-3.75 3.75,-3.75 3.75,-3.75l-0.28467,0.88405c3.96321,-3.26118 5.07489,-4.81171 11.75717,-5.19352c0.8581,-0.94568 1.96545,-1.70369 3.15956,-2.04473c2.00294,-0.57205 4.34871,-0.68655 6.24673,0.17168c1.12615,0.50921 2.05812,1.43426 2.77506,2.50187c0.87823,-1.19411 1.93743,-2.21882 3.24008,-2.80801c4.6983,-2.12503 7.34441,1.1321 8.19713,4.64348c1.83944,-2.8923 6.57251,-6.42639 8.64827,-0.60825c0.40355,1.13111 0.29603,-7.51515 7.47269,-8.35954c1.28333,-0.15099 1.2518,2.28573 2.10901,3.25263c0.29003,0.32714 -0.62966,-0.93157 -0.34677,-1.26489c1.06511,-1.255 2.4343,-2.31478 3.94316,-2.97267c2.79307,-1.21784 6.07791,0.95676 8.8887,2.13312c0.60094,0.2515 5.02894,-0.81057 8.17056,-0.52122c2.3916,0.22028 2.7828,-3.95285 4.52091,-5.61034c0,0 2.7161,-2.5856 5.30169,0.1305c2.5856,2.7161 -0.1305,5.30169 -0.1305,5.30169c-7.19938,6.84068 -14.46538,9.66531 -22.95783,4.82082c-1.3191,-0.75248 -2.15029,2.22436 -3.50516,2.91034c-0.08004,0.04053 -4.41892,2.45395 -6.38586,2.19999c-1.95935,2.53143 -5.79481,5.4856 -8.43261,5.35668c-1.22089,-0.05967 -1.65766,-1.80678 -2.35654,-2.80963c-0.31378,-0.45024 0.67389,1.1608 0.35523,1.6076c-1.13412,1.59016 -1.92464,4.14463 -3.8599,4.40848c-2.54513,0.34699 -4.75714,-1.9396 -7.13571,-2.9094c-0.22077,-0.84042 -0.4815,-1.67212 -0.71468,-2.50983c-1.52839,2.32087 -4.18507,5.20306 -4.56199,5.16734c-6.40846,-0.60732 -4.47712,-4.52519 -6.58467,-7.3504c-0.28286,-0.37918 -0.71428,0.62155 -1.04941,0.95544c-1.31199,1.30713 -2.1637,3.50883 -3.97849,3.87824c-1.27483,0.25949 -1.74223,-2.33533 -3.03814,-2.44999c-0.77455,-0.06854 -4.23308,3.11142 -4.91083,3.70441l-4.55219,0.88405c0,0 -3.75,0 -3.75,-3.75z" fill="#ff7b00" stroke="none" stroke-width="0.5" stroke-linecap="butt"/><path d="M144.81445,213.98539c-0.90718,-3.63862 2.73144,-4.54579 2.73144,-4.54579l3.92186,-0.88413c1.88298,0.55875 4.13451,0.42553 5.64893,1.67626c0.54488,0.45 0.90064,1.09383 1.11884,1.80403c1.12846,-0.49605 2.84214,-0.09773 4.25515,0.48216c0.77227,-1.19097 1.67864,-2.18416 2.98714,-2.58422c1.72042,-0.526 3.3452,1.12293 4.65351,2.68167c0.40644,-2.21092 1.48883,-4.67281 2.80688,-5.45702c0.28791,-0.1713 0.58356,-0.32448 0.88567,-0.46257l-0.08879,-0.15379l3.62931,-2.09546c0.56411,-0.3396 1.22492,-0.53493 1.93134,-0.53493c2.07107,0 3.75,1.67893 3.75,3.75c0,0.42144 -0.06952,0.82664 -0.19772,1.20477l-0.94374,3.01176l-0.21625,-0.06776l0.00404,0.59905c-1.1314,1.6474 -2.26281,3.2948 -3.39421,4.94219c0,0 -1.47379,2.11282 -3.7295,1.61463c-1.10985,1.85379 -2.34896,3.53287 -4.29906,4.05132c-1.48623,0.39513 -2.68003,-0.94311 -3.70365,-2.45296l-0.28161,1.21698c-0.35585,1.70077 -1.864,2.97813 -3.67048,2.97813c-1.93014,0 -3.5197,-1.45822 -3.72708,-3.33308l-0.12758,-1.01784c-0.91734,0.78623 -1.91167,1.46411 -2.96753,1.20495c-1.98001,-0.48598 -3.10516,-2.71994 -4.22136,-4.42601c-0.22037,-0.33683 0.58128,-2.66355 0.07575,-1.13437l-2.28548,0.66348c0,0 -3.63862,0.90718 -4.54579,-2.73144z" fill="#ff7b00" stroke="none" stroke-width="0.5" stroke-linecap="butt"/><path d="M193.87974,176.39952c-0.46389,3.7212 -4.18508,3.25731 -4.18508,3.25731l-2.72874,-0.35915c-4.99818,0.28806 -9.99789,-1.44296 -12.0893,-6.02621c-1.74943,2.21151 -3.61501,4.55246 -6.24662,4.86655c-0.91596,0.10932 -2.70469,-1.00947 -4.16206,-2.57513c-0.76834,1.23286 -1.77134,2.31071 -2.71169,2.76587c-4.69801,2.27396 -8.70362,-1.59639 -9.40033,-5.08977c-0.2504,0.36015 -0.48726,0.67343 -0.68437,0.90054c0,0 -2.45981,2.83052 -5.29033,0.3707c-2.83052,-2.45981 -0.3707,-5.29033 -0.3707,-5.29033c2.65919,-3.05624 7.62998,-10.48763 12.92957,-5.52777c0.78323,0.73302 1.14461,1.73474 1.32307,2.83246c1.31927,-2.26124 3.28145,-4.164 5.70684,-3.76289c3.15513,0.52179 4.14087,2.45189 4.21728,4.3389c1.18994,-1.98898 2.71509,-3.98531 3.27889,-4.07026c8.64991,-1.30333 5.65987,9.58979 13.67771,8.76944l3.47857,0.41465c0,0 3.7212,0.46389 3.25731,4.18508z" fill="#ffc500" stroke="none" stroke-width="0.5" stroke-linecap="butt"/><path d="M240.06272,173.89003c-3.17757,1.99137 -5.16894,-1.1862 -5.16894,-1.1862l-0.44033,-0.8837c-0.65125,-0.73683 -1.23747,-1.5367 -1.95376,-2.21048c-0.44731,-0.42077 -1.24101,0.24512 -1.7416,0.60085c-2.53738,1.8031 -2.92091,4.99359 -5.13367,7.18391c-3.1575,3.12548 -6.57647,4.13549 -10.72321,4.93565c0,0 -3.68611,0.68926 -4.37537,-2.99685c-0.68926,-3.68611 2.99685,-4.37537 2.99685,-4.37537c2.54715,-0.45683 4.80093,-0.84888 6.73486,-2.80239c1.15647,-1.16818 2.04541,-3.93594 3.02073,-5.09904c2.94816,-3.51575 7.9157,-6.54368 12.60558,-4.13985c1.56553,0.80242 2.57709,2.39534 3.86563,3.59302l1.49943,2.21151c0,0 1.99137,3.17757 -1.1862,5.16894z" fill="#ffc500" stroke="none" stroke-width="0.5" stroke-linecap="butt"/><path d="M299.03904,177.02868c-1.67339,3.35593 -5.02932,1.68254 -5.02932,1.68254l-0.8223,-0.43075c-1.11036,-0.44991 -2.15393,-1.12688 -3.33107,-1.34974c-2.60146,-0.49251 -3.50607,0.78386 -6.02358,1.1646c-2.84593,0.43042 -7.88956,0.05155 -10.45438,-1.35422c-1.67805,-0.91973 -4.12397,-3.76045 -5.47945,-5.23199c0,0 -2.53771,-2.76089 0.22318,-5.2986c2.76089,-2.53771 5.2986,0.22318 5.2986,0.22318c1.13323,1.23583 1.99514,2.82206 3.44358,3.66675c2.70483,1.57738 6.24195,-0.00959 8.85574,-0.37253c3.38341,-0.46981 6.91955,0.37756 10.131,1.54149l1.50546,0.72996c0,0 3.35593,1.67339 1.68254,5.02932z" fill="#ffc500" stroke="none" stroke-width="0.5" stroke-linecap="butt"/><path d="M175.51717,214.13131c1.07486,3.59265 -2.51779,4.66752 -2.51779,4.66752l-1.8317,0.54623c-1.59643,0.50547 -3.1239,1.34169 -4.7893,1.51641c-2.04742,0.2148 -4.11004,-0.24478 -6.16506,-0.36716c0,0 -3.74052,-0.26645 -3.47407,-4.00697c0.26645,-3.74052 4.00697,-3.47407 4.00697,-3.47407c2.68786,0.23266 5.51307,0.11723 8.05556,-0.78526l2.04788,-0.61448c0,0 3.59265,-1.07486 4.66752,2.51779z" fill="#ffc500" stroke="none" stroke-width="0.5" stroke-linecap="butt"/><path d="M298.64621,215.29956c-0.28683,3.73901 -4.02585,3.45218 -4.02585,3.45218l-2.48205,-0.19062c-2.73382,-0.17864 -4.59908,-0.82968 -6.2925,1.49275c0,0 -2.52629,2.77135 -5.29764,0.24507c-2.77135,-2.52629 -0.24507,-5.29764 -0.24507,-5.29764c0.95553,-0.95555 1.65521,-2.26777 2.86659,-2.86666c3.45162,-1.70644 5.96361,-1.22521 9.46292,-1.05721l2.56141,0.19628c0,0 3.73901,0.28683 3.45218,4.02585z" fill="#ffc500" stroke="none" stroke-width="0.5" stroke-linecap="butt"/></g></g></svg>