<svg version="1.1" xmlns="http://www.w3.org/2000/svg" xmlns:xlink="http://www.w3.org/1999/xlink" width="280.23377" height="80.67152" viewBox="0,0,280.23377,80.67152"><g transform="translate(-101.25133,-140.67734)"><g stroke-miterlimit="10"><g stroke-linecap="butt"><path d="M123.50133,215.5v-71h187v71z" fill="#8e8e8e" stroke="#000000" stroke-width="5"/><path d="M311.64933,144.86621l64.59934,34.44663l-63.89603,35.36658z" fill="#8e8e8e" stroke="#000000" stroke-width="5"/><path d="M302.58307,209.62719c0.18251,-2.0131 1.71058,-2.41235 2.50752,-2.48258c-0.00267,-0.25592 0.00903,-0.51929 0.03605,-0.78988c0.02848,-0.28518 0.21095,-0.68726 0.50455,-1.15163c-0.0507,-0.06789 -0.10076,-0.13801 -0.15022,-0.21032c-0.03907,0.02166 -0.07685,0.04252 -0.11333,0.06257l-2.92021,1.64606c-0.40856,0.24053 -0.88474,0.37849 -1.39315,0.37849c-1.51878,0 -2.75,-1.23121 -2.75,-2.75c0,-0.69365 0.25681,-1.32731 0.68055,-1.8111l2.44769,-2.82644l0.13653,0.11822c0.19101,-0.26122 0.40174,-0.50844 0.63684,-0.73834c0.29384,-0.28734 0.64587,-0.45868 1.03327,-0.56023c-0.45984,-2.43929 -0.73744,-5.20802 -0.847,-7.97705c-0.21395,-0.2701 -0.4124,-0.56885 -0.59363,-0.89815c-0.70475,-1.2806 -0.46199,-2.65545 0.30585,-4.05494c-3.06289,-4.08512 -2.43987,-11.57347 0.70343,-16.40111c-0.17892,-1.62532 -0.31577,-3.16666 -0.39783,-4.58677l-0.32825,-0.69835c-0.18295,-0.36817 -0.28582,-0.78315 -0.28582,-1.22216c0,-0.6107 0.19907,-1.17491 0.53585,-1.63127c0.0542,-2.23342 0.35098,-3.89969 0.9792,-4.73847c1.85444,-2.47601 3.42697,-3.50172 4.73005,-3.52444l0.03516,-0.17579l-0.05492,-0.02353c-0.38236,-0.02034 -0.78368,-0.01557 -1.18659,0.00337c0,0 -2.75,0 -2.75,-2.75c0,-2.75 2.75,-2.75 2.75,-2.75c3.69218,0.10086 7.97862,1.05453 9.30558,5.30964c0.39243,1.25839 -0.17934,2.6302 -0.26901,3.94531l-0.09459,0.14721l0.05924,0.01481l-0.65272,2.61086c-0.11052,0.48704 -0.35032,0.92499 -0.68142,1.27585c0.00792,0.00194 0.01586,0.0039 0.02382,0.0059c2.66746,0.66868 1.99879,3.33614 1.99879,3.33614c-0.12428,0.49302 -0.26308,1.29829 -0.42784,2.32267c0.0505,0.18933 0.09943,0.37955 0.14675,0.57039c4.53626,3.09674 5.37778,9.0029 4.46339,14.82307c0.68606,-0.11534 1.32261,-0.10157 1.8883,0.08757c0.62424,-0.16804 1.25876,-0.33974 1.90169,-0.5231l0.30929,0.08281l-0.00695,-0.11756l2.57925,-0.15251c0.06164,-0.00413 0.12383,-0.00623 0.18651,-0.00623c1.51878,0 2.75,1.23121 2.75,2.75c0,0.8204 -0.35925,1.5569 -0.92902,2.06076l-2.29516,2.04799c-0.87494,1.36205 -1.8635,2.66956 -3.38179,4.29583c-0.42031,0.45021 -0.84546,0.91152 -1.29549,1.34208c1.01545,0.00356 2.12222,0.25526 3.39319,0.88185c5.92998,2.92348 3.73362,6.11414 -0.09442,8.84417c-1.00455,0.71642 -2.38052,0.65859 -3.59071,0.89903c-1.80491,0.3586 -3.64012,0.56601 -5.47776,0.73856c0.89079,1.02994 0.52563,2.49055 0.52563,2.49055c-0.41364,1.26091 -0.32742,2.82015 -1.24091,3.78271c-1.96708,2.07274 -4.90981,2.4613 -7.23275,1.50931c-0.47212,0.07274 -0.97666,0.15283 -1.51789,0.26111l-2.10415,-0.10584c0,0 -2.73876,-0.2483 -2.49046,-2.98707z" fill="#8e8e8e" stroke="none" stroke-width="0.5"/><path d="M103.75133,201.5v-42.5h19.5v42.5z" fill="#4b4b4b" stroke="#000000" stroke-width="5"/></g><g><path d="M144.40968,190.09032v-29.75699h29.75699v29.75699z" fill="#6b6b6b" stroke="#000000" stroke-width="2.5" stroke-linecap="butt"/><path d="M155.31075,206v-25.33763h8.24946v25.33763z" fill="#6b6b6b" stroke="#000000" stroke-width="2.5" stroke-linecap="butt"/><path d="M151.48065,188.91183v-11.49032h19.15054v11.49032z" fill="#6b6b6b" stroke="none" stroke-width="0" stroke-linecap="butt"/><path d="M149.12365,190.67957l5.30323,7.36559" fill="none" stroke="#000000" stroke-width="2.5" stroke-linecap="round"/><path d="M163.85484,198.63441l5.59785,-7.66021" fill="none" stroke="#000000" stroke-width="2.5" stroke-linecap="round"/></g><g><path d="M274.40968,190.09033v-29.75699h29.75698v29.75699z" fill="#6b6b6b" stroke="#000000" stroke-width="2.5" stroke-linecap="butt"/><path d="M285.31075,206v-25.33764h8.24946v25.33764z" fill="#6b6b6b" stroke="#000000" stroke-width="2.5" stroke-linecap="butt"/><path d="M281.48064,188.91183v-11.49032h19.15054v11.49032z" fill="#6b6b6b" stroke="none" stroke-width="0" stroke-linecap="butt"/><path d="M279.12366,190.67957l5.30322,7.36559" fill="none" stroke="#000000" stroke-width="2.5" stroke-linecap="round"/><path d="M293.85484,198.63441l5.59785,-7.66021" fill="none" stroke="#000000" stroke-width="2.5" stroke-linecap="round"/></g><g><path d="M206.40968,190.95171v-33.75699h33.75699v33.75699z" fill="#525252" stroke="#000000" stroke-width="2.5" stroke-linecap="butt"/><path d="M218.7761,209v-28.74358h9.35838v28.74358z" fill="#525252" stroke="#000000" stroke-width="2.5" stroke-linecap="butt"/><path d="M214.43114,189.61479v-13.03487h21.7248v13.03487z" fill="#525252" stroke="none" stroke-width="0" stroke-linecap="butt"/><path d="M211.75732,191.62016l6.0161,8.35569" fill="none" stroke="#000000" stroke-width="2.5" stroke-linecap="round"/><path d="M228.4687,200.64431l6.35032,-8.68991" fill="none" stroke="#000000" stroke-width="2.5" stroke-linecap="round"/></g><path d="M142.84923,219.60774v-3.40712h32.36762v3.40712z" fill="#393939" stroke="#000000" stroke-width="2" stroke-linecap="butt"/><path d="M206.19613,220.34885v-3.40712h32.36763v3.40712z" fill="#393939" stroke="#000000" stroke-width="2" stroke-linecap="butt"/><path d="M274.22782,218.9605v-3.40712h32.36762v3.40712z" fill="#393939" stroke="#000000" stroke-width="2" stroke-linecap="butt"/><path d="M150.00143,152.50886c0,2.5 -2.5,2.5 -2.5,2.5l-1.16028,-0.05334c-2.06416,-0.43481 -7.27265,-0.40151 -8.81389,-1.5631c-1.88116,-1.41779 -2.23512,-4.34639 -2.68815,-6.42864c0,0 -0.51638,-2.44609 1.92971,-2.96247c2.44609,-0.51638 2.96247,1.92971 2.96247,1.92971c0.22803,1.12362 -0.30354,2.77401 0.67416,3.37287c0.41248,0.25265 0.95675,-0.2053 1.43982,-0.18063c1.76768,0.09026 3.78761,0.57566 5.52325,0.93894l0.13291,-0.05334c0,0 2.5,0 2.5,2.5z" fill="#444444" stroke="none" stroke-width="0.5" stroke-linecap="butt"/><path d="M198.21835,207.39759c0.30926,2.4808 -2.17154,2.79005 -2.17154,2.79005l-0.51752,-0.55336c-1.21933,1.35463 -2.3923,2.7605 -3.4235,4.2633c0,0 -1.41895,2.05829 -3.47725,0.63934c-2.05829,-1.41895 -0.63934,-3.47725 -0.63934,-3.47725c1.15836,-1.67344 2.4615,-3.2475 3.8184,-4.76441l3.6207,-1.06922c0,0 2.4808,-0.30926 2.79005,2.17154z" fill="#444444" stroke="none" stroke-width="0.5" stroke-linecap="butt"/><path d="M268.69985,152.71564c0.1914,0.58848 0.53631,2.25506 -1.31713,3.09981c-2.27486,1.03683 -3.31169,-1.23803 -3.31169,-1.23803l-0.00651,-4.3469c2.17501,-1.83393 2.74017,-2.82881 3.33548,-5.62829c0,0 0.55548,-2.43751 2.99299,-1.88202c2.43751,0.55548 1.88202,2.99299 1.88202,2.99299c-0.74234,3.10184 -1.64998,4.99875 -3.57517,7.00243z" fill="#444444" stroke="none" stroke-width="0.5" stroke-linecap="butt"/><path d="M332.43846,193.52263c0.51369,-2.44666 2.96034,-1.93297 2.96034,-1.93297l3.84419,1.33869c0.42437,2.34031 0.83466,4.68335 1.21421,7.03134c0,0 0.39602,2.46843 -2.07241,2.86446c-2.46843,0.39602 -2.86446,-2.07241 -2.86446,-2.07241c-0.24001,-1.50647 -0.61461,-3.14737 -0.079,-4.57571l-1.06991,0.30695c0,0 -2.44666,-0.51369 -1.93297,-2.96034z" fill="#444444" stroke="none" stroke-width="0.5" stroke-linecap="butt"/></g></g></svg>