<svg version="1.1" xmlns="http://www.w3.org/2000/svg" xmlns:xlink="http://www.w3.org/1999/xlink" width="69.39191" height="19.32467" viewBox="0,0,69.39191,19.32467"><g transform="translate(-198.17923,-170.81818)"><g stroke="none" stroke-miterlimit="10"><path d="M219,175.5h42v9h-42z" fill="#3c3c3c" stroke-width="NaN"/><path d="M260.65717,175.51035l6.91397,4.30199l-6.79915,4.48124z" fill="#3c3c3c" stroke-width="0"/><path d="M218.92857,190.14286v-19.32467l2.14286,2.57143v13.8961z" fill="#3c3c3c" stroke-width="0"/><path d="M246.35714,184.42857v-8.85714h1.57143v8.85714z" fill="#910000" stroke-width="0"/><path d="M251.35715,184.42857v-8.85714h1.57143v8.85714z" fill="#910000" stroke-width="0"/><path d="M214.94995,184.16644c-0.04582,0.0284 -0.07904,0.04577 -0.09612,0.04941c-1.1722,0.25008 -2.06214,-0.40578 -3.17363,-0.30923c-2.38166,0.20687 -4.44284,0.68001 -6.79328,0.0132l-1.01139,-1.37915c0.71031,-0.30376 1.3888,-0.47262 2.04856,-0.55684l-0.75058,-0.2323c-0.13729,-0.03903 -0.25854,-0.11619 -0.35156,-0.21931c-1.27209,-0.10107 -2.45903,-0.29791 -3.46449,-0.61289c-0.56318,0.00646 -1.18741,-0.08818 -1.97975,-0.36459l-0.26855,0.20517l-0.77159,-1.00995c-0.09923,-0.12718 -0.15835,-0.28717 -0.15835,-0.46098c0,-0.41421 0.33579,-0.75 0.75,-0.75c0.19548,0 0.3735,0.07479 0.50699,0.19731l0.50387,0.45907c0.5127,0.18891 0.95096,0.27324 1.35081,0.28996c0.45313,-0.07108 0.90643,-0.12971 1.35823,-0.17389c0.69669,-0.1807 1.41433,-0.44583 2.41459,-0.5271c0.67867,-0.05514 1.36275,0.12184 2.04437,0.32445c1.31829,-0.49213 2.99337,-0.87058 4.63486,-1.07839c0.15042,-0.20842 0.31318,-0.40322 0.51355,-0.55404c1.76494,-1.32843 2.96538,-0.75138 4.88081,-0.96491c0,0 0.7463,-0.07443 0.82072,0.67187c0.07443,0.7463 -0.67187,0.82072 -0.67187,0.82072c-0.05964,0.0054 -0.11843,0.00986 -0.17645,0.01348c0.06398,0.04743 0.12519,0.0939 0.18328,0.13852c1.27151,0.43244 1.37377,0.94099 0.70495,1.4331c-0.10892,0.30102 -0.34668,0.64547 -0.73564,1.0366c0.01607,0.01211 0.03216,0.0246 0.04826,0.03749c2.07649,1.66194 -0.87342,3.4829 -2.21292,3.71926z" fill="#f20000" stroke-width="0.5"/><path d="M217.76092,182.66224c-0.09318,0.17444 -0.20047,0.3597 -0.32268,0.55629c-0.00015,0.00024 -0.0003,0.00048 -0.00045,0.00072c-0.10388,0.0654 -0.24045,0.1084 -0.42003,0.1084c-0.60833,0 -0.72324,-0.49342 -0.74495,-0.67983c-0.3256,0.32018 -0.71107,0.54185 -1.13528,0.59027c-0.44833,-0.1316 -0.93257,-0.30237 -1.42745,-0.49556c-0.17167,-0.18431 -0.27967,-0.40429 -0.34747,-0.6389c-0.20996,0.07315 -0.42418,0.15129 -0.63971,0.23164c-0.3273,-0.14164 -0.65199,-0.28817 -0.96688,-0.43483c-0.43997,0.16045 -0.87111,0.32891 -1.26054,0.54338c-0.44465,0.09473 0.05428,-0.23774 0.97707,-0.67666c-0.12688,-0.06021 -0.25174,-0.1202 -0.37406,-0.17964c-0.45043,-0.03241 -0.88539,-0.09333 -1.28711,-0.1909c-0.09989,-0.00824 -0.20404,-0.01624 -0.313,-0.0236c0.01132,-0.01711 0.02278,-0.03434 0.03438,-0.05171c-0.53534,-0.16034 -0.99829,-0.39523 -1.34105,-0.72654c0.01221,-0.0118 0.02447,-0.02344 0.03678,-0.03493l0.75297,-0.71495c0.22664,0.00857 0.46879,0.00797 0.71704,0.00964c0.24353,-0.04167 0.49487,-0.05938 0.75156,-0.06063l0.57161,-0.5282c0.87953,-0.68137 2.08074,-1.56096 3.22586,-0.64071c0.1379,-0.06068 0.27323,-0.11683 0.40541,-0.16769c0.12547,-0.62385 0.32174,-1.19456 1.26538,-1.2994c0.62539,-0.06949 1.44834,0.15214 1.75179,0.70338c0.16171,0.29376 -0.03857,0.7959 -0.42423,1.31609c0.13424,0.306 0.24262,0.62594 0.32554,0.95331l0.2852,-0.03277c0.02032,0.08996 0.04867,0.19975 0.07902,0.32239c0.43919,0.33814 0.47352,1.02832 -0.17475,2.24194c-0.01807,0.13678 -0.08383,0.40634 -0.32313,0.557c-0.27031,0.43311 -1.17148,0.35016 -2.30025,0.01884c-0.14135,0.01613 -0.28701,0.01303 -0.43618,-0.01207c-0.46113,-0.0776 -0.77617,-0.25255 -0.99127,-0.48348c-0.32685,-0.12759 -0.65833,-0.26495 -0.98718,-0.40726c-2.57726,0.96079 -5.34073,2.23611 -3.22452,-0.96225c-0.16926,-0.01144 -0.35012,-0.02138 -0.5446,-0.02837l-0.76207,-0.74987l0.03678,-0.03493c0.43443,-0.40515 0.93324,-0.61345 1.47001,-0.70531c0.21967,0.00148 0.44411,0.00473 0.66681,0.01769l0.08475,-0.07832c0.34121,-0.00166 0.69186,0.02577 1.04617,0.06465c0.02615,-0.08357 0.0523,-0.16715 0.07845,-0.25072l0.50512,0.16203c0.73832,-0.43235 1.48457,-0.84425 2.16773,-1.14487c0.03244,0.02607 0.06484,0.05359 0.09719,0.0826c0.05469,0.04905 0.10204,0.18931 0.14392,0.38425c0.01369,-0.00776 0.02739,-0.01551 0.04109,-0.02327c0.04909,-0.19992 0.08241,-0.4084 0.12321,-0.61127c0.09368,-0.03605 0.18577,-0.06945 0.27607,-0.09992c0.472,-0.1593 1.00366,-0.6334 1.44124,-0.39531c0.28881,0.15715 0.48079,0.43505 0.62052,0.75201l0.01047,-0.02718c0.08939,0.15857 0.17092,0.32242 0.24464,0.49048c-0.02075,0.02799 -0.04203,0.05603 -0.06383,0.08409c0.03644,0.12776 0.06888,0.25464 0.09976,0.37611c0.02542,0.09994 0.04212,0.20641 0.05057,0.31776c0.04344,0.05344 0.0843,0.11682 0.11389,0.18972l0.12515,-0.01438c0.01003,0.0396 0.01969,0.0793 0.02897,0.1191c0.12851,0.04181 0.24117,0.09809 0.33525,0.17053c0.15355,0.62051 0.35815,1.57003 -0.1684,1.94515l0.0005,0.21219c0,0 0,0.03277 -0.00685,0.0846zM214.87266,181.73583c-0.0124,0.00082 -0.02434,-0.01602 -0.03598,-0.04784c0.14046,-0.02447 0.27274,-0.04054 0.39516,-0.04662c-0.0906,0.05102 -0.20777,0.08443 -0.35918,0.09446zM215.83692,181.73929c-0.15248,-0.08187 -0.35879,-0.11015 -0.60508,-0.09793c0.1548,-0.08718 0.23207,-0.22577 0.27012,-0.38702c-0.11913,0.02279 -0.24335,0.04545 -0.37197,0.06768c-0.03402,0.00665 -0.06858,0.01254 -0.10379,0.01768c-0.08203,0.01377 -0.16572,0.02733 -0.2509,0.04061c0.01998,0.14162 0.04016,0.2496 0.06139,0.30767c-0.28195,0.04912 -0.59682,0.13206 -0.93085,0.2358c1.08655,0.80719 2.04113,1.44191 2.19868,0.63876c-0.09996,-0.0327 -0.19549,-0.07368 -0.28441,-0.12294c-0.17577,-0.09738 -0.08229,-0.41067 0.01681,-0.7003zM212.92206,179.92891c-0.05739,0.00208 -0.12473,0.01682 -0.20374,0.04576l0.06177,0.01981c0.04773,-0.02166 0.09504,-0.04352 0.14197,-0.06557z" fill="#f26400" stroke-width="0.5"/><path d="M215.01179,181.54974c-0.02793,-0.07003 -0.04602,-0.13582 -0.05596,-0.19753l-0.87143,0.1278c-0.03964,0.00647 -0.08033,0.00984 -0.1218,0.00984c-0.41421,0 -0.75,-0.33579 -0.75,-0.75c0,-0.37171 0.27041,-0.68026 0.62524,-0.73967l0.76283,-0.14264l0.00067,0.00357l0.00677,-0.00492c0.03453,-0.00543 0.06945,-0.01079 0.10473,-0.01602c-0.03797,-0.16604 -0.02411,-0.31958 0.09081,-0.452c0.13239,-0.15255 0.30086,-0.24956 0.48936,-0.31574l-0.05646,-0.14153l0.71161,-0.28387c0.0902,-0.03842 0.18947,-0.05969 0.2937,-0.05969c0.41421,0 0.75,0.33579 0.75,0.75c0,0.08929 -0.0156,0.17494 -0.04423,0.25436l-0.03609,0.10798h0.10624c0.41421,0 0.75,0.33579 0.75,0.75c0,0.23182 -0.10517,0.43907 -0.2704,0.57664l-0.01698,0.01433c-0.04917,0.10854 -0.13566,0.21691 -0.2774,0.31531c-0.08323,0.05778 -0.16302,0.09651 -0.23878,0.12028l-0.09317,0.07863l-0.04278,-0.0507c-0.13793,0.01333 -0.25906,-0.02082 -0.35899,-0.07187l-0.48294,0.53618c0,0 -0.69662,0.27789 -0.97451,-0.41872z" fill="#f2ce00" stroke-width="0.5"/></g></g></svg>