<svg version="1.1" xmlns="http://www.w3.org/2000/svg" xmlns:xlink="http://www.w3.org/1999/xlink" width="280.23377" height="104.69471" viewBox="0,0,280.23377,104.69471"><g transform="translate(-101.25133,-120.89142)"><g stroke-miterlimit="10"><g stroke-linecap="butt"><path d="M123.50133,215.5v-71h187v71z" fill="#8e8e8e" stroke="#000000" stroke-width="5"/><path d="M311.64933,144.86621l64.59934,34.44663l-63.89603,35.36658z" fill="#8e8e8e" stroke="#000000" stroke-width="5"/><path d="M302.58307,209.62719c0.18251,-2.0131 1.71058,-2.41235 2.50752,-2.48258c-0.00267,-0.25592 0.00903,-0.51929 0.03605,-0.78988c0.02848,-0.28518 0.21095,-0.68726 0.50455,-1.15163c-0.0507,-0.06789 -0.10076,-0.13801 -0.15022,-0.21032c-0.03907,0.02166 -0.07685,0.04252 -0.11333,0.06257l-2.92021,1.64606c-0.40856,0.24053 -0.88474,0.37849 -1.39315,0.37849c-1.51878,0 -2.75,-1.23121 -2.75,-2.75c0,-0.69365 0.25681,-1.32731 0.68055,-1.8111l2.44769,-2.82644l0.13653,0.11822c0.19101,-0.26122 0.40174,-0.50844 0.63684,-0.73834c0.29384,-0.28734 0.64587,-0.45868 1.03327,-0.56023c-0.45984,-2.43929 -0.73744,-5.20802 -0.847,-7.97705c-0.21395,-0.2701 -0.4124,-0.56885 -0.59363,-0.89815c-0.70475,-1.2806 -0.46199,-2.65545 0.30585,-4.05494c-3.06289,-4.08512 -2.43987,-11.57347 0.70343,-16.40111c-0.17892,-1.62532 -0.31577,-3.16666 -0.39783,-4.58677l-0.32825,-0.69835c-0.18295,-0.36817 -0.28582,-0.78315 -0.28582,-1.22216c0,-0.6107 0.19907,-1.17491 0.53585,-1.63127c0.0542,-2.23342 0.35098,-3.89969 0.9792,-4.73847c1.85444,-2.47601 3.42697,-3.50172 4.73005,-3.52444l0.03516,-0.17579l-0.05492,-0.02353c-0.38236,-0.02034 -0.78368,-0.01557 -1.18659,0.00337c0,0 -2.75,0 -2.75,-2.75c0,-2.75 2.75,-2.75 2.75,-2.75c3.69218,0.10086 7.97862,1.05453 9.30558,5.30964c0.39243,1.25839 -0.17934,2.6302 -0.26901,3.94531l-0.09459,0.14721l0.05924,0.01481l-0.65272,2.61086c-0.11052,0.48704 -0.35032,0.92499 -0.68142,1.27585c0.00792,0.00194 0.01586,0.0039 0.02382,0.0059c2.66746,0.66868 1.99879,3.33614 1.99879,3.33614c-0.12428,0.49302 -0.26308,1.29829 -0.42784,2.32267c0.0505,0.18933 0.09943,0.37955 0.14675,0.57039c4.53626,3.09674 5.37778,9.0029 4.46339,14.82307c0.68606,-0.11534 1.32261,-0.10157 1.8883,0.08757c0.62424,-0.16804 1.25876,-0.33974 1.90169,-0.5231l0.30929,0.08281l-0.00695,-0.11756l2.57925,-0.15251c0.06164,-0.00413 0.12383,-0.00623 0.18651,-0.00623c1.51878,0 2.75,1.23121 2.75,2.75c0,0.8204 -0.35925,1.5569 -0.92902,2.06076l-2.29516,2.04799c-0.87494,1.36205 -1.8635,2.66956 -3.38179,4.29583c-0.42031,0.45021 -0.84546,0.91152 -1.29549,1.34208c1.01545,0.00356 2.12222,0.25526 3.39319,0.88185c5.92998,2.92348 3.73362,6.11414 -0.09442,8.84417c-1.00455,0.71642 -2.38052,0.65859 -3.59071,0.89903c-1.80491,0.3586 -3.64012,0.56601 -5.47776,0.73856c0.89079,1.02994 0.52563,2.49055 0.52563,2.49055c-0.41364,1.26091 -0.32742,2.82015 -1.24091,3.78271c-1.96708,2.07274 -4.90981,2.4613 -7.23275,1.50931c-0.47212,0.07274 -0.97666,0.15283 -1.51789,0.26111l-2.10415,-0.10584c0,0 -2.73876,-0.2483 -2.49046,-2.98707z" fill="#8e8e8e" stroke="none" stroke-width="0.5"/><path d="M103.75133,201.5v-42.5h19.5v42.5z" fill="#4b4b4b" stroke="#000000" stroke-width="5"/></g><g><path d="M144.40968,190.09032v-29.75699h29.75699v29.75699z" fill="#6b6b6b" stroke="#000000" stroke-width="2.5" stroke-linecap="butt"/><path d="M155.31075,206v-25.33763h8.24946v25.33763z" fill="#6b6b6b" stroke="#000000" stroke-width="2.5" stroke-linecap="butt"/><path d="M151.48065,188.91183v-11.49032h19.15054v11.49032z" fill="#6b6b6b" stroke="none" stroke-width="0" stroke-linecap="butt"/><path d="M149.12365,190.67957l5.30323,7.36559" fill="none" stroke="#000000" stroke-width="2.5" stroke-linecap="round"/><path d="M169.45269,190.9742l-5.59785,7.66021" fill="none" stroke="#000000" stroke-width="2.5" stroke-linecap="round"/></g><g><path d="M274.40968,190.09033v-29.75699h29.75698v29.75699z" fill="#6b6b6b" stroke="#000000" stroke-width="2.5" stroke-linecap="butt"/><path d="M285.31075,206v-25.33764h8.24946v25.33764z" fill="#6b6b6b" stroke="#000000" stroke-width="2.5" stroke-linecap="butt"/><path d="M281.48064,188.91183v-11.49032h19.15054v11.49032z" fill="#6b6b6b" stroke="none" stroke-width="0" stroke-linecap="butt"/><path d="M279.12366,190.67957l5.30322,7.36559" fill="none" stroke="#000000" stroke-width="2.5" stroke-linecap="round"/><path d="M299.45269,190.9742l-5.59785,7.66021" fill="none" stroke="#000000" stroke-width="2.5" stroke-linecap="round"/></g><g><path d="M206.40968,190.95171v-33.75699h33.75699v33.75699z" fill="#525252" stroke="#000000" stroke-width="2.5" stroke-linecap="butt"/><path d="M218.7761,209v-28.74358h9.35838v28.74358z" fill="#525252" stroke="#000000" stroke-width="2.5" stroke-linecap="butt"/><path d="M214.43114,189.61479v-13.03487h21.7248v13.03487z" fill="#525252" stroke="none" stroke-width="0" stroke-linecap="butt"/><path d="M217.77342,199.97585l-6.0161,-8.35569" fill="none" stroke="#000000" stroke-width="2.5" stroke-linecap="round"/><path d="M234.81902,191.9544l-6.35032,8.68991" fill="none" stroke="#000000" stroke-width="2.5" stroke-linecap="round"/></g><path d="M142.84923,219.60774v-3.40712h32.36762v3.40712z" fill="#393939" stroke="#000000" stroke-width="2" stroke-linecap="butt"/><path d="M206.19613,220.34885v-3.40712h32.36763v3.40712z" fill="#393939" stroke="#000000" stroke-width="2" stroke-linecap="butt"/><path d="M274.22782,218.9605v-3.40712h32.36762v3.40712z" fill="#393939" stroke="#000000" stroke-width="2" stroke-linecap="butt"/><path d="M302.84875,132.07184l0.74724,-3.16714c0.4821,-2.25768 2.48819,-3.9508 4.88974,-3.9508c2.37844,0 4.369,1.6607 4.8754,3.8858l0.75044,2.99363l-0.22152,0.05553c0.0688,0.12083 0.13483,0.24225 0.19799,0.3645c1.09006,-1.48954 2.05553,-3.06384 2.69299,-4.776l1.11284,-3.14444c0.65492,-1.99828 2.53508,-3.4415 4.75233,-3.4415c2.76142,0 5,2.23858 5,5c0,0.3504 -0.03604,0.69239 -0.10463,1.02245l-1.14535,6.09186l-0.34534,-0.06493c0.00252,0.34025 -0.00532,0.68092 -0.02493,1.02208c0.44443,-0.17202 0.90935,-0.35889 1.39605,-0.56666l2.68518,-1.42819c0.71985,-0.40149 1.54919,-0.63026 2.43195,-0.63026c2.76142,0 5,2.23858 5,5c0,0.29754 -0.02599,0.58901 -0.07582,0.87227l-0.56763,3.58519l-0.44514,-0.07048c-0.03575,0.7125 -0.14571,1.41591 -0.36284,2.10619c-0.1525,0.48482 -0.43012,0.88217 -0.7886,1.22124c2.99855,2.85574 6.82681,9.27685 3.13318,13.33773c-2.01248,2.21257 -5.69418,3.2425 -9.26439,3.29459c-0.27486,2.50156 -2.39508,4.44774 -4.96985,4.44774c-0.69489,0 -1.35666,-0.14175 -1.95799,-0.39792l-1.5949,-0.63622c0.01161,0.85269 0.01502,1.70537 0.01586,2.55712l-0.07777,0.13498l0.07197,0.00401l-0.19214,3.44921c-0.12784,2.64754 -2.31488,4.75481 -4.99409,4.75481c-2.43149,0 -4.45761,-1.73561 -4.90706,-4.03552l-0.13272,-0.61216c-0.59746,0.25228 -1.25417,0.39176 -1.94347,0.39176c-2.76142,0 -5,-2.23858 -5,-5c0,-0.03 0.00026,-0.05994 0.00079,-0.08982l-1.57785,0.62942c-0.60133,0.25617 -1.26312,0.39793 -1.95801,0.39793c-2.76142,0 -5,-2.23858 -5,-5c0,-0.90582 0.24088,-1.75539 0.66207,-2.48813c-0.29748,-0.30196 -0.55685,-0.64157 -0.77032,-1.01102c-1.25346,-0.06717 -2.41933,-0.25996 -3.43213,-0.62764c-0.14184,-0.05149 -0.28213,-0.10603 -0.42097,-0.16341l-0.01917,0.09133l-3.59225,-0.75421c-2.31502,-0.43745 -4.06595,-2.4707 -4.06595,-4.91291c0,-2.25061 1.48698,-4.15391 3.53208,-4.78106l2.71781,-0.90347c1.20712,-0.45834 2.43071,-0.8924 3.66779,-1.28816l-0.01708,-0.34058l-0.46366,0.17435l-1.12334,-2.98741c-0.2325,-0.57702 -0.36047,-1.20738 -0.36047,-1.86763c0,-2.76142 2.23858,-5 5,-5c0.72607,0 1.41599,0.15476 2.03858,0.43309l3.58559,1.50561c0.25323,-1.5757 0.5778,-3.14053 0.95954,-4.68676z" fill="#ff0000" stroke="none" stroke-width="0.5" stroke-linecap="butt"/><path d="M136.59004,197.8955c3.43224,-1.15706 11.56275,-1.78548 13.95183,2.80171c1.38106,2.65172 1.91635,6.24653 0.63329,8.94703c-0.71329,1.50129 -2.6485,1.77541 -4.4513,2.10452c1.21392,4.09081 1.3175,9.56737 -4.49573,10.65543c-1.24535,0.23309 -3.00977,-0.1114 -4.74898,-0.87847c-2.25093,1.8044 -4.94111,3.00694 -8.32386,3.49897c-4.47094,0.65031 -11.71461,2.14732 -12.64168,-5.59781c-0.13251,-1.10705 3.00584,-6.16167 5.63037,-9.97285c-0.91118,-0.68462 -1.60078,-1.47781 -1.69105,-2.56461c-0.03993,-0.48071 0.24085,-1.41414 0.75843,-2.50048c-0.29139,-0.63449 -0.45386,-1.34047 -0.45386,-2.0844c0,-2.76142 2.23858,-5 5,-5c0.28872,0 0.57173,0.02447 0.84706,0.07145l4.95466,0.76018l-0.03126,0.20378c0.18236,-0.03219 0.36472,-0.06437 0.54708,-0.09656l0.40878,0.40538l0.09288,-0.24448l2.45173,0.93145c0.423,-0.63008 0.87505,-1.20879 1.56159,-1.44024zM130.79869,214.07325c-0.05713,0.0988 -0.11301,0.1985 -0.16792,0.29887c0.10704,-0.06356 0.21011,-0.12689 0.30947,-0.19008c-0.04805,-0.03546 -0.09526,-0.0717 -0.14156,-0.10879z" fill="#ff0000" stroke="none" stroke-width="0.5" stroke-linecap="butt"/><path d="M306.7379,161.08881c-0.20784,-0.83363 -0.23673,-1.55974 -0.14202,-2.19065c-1.39873,-0.0355 -2.774,-0.18567 -3.93898,-0.27142l-0.36644,-0.31813l-0.05776,0.23168l-3.00231,-0.74853c-2.22811,-0.50418 -3.89179,-2.49618 -3.89179,-4.87676c0,-2.76142 2.23858,-5 5,-5h2.97993c0.33669,-0.07863 0.69522,-0.13798 1.08832,-0.17824l-0.31502,-3.61273c-0.01598,-0.16273 -0.02416,-0.32775 -0.02416,-0.49468c0,-2.76142 2.23858,-5 5,-5c0.3297,0 0.65195,0.03191 0.96383,0.09282c0.72573,-1.86571 2.53923,-3.18803 4.66157,-3.18803c1.63977,0 3.09517,0.78935 4.00696,2.0088c0.50761,-0.17356 1.05202,-0.26774 1.61844,-0.26774c2.76142,0 5,2.23858 5,5c0,0.33083 -0.03213,0.65415 -0.09344,0.96702l-0.16205,0.91577l1.47055,-0.09777c0.1255,-0.00944 0.2523,-0.01424 0.38022,-0.01424c2.76142,0 5,2.23858 5,5c0,2.54714 -1.90464,4.64943 -4.3674,4.96036l-2.16386,0.30828c-1.28758,0.56947 -2.49418,1.71106 -3.8827,1.56741c-0.17503,-0.01811 -0.34941,-0.03942 -0.52319,-0.06372c0.13524,0.90754 0.11511,1.91205 -0.09327,3.02325c-0.42531,2.2679 -3.31589,3.20967 -4.97383,4.8145l-3.1105,1.07465c0,0 -4.85149,1.20958 -6.06107,-3.64191z" fill="#ff7b00" stroke="none" stroke-width="0.5" stroke-linecap="butt"/><path d="M121.9214,211.91751c0,-0.46766 0.0642,-0.92032 0.18428,-1.34966c-0.08348,-4.62487 5.16986,-5.74914 9.44248,-5.89021c3.15387,-0.7041 7.07428,-1.22425 9.43077,0.86793c2.1612,1.91879 1.65143,5.92271 0.67746,8.64372c-0.65313,1.82465 -1.99971,3.06227 -3.69518,3.78997c-0.00267,0.0021 -0.00534,0.00419 -0.00801,0.00628l-0.03916,0.05969c-0.02218,0.00672 -0.04435,0.01364 -0.0665,0.02076c-0.61036,0.45208 -1.32728,0.76848 -2.10617,0.90462c-0.48137,0.1748 -0.96673,0.27193 -1.46203,0.17595c-0.16263,-0.03151 -0.32465,-0.06526 -0.48608,-0.10108h-0.07109l0.01465,0.17627l-4.59737,0.38207c-0.15545,0.01456 -0.31297,0.02201 -0.47223,0.02201c-2.34437,0 -4.3119,-1.61346 -4.85273,-3.79054c-1.15343,-0.91594 -1.89307,-2.33048 -1.89307,-3.91778z" fill="#ff7b00" stroke="none" stroke-width="0.5" stroke-linecap="butt"/><path d="M316.76787,154.39829c-1.10236,1.02155 -2.22636,2.01949 -3.38966,2.96982c0,0 -2.9055,2.37077 -5.27627,-0.53473c-1.81992,-2.2304 -0.53061,-4.1457 0.16678,-4.91533c-0.70108,-2.73557 2.0352,-4.10002 2.0352,-4.10002l2.69222,-0.92462l0.10639,-0.27585c0.51976,-1.44723 1.90416,-2.48228 3.53031,-2.48228c2.07107,0 3.75,1.67893 3.75,3.75c0,0.47451 -0.08813,0.92843 -0.24892,1.3463l-0.94055,2.62634l-0.8026,-0.28743c-0.02787,0.26275 -0.06832,0.52255 -0.12391,0.7788l0.49655,0.16025c-0.25233,0.24274 -0.50525,0.48499 -0.75898,0.72645c-0.05467,0.14274 -0.11538,0.28406 -0.18264,0.42385c-0.21058,0.43766 -0.5875,0.64895 -1.05391,0.73846z" fill="#ffc500" stroke="none" stroke-width="0.5" stroke-linecap="butt"/><path d="M134.48657,210.10202c0.26602,0 0.52557,0.0277 0.77592,0.08037c0.25035,-0.05267 0.5099,-0.08037 0.77592,-0.08037c2.07107,0 3.75,1.67893 3.75,3.75c0,2.07107 -1.67893,3.75 -3.75,3.75c-0.25719,0 -0.50833,-0.02589 -0.75097,-0.07521c-0.62707,1.19475 -1.87966,2.00972 -3.3226,2.00972c-2.07107,0 -3.75,-1.67893 -3.75,-3.75c0,-1.794 1.25977,-3.29377 2.94294,-3.66294c0.62499,-1.20121 1.88109,-2.02157 3.32879,-2.02157z" fill="#ffc500" stroke="none" stroke-width="0.5" stroke-linecap="butt"/></g></g></svg>