<svg version="1.1" xmlns="http://www.w3.org/2000/svg" xmlns:xlink="http://www.w3.org/1999/xlink" width="55.70888" height="39.53959" viewBox="0,0,55.70888,39.53959"><g transform="translate(-217.31689,-160.619)"><g stroke="none" stroke-width="0.5" stroke-miterlimit="10"><path d="M242.61346,197.94587c-0.35787,0 -0.69288,-0.09793 -0.97966,-0.26847c-0.62019,1.41444 -2.16326,3.28025 -4.20271,1.68086c-0.39342,-0.30853 -0.88539,-1.62841 -1.13566,-3.04805c-0.94855,1.45879 -2.22338,3.07543 -3.33591,2.84441c-0.83211,-0.17279 -1.25939,-0.91903 -1.59641,-1.7931c-0.68053,0.69089 -1.34162,1.41166 -2.15298,1.93422c-2.24179,1.44384 -7.9022,1.39174 -6.3694,-2.63236c-0.61128,-0.10551 -1.21552,-0.29784 -1.82417,-0.41892c-1.84758,-0.36755 -2.65266,-0.21085 -3.33254,-2.55367c-0.25298,-0.87175 -0.52463,-2.0427 0.0774,-2.72205c0.89219,-1.00678 2.45346,-1.11154 3.72046,-1.5636c0.16845,-0.0601 0.33933,-0.12261 0.5121,-0.17986c-0.28561,-0.84936 -0.44023,-1.75312 -0.87379,-2.5347c-0.53812,-0.97006 -1.47561,-1.80176 -1.63276,-2.89989c-0.08661,-0.6052 0.13322,-1.19056 0.37839,-1.77427l-0.76508,-0.85547l0.03155,-0.02822c-0.03327,-0.01599 -0.06615,-0.03295 -0.09861,-0.05098c-0.34197,-0.1899 -0.45847,-0.63325 -0.68534,-0.95255l-0.62107,-0.8052c-0.25704,-0.32654 -0.41038,-0.73852 -0.41038,-1.18633c0,-1.06013 0.8594,-1.91953 1.91953,-1.91953c0.34825,0 0.67485,0.09274 0.95643,0.25487c-0.14177,-0.28815 -0.28277,-0.57665 -0.42738,-0.8629c-0.67695,-1.34002 -1.71512,-3.46615 0.14145,-4.80836c1.56101,-1.12854 4.56609,1.29039 6.634,3.56905c-0.15654,-1.01425 -0.22777,-1.82702 -0.19906,-1.85541c0.16741,-0.16557 0.3401,-0.30653 0.51739,-0.42452c0.14367,-0.91804 0.93799,-1.62037 1.89636,-1.62037c0.28297,0 0.55163,0.06123 0.79346,0.17115l1.32082,0.56452l-0.02303,0.05389c0.07604,0.01471 0.15187,0.03076 0.22748,0.04829c0.03484,0.00808 0.06919,0.01704 0.10304,0.02684c-0.12686,-0.77674 -0.26332,-1.55296 -0.43382,-2.32498c-0.39845,-1.8042 -1.01585,-3.21163 -1.03295,-5.08324l-0.24631,-0.73892c-0.07293,-0.20285 -0.11268,-0.42154 -0.11268,-0.64952c0,-1.06013 0.8594,-1.91953 1.91953,-1.91953c0.76628,0 1.42769,0.44901 1.73548,1.09828l0.64907,1.29813l-0.04789,0.02394c0.0351,0.03298 0.06991,0.06627 0.10442,0.09992c0.27097,0.2642 0.22982,0.72152 0.36282,1.07583c0.32437,0.86403 0.80169,1.87364 1.04207,2.79421c0.07918,0.30323 0.01729,0.64787 0.16122,0.92625c0.13367,0.2585 0.4853,0.35184 0.63014,0.60426c0.34975,0.60952 0.58893,1.37557 0.80668,2.12575c0.13938,-0.41074 0.27837,-0.82156 0.39614,-1.23667l0.05001,-0.06274l-0.02311,-0.00917l1.21386,-3.05826c0.2709,-0.73155 0.97488,-1.25298 1.80064,-1.25298c0.70293,0 1.31761,0.37784 1.65204,0.94151c0.28473,-0.70353 0.97443,-1.19983 1.78005,-1.19983c0.66458,0 1.25028,0.33774 1.59482,0.85093l0.07432,-0.10254c0.34758,-0.49183 0.92062,-0.81297 1.56867,-0.81297c1.02339,0 1.85974,0.80087 1.91646,1.81008l0.10344,1.59887c0.72401,-0.25764 1.51239,-0.25647 2.27217,0.17997c0.26432,0.15183 0.46501,0.3275 0.61289,0.52071c1.20284,-0.94114 3.10375,-2.1924 4.3526,-1.46241c2.55926,1.49599 1.16871,4.32861 -0.09721,6.45982c-0.01463,0.08656 -0.03586,0.16877 -0.06245,0.24671c0.15359,-0.0092 0.30424,-0.0154 0.45128,-0.01825c0.38858,-0.26406 0.77414,-0.53305 1.16392,-0.79434c0.43276,-0.2901 0.84512,-0.60952 1.26747,-0.91458l1.51699,-1.19769c0.32899,-0.2646 0.74707,-0.42296 1.20214,-0.42296c1.06013,0 1.91953,0.8594 1.91953,1.91953c0,0.34462 -0.09081,0.66802 -0.24981,0.94758l-0.82477,1.5185l-0.00545,-0.00296c-0.00168,0.00737 -0.00338,0.01473 -0.00508,0.02208c-0.01443,0.06222 -0.10713,0.27784 -0.25149,0.54905c0.0414,-0.01094 0.08223,-0.02323 0.12239,-0.03709c2.13439,-0.73652 2.72853,-1.2484 4.39298,-2.36207l0.73002,-0.54603c0.32312,-0.24723 0.72709,-0.39411 1.16537,-0.39411c1.06013,0 1.91953,0.8594 1.91953,1.91953c0,0.46336 -0.16418,0.88837 -0.43754,1.22004l-1.64498,2.02904c0.06586,-0.00085 0.13175,-0.00076 0.19766,0.00036c0.99735,0.01703 3.40173,0.78745 3.62521,1.71997c0.58932,2.45921 -0.91549,3.37695 -2.54488,3.93308c0.17287,0.11748 0.35347,0.21773 0.54818,0.28559l0.01651,0.01479l0.00286,-0.00717l1.57736,0.62923c0.72991,0.27175 1.24985,0.9749 1.24985,1.79948c0,0.90028 -0.61978,1.65581 -1.45594,1.86317l-1.38444,0.37655l-0.01319,-0.04849c-0.24713,0.10342 -0.49781,0.17612 -0.74805,0.20436c0.60562,1.33349 0.57695,2.76457 -1.07728,3.76563c-0.75824,0.45885 -1.97977,0.80189 -2.93945,0.6782c0.10363,0.40528 -0.07757,0.97065 -0.89608,1.72091c-1.97344,1.80885 -3.15494,1.49432 -4.96992,0.24241c-0.13273,-0.09155 -0.31875,-0.24055 -0.4822,-0.40161c-0.44218,0.68475 -1.21031,1.54809 -1.25727,1.55318c-2.15706,0.23352 -2.94868,-0.38349 -3.47827,-1.40771c-0.45513,0.76647 -1.33179,1.47846 -2.03514,1.55327c-0.19514,0.02076 -1.895,-0.54283 -2.74348,-1.37354c-0.66403,0.97322 -2.05756,2.17083 -3.39127,2.16934c-0.65398,-0.00073 -1.20614,-0.12776 -1.66275,-0.35566c-0.18437,0.86767 -0.95497,1.51859 -1.8776,1.51859zM221.26342,192.48569c0.01682,-0.02259 0.0316,-0.04441 0.04345,-0.06515c0.01566,-0.02742 -0.01554,0.01473 -0.04345,0.06515z" fill="#dc0000"/><path d="M252.00161,189.52366c-0.24768,0.56136 -1.21357,0.95876 -1.56439,1.07424c-0.78647,0.25891 -1.67618,0.56105 -2.46474,0.30858c-0.12665,-0.04055 -0.24245,-0.0991 -0.35018,-0.17101c-0.36447,0.50351 -0.73395,1.00338 -1.10018,1.50562l-0.19868,0.079l0.05735,0.06326l-0.70725,0.64119c-0.3413,0.31184 -0.79562,0.50204 -1.29436,0.50204c-0.30182,0 -0.58737,-0.06966 -0.84145,-0.19378c-0.55828,0.35454 -1.1302,0.59149 -1.40217,0.61428c-0.8378,0.07021 -1.65333,-0.25678 -2.47499,-0.4745c-1.38081,0.90469 -3.46977,1.12504 -4.55966,0.33991c-0.63634,-0.4584 -0.80011,-1.32945 -1.11663,-2.06712l-1.02482,-0.57653c-0.79143,1.43583 -1.92328,2.11107 -3.61767,2.61327c-0.41058,0.12169 -0.84576,0.36703 -1.25912,0.25512c-0.08339,-0.02258 -0.16609,-0.04708 -0.24817,-0.0733l-0.00402,0.07665l-1.21841,-0.06395c-1.01897,-0.04633 -1.83088,-0.88711 -1.83088,-1.91752c0,-0.67777 0.35127,-1.2735 0.8817,-1.61505l0.85847,-0.57075c0.3573,-0.32427 0.68495,-0.61808 1.0016,-0.9249c-0.54442,-0.61293 -0.51954,-1.60844 0.25463,-3.25051c0.05353,-0.11352 0.112,-0.22317 0.17513,-0.32908c-0.55637,-0.27252 -1.02415,-0.61749 -1.22537,-1.11488c-0.38227,-0.94496 -0.38122,-1.65605 -0.14199,-2.20865c-0.61185,-1.18022 -0.95132,-2.44005 -0.36606,-3.76932c0.33063,-0.75095 2.38482,-0.73297 3.88998,-0.6122c-0.00403,-0.18097 0.01279,-0.29865 0.01279,-0.29865c0.15896,-1.11268 0.2716,-4.36677 1.66642,-4.67335c0.95411,-0.20971 1.93461,0.34354 2.78205,0.93259c0.31783,-1.03834 0.7895,-2.25338 0.93158,-2.6439l0.13918,-0.69592c0.16113,-0.89717 0.94568,-1.57795 1.88923,-1.57795c0.82394,0 1.52664,0.51913 1.79884,1.24815l0.31723,0.79306l-0.03577,0.01431c0.02721,0.03551 0.05387,0.0715 0.07996,0.108c0.28913,0.4047 0.31737,0.93733 0.37811,1.44196c0.24009,-0.13786 0.48013,-0.27583 0.71781,-0.41751l1.07724,1.16983c0.29674,-0.18799 0.64859,-0.29683 1.02586,-0.29683c0.82494,0 1.52835,0.52039 1.79984,1.2508l0.71314,-0.37106c0.16244,-0.08876 0.33913,-0.15473 0.52575,-0.1936c0.12094,-0.31233 0.25167,-0.61434 0.51095,-0.80225c2.95813,-2.14385 4.09878,-0.67264 4.53531,1.79888c0.87468,0.05392 1.59088,0.69362 1.76113,1.53163c0.25161,-0.04322 0.50189,-0.09285 0.75036,-0.14891l0.82603,-0.32951c0.23086,-0.09835 0.48492,-0.15277 0.75169,-0.15277c1.06013,0 1.91953,0.8594 1.91953,1.91953c0,0.39102 -0.11692,0.75475 -0.31771,1.0581c0.1483,0.19336 0.28209,0.40028 0.3994,0.61907c0.1047,0.19529 -0.14965,0.59158 -0.34808,0.86118c0.01392,0.02047 0.02745,0.04122 0.04059,0.06224c2.48144,-2.10552 5.47675,-1.52942 5.60346,2.10677c0.18635,-0.00204 0.36527,0.02691 0.5296,0.11547c0.1224,0.06596 0.24008,0.13858 0.35387,0.21665l0.04231,-0.10606l0.9298,0.37091c0.72991,0.27175 1.24985,0.9749 1.24985,1.79948c0,0.8745 -0.58478,1.61241 -1.38463,1.84401l-1.17907,0.37133c-0.63912,0.21011 -1.24528,0.63219 -1.91785,0.6271c-0.06587,-0.00049 -0.13168,-0.00189 -0.19742,-0.0041l0.00432,0.03681l-1.27651,0.14977c-0.25824,0.53832 -0.7601,0.93757 -1.36272,1.0549c0.16248,0.2818 0.25545,0.60875 0.25545,0.95742c0,1.06013 -0.8594,1.91953 -1.91953,1.91953c-0.44611,0 -0.85668,-0.15218 -1.18262,-0.40747l-0.81462,-0.62492c-0.91178,-0.19598 -1.74369,-0.4462 -2.48978,-0.77481z" fill="#ff5600"/><path d="M237.48073,178.66595c-0.00484,-0.05557 -0.00731,-0.11182 -0.00731,-0.16864c0,-1.06013 0.8594,-1.91953 1.91953,-1.91953c0.49039,0 0.93783,0.1839 1.27713,0.48648l0.2163,-0.56624c0.26443,-0.74384 0.97459,-1.27642 1.80914,-1.27642c1.06013,0 1.91953,0.8594 1.91953,1.91953c0,0.05906 -0.00267,0.1175 -0.00789,0.17519l-0.04704,0.58642c0.31414,-0.2243 0.69875,-0.35627 1.11418,-0.35627c0.30204,0 0.58778,0.06976 0.84199,0.19404l0.9813,-0.06117l0.00042,0.00684l0.01148,-0.00754c0.43034,-0.02145 0.88444,-0.20701 1.291,-0.06441l0.93701,-0.06229c0.04819,-0.00362 0.09686,-0.00547 0.14597,-0.00547c0.57137,0 1.08443,0.24964 1.43607,0.6458c0.32047,0 1.54273,0 1.54273,0c1.06013,0 1.91953,0.8594 1.91953,1.91953c0,0.9817 -0.73695,1.79128 -1.68781,1.90569l-0.39087,0.05316c0.51173,0.34478 0.84831,0.92961 0.84831,1.59305c0,0.90392 -0.6248,1.66191 -1.46609,1.86566l-0.93145,0.24772l-0.01993,-0.07497c-0.51406,0.25246 -1.06788,0.33936 -1.83267,0.15594c0.0089,0.19241 0.00133,0.39172 0.01391,0.5826h0.02708v0.83954c0,1.06013 -0.8594,1.91953 -1.91953,1.91953c-0.47741,0 -0.91411,-0.17428 -1.24995,-0.4627l-1.28639,-1.09046l0.02465,-0.02908c-0.02932,-0.01695 -0.05852,-0.0341 -0.08761,-0.05149c-0.08422,0.23675 -0.19669,0.45276 -0.38568,0.60978c-0.76221,0.63327 -1.71051,1.42499 -2.68893,1.26789c-1.44365,-0.23179 -2.29775,-1.21662 -2.46134,-2.34771c-0.03896,0.02694 -0.07699,0.05467 -0.11375,0.0835l-0.64252,-0.22358l-0.01594,0.30379l-1.2184,-0.06395c-0.69373,-0.03154 -1.29148,-0.43131 -1.6024,-1.00846c-1.48716,-0.31965 -1.49772,-0.51617 -2.64394,-1.39914l-1.01794,-0.65688c-0.54357,-0.33894 -0.90528,-0.94223 -0.90528,-1.63c0,-1.06013 0.8594,-1.91953 1.91953,-1.91953h1.0672c0.0888,-0.97769 0.91075,-1.74366 1.91159,-1.74366c0.26677,0 0.52083,0.05443 0.75169,0.15276l0.7516,0.29982z" fill="#ffdd00"/></g></g></svg>