<svg version="1.1" xmlns="http://www.w3.org/2000/svg" xmlns:xlink="http://www.w3.org/1999/xlink" width="220.54709" height="97.1704" viewBox="0,0,220.54709,97.1704"><g transform="translate(-129.72645,-131.00911)"><g stroke-miterlimit="10"><path d="M347.77355,180c0,12.24814 -46.16154,22.17723 -103.10465,22.17723c-56.94312,0 -103.10466,-9.92908 -103.10466,-22.17723c0,-12.24814 46.16154,-22.17723 103.10466,-22.17723c56.94312,0 103.10466,9.92908 103.10466,22.17723z" fill="#5a5a5a" stroke="#464646" stroke-width="5" stroke-linecap="butt"/><path d="M225.60427,190.505v-23.34445h45.91075v23.34445z" fill="#5a5a5a" stroke="#464646" stroke-width="5" stroke-linecap="butt"/><path d="M297.97206,178.05464h-24.90076" fill="none" stroke="#464646" stroke-width="5" stroke-linecap="round"/><path d="M135.33905,164.82611l8.55963,29.56964" fill="none" stroke="#464646" stroke-width="5" stroke-linecap="round"/><path d="M147.01128,163.26981l-14.78483,28.79149" fill="none" stroke="#464646" stroke-width="5" stroke-linecap="round"/><path d="M285.28018,138.59406c0,2.80833 -18.75489,5.08494 -41.89022,5.08494c-23.13533,0 -41.89023,-2.2766 -41.89023,-5.08494c0,-2.80833 18.7549,-5.08494 41.89023,-5.08494c23.13533,0 41.89022,2.2766 41.89022,5.08494z" fill="#5a5a5a" stroke="#464646" stroke-width="5" stroke-linecap="butt"/><path d="M240.24214,146.58468v6.77992" fill="none" stroke="#464646" stroke-width="10" stroke-linecap="round"/><path d="M284.46882,220.59458c0,2.80833 -18.75489,5.08494 -41.89022,5.08494c-23.13533,0 -41.89022,-2.2766 -41.89022,-5.08494c0,-2.80833 18.75489,-5.08494 41.89022,-5.08494c23.13533,0 41.89022,2.27661 41.89022,5.08494z" fill="#5a5a5a" stroke="#464646" stroke-width="5" stroke-linecap="butt"/><path d="M238.30502,204.69828l0.48428,6.77992" fill="none" stroke="#464646" stroke-width="10" stroke-linecap="round"/></g></g></svg>