<svg version="1.1" xmlns="http://www.w3.org/2000/svg" xmlns:xlink="http://www.w3.org/1999/xlink" width="280.23377" height="117.98804" viewBox="0,0,280.23377,117.98804"><g transform="translate(-101.25133,-117.9897)"><g stroke-miterlimit="10"><g stroke-linecap="butt"><path d="M123.50133,215.5v-71h187v71z" fill="#8e8e8e" stroke="#000000" stroke-width="5"/><path d="M311.64933,144.86621l64.59934,34.44663l-63.89603,35.36658z" fill="#8e8e8e" stroke="#000000" stroke-width="5"/><path d="M302.58307,209.62719c0.18251,-2.0131 1.71058,-2.41235 2.50752,-2.48258c-0.00267,-0.25592 0.00903,-0.51929 0.03605,-0.78988c0.02848,-0.28518 0.21095,-0.68726 0.50455,-1.15163c-0.0507,-0.06789 -0.10076,-0.13801 -0.15022,-0.21032c-0.03907,0.02166 -0.07685,0.04252 -0.11333,0.06257l-2.92021,1.64606c-0.40856,0.24053 -0.88474,0.37849 -1.39315,0.37849c-1.51878,0 -2.75,-1.23121 -2.75,-2.75c0,-0.69365 0.25681,-1.32731 0.68055,-1.8111l2.44769,-2.82644l0.13653,0.11822c0.19101,-0.26122 0.40174,-0.50844 0.63684,-0.73834c0.29384,-0.28734 0.64587,-0.45868 1.03327,-0.56023c-0.45984,-2.43929 -0.73744,-5.20802 -0.847,-7.97705c-0.21395,-0.2701 -0.4124,-0.56885 -0.59363,-0.89815c-0.70475,-1.2806 -0.46199,-2.65545 0.30585,-4.05494c-3.06289,-4.08512 -2.43987,-11.57347 0.70343,-16.40111c-0.17892,-1.62532 -0.31577,-3.16666 -0.39783,-4.58677l-0.32825,-0.69835c-0.18295,-0.36817 -0.28582,-0.78315 -0.28582,-1.22216c0,-0.6107 0.19907,-1.17491 0.53585,-1.63127c0.0542,-2.23342 0.35098,-3.89969 0.9792,-4.73847c1.85444,-2.47601 3.42697,-3.50172 4.73005,-3.52444l0.03516,-0.17579l-0.05492,-0.02353c-0.38236,-0.02034 -0.78368,-0.01557 -1.18659,0.00337c0,0 -2.75,0 -2.75,-2.75c0,-2.75 2.75,-2.75 2.75,-2.75c3.69218,0.10086 7.97862,1.05453 9.30558,5.30964c0.39243,1.25839 -0.17934,2.6302 -0.26901,3.94531l-0.09459,0.14721l0.05924,0.01481l-0.65272,2.61086c-0.11052,0.48704 -0.35032,0.92499 -0.68142,1.27585c0.00792,0.00194 0.01586,0.0039 0.02382,0.0059c2.66746,0.66868 1.99879,3.33614 1.99879,3.33614c-0.12428,0.49302 -0.26308,1.29829 -0.42784,2.32267c0.0505,0.18933 0.09943,0.37955 0.14675,0.57039c4.53626,3.09674 5.37778,9.0029 4.46339,14.82307c0.68606,-0.11534 1.32261,-0.10157 1.8883,0.08757c0.62424,-0.16804 1.25876,-0.33974 1.90169,-0.5231l0.30929,0.08281l-0.00695,-0.11756l2.57925,-0.15251c0.06164,-0.00413 0.12383,-0.00623 0.18651,-0.00623c1.51878,0 2.75,1.23121 2.75,2.75c0,0.8204 -0.35925,1.5569 -0.92902,2.06076l-2.29516,2.04799c-0.87494,1.36205 -1.8635,2.66956 -3.38179,4.29583c-0.42031,0.45021 -0.84546,0.91152 -1.29549,1.34208c1.01545,0.00356 2.12222,0.25526 3.39319,0.88185c5.92998,2.92348 3.73362,6.11414 -0.09442,8.84417c-1.00455,0.71642 -2.38052,0.65859 -3.59071,0.89903c-1.80491,0.3586 -3.64012,0.56601 -5.47776,0.73856c0.89079,1.02994 0.52563,2.49055 0.52563,2.49055c-0.41364,1.26091 -0.32742,2.82015 -1.24091,3.78271c-1.96708,2.07274 -4.90981,2.4613 -7.23275,1.50931c-0.47212,0.07274 -0.97666,0.15283 -1.51789,0.26111l-2.10415,-0.10584c0,0 -2.73876,-0.2483 -2.49046,-2.98707z" fill="#8e8e8e" stroke="none" stroke-width="0.5"/><path d="M103.75133,201.5v-42.5h19.5v42.5z" fill="#4b4b4b" stroke="#000000" stroke-width="5"/></g><g><path d="M144.40968,190.09032v-29.75699h29.75699v29.75699z" fill="#6b6b6b" stroke="#000000" stroke-width="2.5" stroke-linecap="butt"/><path d="M155.31075,206v-25.33763h8.24946v25.33763z" fill="#6b6b6b" stroke="#000000" stroke-width="2.5" stroke-linecap="butt"/><path d="M151.48065,188.91183v-11.49032h19.15054v11.49032z" fill="#6b6b6b" stroke="none" stroke-width="0" stroke-linecap="butt"/><path d="M149.12365,190.67957l5.30323,7.36559" fill="none" stroke="#000000" stroke-width="2.5" stroke-linecap="round"/><path d="M163.85484,198.63441l5.59785,-7.66021" fill="none" stroke="#000000" stroke-width="2.5" stroke-linecap="round"/></g><g><path d="M274.40968,190.09033v-29.75699h29.75698v29.75699z" fill="#6b6b6b" stroke="#000000" stroke-width="2.5" stroke-linecap="butt"/><path d="M285.31075,206v-25.33764h8.24946v25.33764z" fill="#6b6b6b" stroke="#000000" stroke-width="2.5" stroke-linecap="butt"/><path d="M281.48064,188.91183v-11.49032h19.15054v11.49032z" fill="#6b6b6b" stroke="none" stroke-width="0" stroke-linecap="butt"/><path d="M284.42688,198.04516l-5.30322,-7.36559" fill="none" stroke="#000000" stroke-width="2.5" stroke-linecap="round"/><path d="M293.85484,198.63441l5.59785,-7.66021" fill="none" stroke="#000000" stroke-width="2.5" stroke-linecap="round"/></g><g><path d="M206.40968,190.95171v-33.75699h33.75699v33.75699z" fill="#525252" stroke="#000000" stroke-width="2.5" stroke-linecap="butt"/><path d="M218.7761,209v-28.74358h9.35838v28.74358z" fill="#525252" stroke="#000000" stroke-width="2.5" stroke-linecap="butt"/><path d="M214.43114,189.61479v-13.03487h21.7248v13.03487z" fill="#525252" stroke="none" stroke-width="0" stroke-linecap="butt"/><path d="M211.75732,191.62016l6.0161,8.35569" fill="none" stroke="#000000" stroke-width="2.5" stroke-linecap="round"/><path d="M228.4687,200.64431l6.35032,-8.68991" fill="none" stroke="#000000" stroke-width="2.5" stroke-linecap="round"/></g><path d="M142.84923,219.60774v-3.40712h32.36762v3.40712z" fill="#393939" stroke="#000000" stroke-width="2" stroke-linecap="butt"/><path d="M206.19613,220.34885v-3.40712h32.36763v3.40712z" fill="#393939" stroke="#000000" stroke-width="2" stroke-linecap="butt"/><path d="M274.22782,218.9605v-3.40712h32.36762v3.40712z" fill="#393939" stroke="#000000" stroke-width="2" stroke-linecap="butt"/><path d="M281.37213,157.23048c0,-2.23297 0.99723,-3.46871 2.10098,-4.15257c-0.10518,-0.40375 -0.16116,-0.82737 -0.16116,-1.26406c0,-0.20338 0.01214,-0.40393 0.03574,-0.60095c-0.04815,-0.02026 -0.09588,-0.04059 -0.14315,-0.06099c-1.37665,1.34254 -3.3533,1.84003 -5.47971,1.93613c-0.3214,0.90067 -0.76352,1.93083 -1.34495,3.10665c-1.42757,2.88695 -5.66424,3.35587 -8.83778,3.90459c-4.8649,0.84116 -13.55341,-2.8094 -15.14016,-7.74748c-0.85376,-2.65694 1.33843,-5.61869 3.1144,-7.7714c2.20497,-2.67271 5.72468,-3.92489 8.37561,-6.156c0.70688,-0.59493 1.32368,-1.2813 1.8731,-2.02857c-0.06897,-0.33094 -0.10522,-0.67389 -0.10522,-1.02531c0,-1.42818 0.59879,-2.71651 1.55901,-3.62763c0.21093,-1.08 0.48289,-2.12369 1.16031,-2.95485c0.10394,-0.12753 0.2097,-0.25327 0.31717,-0.37732l-0.10839,-0.05852l2.66701,-4.93955c0.82988,-1.61209 2.51035,-2.71467 4.44834,-2.71467c2.76142,0 5,2.23858 5,5c0,0.51824 -0.07884,1.01807 -0.22519,1.48814l-0.65492,2.28597c1.78298,-0.48465 3.76987,-0.86875 5.41393,-0.13019c2.20865,0.99219 4.0566,3.34258 5.14307,6.05892c0.78059,0.01486 1.68348,0.18891 2.50394,0.73541c0.89009,-0.81738 2.07726,-1.31635 3.38098,-1.31635c0.72607,0 1.41599,0.15476 2.03858,0.43309l3.58559,1.50561c0.25323,-1.5757 0.5778,-3.14053 0.95954,-4.68676l-0.00003,0.00001l0.74724,-3.16714c0.4821,-2.25768 2.48819,-3.9508 4.88974,-3.9508c2.37844,0 4.369,1.6607 4.8754,3.8858l0.75044,2.99363l-0.22152,0.05553c0.0688,0.12083 0.13483,0.24225 0.19799,0.3645c1.09006,-1.48954 2.05553,-3.06384 2.69299,-4.776l1.11284,-3.14444c0.65492,-1.99828 2.53508,-3.4415 4.75233,-3.4415c2.76142,0 5,2.23858 5,5c0,0.3504 -0.03604,0.69239 -0.10463,1.02245l-1.14535,6.09186l-0.34534,-0.06493c0.00252,0.34025 -0.00532,0.68092 -0.02493,1.02208c0.44443,-0.17202 0.90935,-0.35889 1.39605,-0.56666l2.68518,-1.42819c0.71985,-0.40149 1.54919,-0.63026 2.43195,-0.63026c2.76142,0 5,2.23858 5,5c0,0.29754 -0.02599,0.58901 -0.07582,0.87227l-0.56763,3.58519l-0.44514,-0.07048c-0.03575,0.7125 -0.14571,1.41591 -0.36284,2.10619c-0.1525,0.48482 -0.43012,0.88217 -0.7886,1.22124c2.99855,2.85574 6.82681,9.27685 3.13318,13.33773c-2.01248,2.21257 -5.69418,3.2425 -9.26439,3.29459c-0.27486,2.50156 -2.39508,4.44774 -4.96985,4.44774c-0.69489,0 -1.35666,-0.14175 -1.95799,-0.39792l-1.5949,-0.63622c0.01161,0.85269 0.01502,1.70537 0.01586,2.55712l-0.07777,0.13498l0.07197,0.00401l-0.19214,3.44921c-0.12784,2.64754 -2.31488,4.75481 -4.99409,4.75481c-2.43149,0 -4.45761,-1.73561 -4.90706,-4.03552l-0.13272,-0.61216c-0.59746,0.25228 -1.25417,0.39176 -1.94347,0.39176c-2.76142,0 -5,-2.23858 -5,-5c0,-0.03 0.00026,-0.05994 0.00079,-0.08982l-1.57785,0.62942c-0.60133,0.25617 -1.26312,0.39793 -1.95801,0.39793c-2.76142,0 -5,-2.23858 -5,-5c0,-0.90582 0.24088,-1.75539 0.66207,-2.48813c-0.29748,-0.30196 -0.55685,-0.64157 -0.77032,-1.01102c-0.83211,-0.04459 -1.62562,-0.14454 -2.36137,-0.31427c-0.75242,0.94099 -1.44949,1.77529 -1.98744,2.45837l-4.12147,1.9057c0,0 -5,0 -5,-5z" fill="#ff0000" stroke="none" stroke-width="0.5" stroke-linecap="butt"/><path d="M185.69904,220.15089c-1.20957,4.85149 -6.06106,3.64192 -6.06106,3.64192l-3.83554,-0.95649c-0.58238,-0.14454 -1.16476,-0.28908 -1.74714,-0.43362c-6.71964,4.05131 -17.41749,3.32542 -20.57243,-2.48109c-0.82943,0.97064 -2.17401,1.74961 -4.33454,1.46075c-1.34118,-0.17931 -2.27088,-0.67305 -2.91359,-1.2979c-0.8017,1.11547 -2.07881,1.95891 -4.0066,2.31974c-1.24535,0.23309 -3.00977,-0.1114 -4.74898,-0.87847c-2.25093,1.8044 -4.94111,3.00694 -8.32386,3.49897c-4.47094,0.65031 -11.71461,2.14732 -12.64168,-5.59781c-0.13251,-1.10705 3.00584,-6.16167 5.63037,-9.97285c-0.91118,-0.68462 -1.60078,-1.47781 -1.69105,-2.56461c-0.03993,-0.48071 0.24085,-1.41414 0.75843,-2.50048c-0.29139,-0.63449 -0.45386,-1.34047 -0.45386,-2.0844c0,-2.76142 2.23858,-5 5,-5c0.28872,0 0.57173,0.02447 0.84706,0.07145l4.95466,0.76018l-0.03126,0.20378c0.18236,-0.03219 0.36472,-0.06437 0.54708,-0.09656l0.40878,0.40538l0.09288,-0.24448l2.45173,0.93145c0.423,-0.63008 0.87505,-1.20879 1.56159,-1.44024h0.00002c3.43224,-1.15706 11.56275,-1.78548 13.95183,2.80171c0.38006,0.72974 0.69607,1.5309 0.92775,2.36519c1.10207,-1.26084 1.91525,-2.74993 2.86743,-4.1292l0.97588,-2.10864c0.77107,-1.76704 2.53374,-3.00213 4.58489,-3.00213c2.24778,0 4.14913,1.48325 4.77869,3.52439l1.20632,3.6091c0.88728,0.52707 1.71519,1.16975 2.46867,1.89052c3.3258,-0.53648 6.71858,0.10946 8.89448,2.60224c0.16925,-0.29644 0.34138,-0.58334 0.53754,-0.79062l1.47966,1.16073c0.01527,-0.00441 0.03057,-0.00875 0.0459,-0.01302l0.3064,-0.86025l2.60608,0.92821c1.99336,0.65776 3.43202,2.53547 3.43202,4.74921c0,1.69612 -0.84454,3.195 -2.13605,4.09903c1.31698,0.77835 2.93957,2.38841 2.1815,5.42893zM130.63077,214.37212c0.10704,-0.06356 0.21011,-0.12689 0.30947,-0.19008c-0.04805,-0.03546 -0.09526,-0.0717 -0.14155,-0.10878c-0.05713,0.0988 -0.11301,0.1985 -0.16792,0.29886z" fill="#ff0000" stroke="none" stroke-width="0.5" stroke-linecap="butt"/><path d="M155.34447,164.89319c-0.27215,-0.10641 -0.54022,-0.22076 -0.80469,-0.34214l-0.04779,0.1491l-5.32251,-1.70615c-2.0711,-0.61108 -3.58263,-2.52716 -3.58263,-4.79626c0,-1.99801 1.17193,-3.72231 2.8659,-4.52298l2.16265,-1.07838c0.41295,-0.22739 0.82443,-0.45744 1.23492,-0.68929l-5.67592,-1.17481c-2.32157,-0.4322 -4.07917,-2.46854 -4.07917,-4.91538c0,-2.67967 2.10798,-4.86699 4.75614,-4.99416l3.39337,-0.18801c0.60013,-0.0547 2.65238,-0.2741 4.6466,-0.41165c-0.01414,-0.01856 -0.02831,-0.03707 -0.04254,-0.05553c-0.62936,-0.37403 -1.31345,-0.69063 -2.07171,-0.93306l-2.24394,-0.51642c-2.27048,-0.47234 -3.97641,-2.48452 -3.97641,-4.89513c0,-2.76142 2.23858,-5 5,-5c0.42365,0 0.83499,0.05269 1.22783,0.15187l2.41529,0.55586v0l2.52172,0.58035l-0.04827,0.20972c0.32746,0.09901 0.65415,0.19946 0.97682,0.30736c0.135,-0.02568 0.28249,-0.02007 0.44467,0.02232c0.27175,0.07102 0.53291,0.16283 0.78453,0.27298l-0.68274,-2.38311c-0.14634,-0.47007 -0.22519,-0.96989 -0.22519,-1.48812c0,-2.76142 2.23858,-5 5,-5c0.48578,0 0.95537,0.06928 1.39945,0.19849c0.88648,-1.39827 2.44781,-2.32645 4.22593,-2.32645c1.26173,0 2.41431,0.46735 3.29407,1.23838c0.87796,-1.43868 2.46238,-2.39908 4.27112,-2.39908c2.12481,0 3.94005,1.32539 4.66409,3.19454c1.50551,-0.6709 3.00603,-1.35286 4.50016,-2.04873l0.22411,0.02727l-0.03617,-0.09974l4.1586,-1.5081c0.56224,-0.21892 1.17387,-0.33905 1.81355,-0.33905c2.76142,0 5,2.23858 5,5c0,2.1235 -1.32376,3.93781 -3.19108,4.66275c0.16297,0.20864 0.30974,0.43055 0.43842,0.66383l2.08831,-1.56196c0.84167,-0.64398 1.89393,-1.02659 3.03555,-1.02659c1.96734,0 3.66929,1.13622 4.48545,2.78825c0.37388,-0.07861 0.75221,-0.1306 1.13475,-0.15021c0.02719,-0.00139 0.05437,-0.00267 0.08155,-0.00384l-0.00817,-0.02294l2.60627,-0.92828c0.55494,-0.21243 1.15741,-0.32882 1.78706,-0.32882c2.76142,0 5,2.23858 5,5c0,1.94381 -1.10921,3.62856 -2.72921,4.4558l-3.04035,1.62927c0.89509,0.36669 1.63971,0.92147 2.13379,1.72645l0.15036,-0.03999c0.4428,-0.1284 0.91092,-0.19723 1.39511,-0.19723c2.76142,0 5,2.23858 5,5c0,1.53306 -0.68996,2.90496 -1.77629,3.82215l-2.69059,2.29993l-0.05776,-0.06757l-0.08864,0.18798c-1.62601,1.18076 -3.3154,2.30757 -5.0573,3.36795c-0.02554,0.20587 -0.03663,0.41265 -0.03129,0.61936c0.04188,1.61958 1.32264,2.97516 1.72037,4.5457c1.1716,4.62643 5.99739,16.45848 -6.75065,14.94824c-1.28381,-0.15209 -2.33689,-0.38154 -3.20814,-0.674c-0.02645,0.29551 -0.06964,0.58947 -0.13417,0.88144c-0.33232,1.50342 -1.62905,2.61324 -2.44357,3.91986l-7.01552,4.03201c-1.90925,-3.78594 -2.80212,-5.68477 -3.36477,-7.67674c-0.1244,0.20188 -0.24388,0.40561 -0.35412,0.61278c-1.02833,1.93251 -1.49742,4.28826 -3.08102,5.79965c-2.19631,2.09615 -5.12716,5.9815 -7.84479,4.62794c-3.48179,-1.73417 -4.77053,-6.07497 -6.03793,-9.96777l-1.1973,1.30257c-0.91433,1.00137 -2.23047,1.6296 -3.69333,1.6296c-2.76142,0 -5,-2.23858 -5,-5c0,-0.5233 0.08039,-1.02782 0.2295,-1.50189c-2.23981,-0.49552 -3.9151,-2.49311 -3.9151,-4.88198c0,-0.23765 0.01658,-0.47143 0.04865,-0.70025l0.20347,-1.62331c-0.35892,-0.06696 -0.68478,-0.15537 -0.96934,-0.26664z" fill="#ff0000" stroke="none" stroke-width="0.5" stroke-linecap="butt"/><path d="M288.93581,198.94684c0.25398,1.40293 0.63603,2.77818 1.08596,4.13475c0.37578,-0.74871 0.75881,-1.47883 1.43725,-1.78319v-0.12073c-0.06049,-0.27258 -0.12027,-0.54561 -0.17983,-0.81886l0.17983,-0.26401v-0.48237l-0.17916,-0.01382l0.19057,-2.4708c0.175,-2.60265 2.34159,-4.65956 4.98859,-4.65956c2.76142,0 5,2.23858 5,5v2.93066c0.37387,1.41808 0.87958,3.25843 1.37778,4.0983c0.10587,0.17848 0.2526,0.33141 0.41968,0.47078c0.12357,-0.26012 0.30246,-0.47406 0.53927,-0.59834c0.07824,-0.04106 0.15677,-0.08145 0.23557,-0.12117l-0.04926,-0.05488l3.86494,-3.46898c0.88708,-0.80301 2.06363,-1.29214 3.35442,-1.29214c2.76142,0 5,2.23858 5,5c0,1.33537 -0.52349,2.54847 -1.37645,3.44528l-1.72926,1.826c0.00138,0.04828 0.00207,0.09673 0.00207,0.14534c0,1.50067 -0.66111,2.84693 -1.70798,3.76341c-0.20996,0.65834 -0.85691,1.28569 -2.14396,1.87077l-4.06796,3.54977l-0.02829,-0.03242c-0.03248,0.04631 -0.06504,0.09256 -0.09769,0.13875c-0.4486,0.63463 -1.42944,0.92347 -2.14102,1.3395l-0.20428,0.86581c-0.01578,0.07389 -0.03319,0.14717 -0.05219,0.21982l0.79322,1.35608c0.46136,0.75715 0.72713,1.64656 0.72713,2.59804c0,2.76142 -2.23858,5 -5,5c-1.57233,0 -2.97514,-0.72576 -3.89173,-1.86055l-0.41067,-0.50056c-5.83557,5.64684 -13.70142,12.2652 -19.03669,3.7481c-0.60881,-0.97189 -0.67524,-2.58762 -0.4042,-4.34028c-0.84552,0.04001 -1.60895,0.04838 -2.21436,0.05139c-1.88277,0.00936 -3.86203,0.40857 -5.64495,-0.19649v0v0l-5.40972,-0.19268c-2.6891,-0.08257 -4.8437,-2.28847 -4.8437,-4.9976c0,-2.11104 1.30828,-3.91652 3.15828,-4.64988c-1.28568,-0.63673 -2.52871,-1.38154 -3.70804,-2.3076l-4.03575,-2.09988c-1.65065,-0.81665 -2.78571,-2.51787 -2.78571,-4.4842c0,-2.76142 2.23858,-5 5,-5c0.08041,0 0.16038,0.0019 0.23986,0.00565l4.62324,0.19211l-0.0013,0.03133c0.05192,-0.00781 0.10392,-0.01531 0.156,-0.0225c2.66017,-0.36706 5.31836,0.88232 8.00032,0.9734c0.574,-2.1285 2.51805,-3.69486 4.82795,-3.69486h2.52173c0.09794,0.00002 0.19588,-0.00005 0.29382,-0.0002l-0.30116,-1.35155c-0.09356,-0.38225 -0.14317,-0.78175 -0.14317,-1.19283c0,-2.45086 1.76336,-4.48986 4.09058,-4.9175c0.91139,-1.22412 2.36965,-2.01701 4.01309,-2.01701c2.40154,0 4.40764,1.69312 4.88974,3.9508l0.75256,3.18972l-0.05844,0.01379z" fill="#ff0000" stroke="none" stroke-width="0.5" stroke-linecap="butt"/><path d="M180.72422,134.5262c0.07147,0.44471 0.18219,0.89303 0.31144,1.34307c0.22587,0.25372 0.4508,0.51071 0.68706,0.74924l1.37086,-2.12665c0.66198,-1.06282 1.84107,-1.77019 3.18538,-1.77019c2.07107,0 3.75,1.67893 3.75,3.75c0,0.70223 -0.19302,1.35939 -0.52891,1.92129l-0.11088,0.19351c1.14406,-0.56457 2.31601,-1.06086 3.5332,-1.43901l-0.00001,-0.00003l3.02018,-0.94124c0.37654,-0.127 0.77985,-0.19585 1.19923,-0.19585c2.07107,0 3.75,1.67893 3.75,3.75c0,1.17003 -0.53584,2.2149 -1.37551,2.90261l-2.28562,1.8995c-0.518,0.78196 -1.13211,1.49844 -1.96242,2.21295c0.95369,0.12657 1.91034,0.26576 2.84897,0.26696l0.19181,0.08259l0.00712,-0.06668l5.38784,0.5757c1.90464,0.17877 3.39514,1.78204 3.39514,3.73343c0,1.63965 -1.05232,3.03352 -2.51843,3.54308l-3.02167,1.13004l-0.05007,-0.13389c-0.19357,0.11175 -0.39203,0.21597 -0.59605,0.31161c-1.60668,0.75311 -3.54856,0.04782 -5.32294,0.05987c-0.9265,0.0063 -1.90547,0.28518 -2.80109,0.11558c1.4988,3.29892 2.49772,7.54127 -3.26498,9.58202c-3.9795,1.40926 -6.24129,-1.52063 -7.37378,-4.69868c-1.55318,2.02648 -3.42134,4.08016 -4.5426,5.84258l-1.32404,2.07498c-0.66013,1.0715 -1.84417,1.78579 -3.19505,1.78579c-0.93351,0 -1.78735,-0.3411 -2.44369,-0.90547c-0.40658,0.16109 -0.8073,0.25609 -1.19387,0.27182c-8.49533,0.34562 -8.92748,-4.026 -7.5222,-9.33674c-0.63765,-0.62495 -1.05307,-1.47579 -1.11677,-2.42301l-0.38541,-4.99668l0.15507,-0.01196l-0.15932,-0.50305c0.64106,-2.37182 0.18902,-5.375 1.92317,-7.11546c0.82461,-0.82761 1.63772,-1.44458 2.43322,-1.87637c0.06164,-0.57626 0.10578,-1.11719 0.11925,-1.60559c0.05025,-1.82131 -1.07729,-4.1922 0.23017,-5.46115c1.81016,-1.75684 4.43984,-1.94728 6.72279,-1.23071l-0.17911,-3.7509c-0.0037,-0.06828 -0.00558,-0.13705 -0.00558,-0.20625c0,-2.07107 1.67893,-3.75 3.75,-3.75c1.55136,0 2.8827,0.94204 3.45317,2.28529l1.71078,3.79136l-0.15088,0.06808zM179.82507,151.37148c0.12503,-0.087 0.25374,-0.17294 0.38571,-0.25733l-2.5965,0.53946c0.13992,1.09852 -0.10752,2.55762 -1.92502,3.5701c-0.02515,0.01401 -0.05021,0.02772 -0.07518,0.04113c0.12756,0.18844 0.23843,0.38909 0.33049,0.59985c1.38518,-1.98256 2.7753,-3.72415 3.88051,-4.49321z" fill="#ff7b00" stroke="none" stroke-width="0.5" stroke-linecap="butt"/><path d="M320.49369,165.31924c-1.80587,-1.44863 -1.60254,-3.1178 -1.18254,-4.18309c-0.18594,-0.13265 -0.37194,-0.28398 -0.5578,-0.45534c-1.65169,-1.52289 -2.80903,-2.76634 -3.5768,-3.77919c-0.39682,-0.00393 -0.79275,-0.05122 -1.18753,-0.15411c-1.88202,-0.4905 -2.68577,-2.94495 -3.36252,-4.7683c-0.2322,-0.62562 1.59098,-1.89693 0.9359,-1.76972c-2.0102,0.39036 -3.76409,3.68938 -5.53606,2.66302c-1.41716,-0.82085 -2.38801,-1.56859 -3.01447,-2.25037c-1.9652,1.2839 -4.34712,1.99382 -7.75372,1.52949c-1.69891,-0.23157 -1.69106,-2.72174 -1.95383,-4.68777c-1.93576,2.18369 -6.84623,6.76746 -10.25387,4.5013c-0.89677,-0.59637 -1.15469,-1.70894 -1.14784,-2.91338c-3.3788,2.842 -9.30311,6.26558 -12.86606,3.84354c-1.89926,-1.29109 -1.14465,-4.51159 -0.96817,-6.82265c-1.56533,-0.45073 -2.71037,-1.89365 -2.71037,-3.60402c0,-1.32409 0.68625,-2.48791 1.72248,-3.15517l4.02486,-2.67594l0.08662,0.13028l0.20714,-0.30678c1.29234,-0.51987 2.49908,-1.35552 3.87703,-1.55961c5.50425,-0.81525 9.85799,2.94235 12.4325,7.33491c0.26296,-0.20189 0.52792,-0.39914 0.78485,-0.59735c2.01427,-1.55397 3.77991,-4.24337 6.32378,-4.27305c2.74497,-0.03203 5.12129,2.85984 5.78083,5.67855c0.82413,-0.98401 1.71329,-1.97557 2.13739,-2.45876l0.16898,-0.07609l-0.04115,-0.04539l2.12387,-1.92551c0.66677,-0.6092 1.55433,-0.98079 2.52867,-0.98079c1.97383,0 3.59149,1.52499 3.73903,3.46103l0.30256,3.47015c0.85617,-0.90051 1.76437,-1.61506 2.77464,-1.24948c3.63523,1.31547 4.18378,3.17022 3.93329,4.53078l0.29995,-0.43208c0.67372,-0.99869 1.81565,-1.65545 3.11099,-1.65545c2.07107,0 3.75,1.67893 3.75,3.75v0.92174l1.49015,-1.15585c0.63909,-0.50568 1.4468,-0.80758 2.32503,-0.80758c2.07107,0 3.75,1.67893 3.75,3.75c0,0.46959 -0.08632,0.91903 -0.24395,1.3333l-1.13479,3.20647l-0.08363,-0.0296c-0.03891,0.17795 -0.08407,0.35497 -0.13619,0.53097c-0.64198,2.16747 -2.65072,3.6625 -3.97609,5.49374l-1.65151,2.0645c0,0 -2.34649,2.92515 -5.27164,0.57866zM275.3247,144.22797c0.58477,-0.47351 1.29807,-1.03629 2.06626,-1.61738c-0.71973,-0.09755 -1.49876,0.01555 -2.32637,0.40097l-0.01053,0.007c0.10263,0.40082 0.19292,0.80435 0.27065,1.20941z" fill="#ff7b00" stroke="none" stroke-width="0.5" stroke-linecap="butt"/><path d="M273.56277,216.93987c-1.69538,-0.35996 -2.96734,-1.86554 -2.96734,-3.6682c0,-0.68061 0.18132,-1.31887 0.49829,-1.86912c0.55298,-1.28379 1.80243,-2.19703 3.27249,-2.26386l3.66224,-0.19222l0.00264,0.05038c0.81236,-0.11724 1.71618,-0.02041 2.97036,0.34807c-0.19644,-0.7023 -0.08737,-1.17725 0.21282,-1.49161c-0.7661,-3.08949 -0.86481,-6.44892 2.22335,-7.0763c14.48208,-2.94215 7.52575,4.91459 6.17939,7.87764c0.01965,0.09012 0.03862,0.18071 0.05728,0.2715c0.2527,-0.27291 0.67584,-0.79421 0.94154,-0.95203c0.72401,-0.43004 1.53173,-0.73328 2.20674,-1.23348l1.26268,-1.88884c0.66814,-1.03151 1.82922,-1.71403 3.14971,-1.71403c2.07107,0 3.75,1.67893 3.75,3.75c0,0.09053 -0.00321,0.1803 -0.00952,0.26922l-0.1672,2.66766c0.00205,0.29379 -0.02411,0.57447 -0.0847,0.83569c0.18502,0.02696 0.36647,0.06218 0.54528,0.10504l0.00629,-0.06622l4.03406,0.38315c1.92364,0.16001 3.43495,1.77199 3.43495,3.73695c0,2.00197 -1.56876,3.63753 -3.54405,3.74444l-3.07633,0.19175l-0.00983,-0.15774l-0.2931,0.16436c-1.02571,-0.15946 -2.12716,-0.11214 -3.18111,-0.1945c-0.42051,0.2337 -0.81046,0.52562 -1.19093,0.82944c2.32069,2.27118 2.61592,4.65677 -2.29012,8.84903c-1.44821,1.23751 -3.73244,0.7641 -5.59867,1.14615l-3.38183,0.01033c0,0 -1.92152,0 -3.01361,-1.37547c-0.39208,0.13907 -0.81415,0.21476 -1.2539,0.21476c-1.90115,0 -3.47187,-1.41474 -3.71681,-3.24888l-0.14357,-0.95456l-1.21548,-0.44079c-1.48448,-0.49932 -2.55372,-1.90237 -2.55372,-3.55514c0,-1.04571 0.42803,-1.99146 1.11844,-2.67159z" fill="#ff7b00" stroke="none" stroke-width="0.5" stroke-linecap="butt"/><path d="M181.69851,222.16039c-2.50484,2.79075 -5.29559,0.28591 -5.29559,0.28591l-0.64105,-0.98106c-0.50567,0.10405 -1.036,0.14204 -1.57637,0.12012c-0.13708,0.36133 -0.34546,0.738 -0.64349,1.12649c-2.2825,2.97535 -5.25785,0.69285 -5.25785,0.69285c-1.22178,-0.9393 -4.45395,-3.2999 -5.34252,-4.51615c-0.29951,-0.40996 -0.1352,-1.14103 -0.26907,-1.61596c-1.96144,0.93825 -4.03812,1.62171 -6.07391,1.85707c-1.3293,0.15368 -3.28136,-0.67819 -5.00928,-1.72484c-0.08815,0.00331 -0.17629,0.00458 -0.26441,0.00356c-2.07544,-0.02402 -4.00203,-1.38083 -6.07745,-1.35535c-0.15831,0.00194 -0.31697,0.00287 -0.4759,0.00312c-0.71949,0.15294 -1.38533,0.20639 -1.84409,0.08938c-0.0934,-0.02382 -0.19172,-0.05566 -0.29428,-0.095c-1.40028,0.01071 -2.79417,0.0895 -4.1283,0.47097c-0.92041,0.26317 -1.61777,1.11022 -2.53595,1.35683c-0.1552,0.09461 -0.31374,0.18211 -0.47532,0.26316l0.0737,0.12933l-4.01615,2.28869c-0.56032,0.33324 -1.21487,0.52462 -1.91411,0.52462c-2.07107,0 -3.75,-1.67893 -3.75,-3.75c0,-0.91653 0.3288,-1.75626 0.87488,-2.40767l2.69929,-3.26877l0.68514,0.56577l0.72983,-1.62506c0.37903,-0.00294 0.76136,0.02182 1.14368,0.04655c0.60153,-5.72613 4.36468,-14.16534 9.54977,-11.73719c4.25393,1.99209 3.95305,6.28971 3.29915,9.64297c0.19438,0.00145 0.38855,0.0032 0.58244,0.00506c0.2365,0.00227 0.47095,0.02284 0.70383,0.05735c1.09138,-1.01667 2.55761,-2.3573 3.54706,-2.12687c1.35936,0.31658 2.06176,1.7481 2.85872,3.04528c0.35415,-0.17352 0.70897,-0.3468 1.09145,-0.3725c1.69984,-0.11425 3.429,-0.05254 5.10464,0.25526c0.5319,0.0977 0.95876,0.54131 1.42698,0.82748c3.34825,-2.38389 6.59104,-6.36035 10.12786,-5.00361c3.10924,1.19271 1.4037,6.9565 3.84578,9.2206c0.98207,0.91049 2.6773,-0.08596 4.01647,-0.09504l3.23852,2.50106c0,0 2.79075,2.50484 0.28591,5.29559z" fill="#ff7b00" stroke="none" stroke-width="0.5" stroke-linecap="butt"/><path d="M184.9416,148.37252c1.08316,-0.05084 2.44663,0.31281 3.33543,2.09527c1.6734,3.35593 -1.68253,5.02932 -1.68253,5.02932c-3.4524,1.44181 -6.56104,2.49142 -8.98535,-0.79306l-0.44569,0.25928c-0.56629,0.34331 -1.23072,0.54095 -1.9413,0.54095c-2.07107,0 -3.75,-1.67893 -3.75,-3.75c0,-0.59099 0.13671,-1.15005 0.38024,-1.64728l1.13041,-2.44257l0.48737,0.22555c0.17707,-0.61325 0.42633,-1.19719 0.78536,-1.73658c0.86026,-1.2924 3.05317,-0.5653 4.57976,-0.84796l2.40023,-0.00948c0,0 3.28639,0 3.70608,3.07655z" fill="#ffc500" stroke="none" stroke-width="0.5" stroke-linecap="butt"/><path d="M323.24914,154.6444c-0.5687,3.70663 -4.27533,3.13792 -4.27533,3.13792l-2.76688,-0.43291c-4.71347,-1.40136 -9.65053,-0.89377 -14.34245,-2.42579c-2.00767,-0.65555 -3.81085,-1.85045 -5.81598,-2.51373c-1.9108,-0.63208 -3.94387,-0.88176 -5.81722,-1.61744c-1.57442,-0.61829 -2.64296,-2.50069 -4.32789,-2.64937c-0.57392,-0.05064 -0.94342,0.71135 -1.50071,0.85755c-1.62877,0.42729 -3.32058,0.56189 -4.98086,0.84284c0,0 -3.69925,0.61486 -4.31411,-3.08438c-0.61486,-3.69925 3.08438,-4.31411 3.08438,-4.31411c1.44337,-0.23492 2.90062,-0.39645 4.33011,-0.70477c1.32798,-0.28643 2.58008,-1.22336 3.93068,-1.07696c2.90207,0.31456 4.12263,2.21198 6.53497,3.15416c3.59194,1.40289 7.60592,2.75217 11.25632,3.99376c4.34809,1.47889 9.14121,0.92832 13.59054,2.21703l2.27652,0.34089c0,0 3.70663,0.5687 3.13792,4.27533z" fill="#ffc500" stroke="none" stroke-width="0.5" stroke-linecap="butt"/><path d="M295.07673,215.55549c0.0039,0.01762 0.0077,0.03516 0.0114,0.05265c0.0646,0.0871 0.12431,0.17887 0.17857,0.27583c0.80159,1.43223 0.03268,3.28243 0.04902,4.92364c0,0 -0.57171,3.70616 -4.27787,3.13446c-3.70616,-0.57171 -3.13446,-4.27787 -3.13446,-4.27787c0.1673,-0.02152 0.38408,-0.14442 0.56002,-0.18364l2.14075,-6.77484c0,0 3.66117,-0.81139 4.47256,2.84978z" fill="#ffc500" stroke="none" stroke-width="0.5" stroke-linecap="butt"/><path d="M138.96582,218.87464c-1.04106,0.41842 -3.03109,0.80814 -4.49839,-1.39882c-2.07619,-3.12281 1.04661,-5.199 1.04661,-5.199l3.18705,-0.97661c5.19421,0.81339 10.83998,-0.42403 16.13443,-0.42434c3.24386,-0.00019 7.24576,0.84156 10.47648,0.24158c4.0504,-0.75221 5.77912,-3.72191 10.84301,-0.46105c1.46834,0.94553 0.96546,3.3568 1.44819,5.0352c0,0 0.28838,3.7389 -3.45052,4.02727c-2.29735,0.17719 -3.29198,-1.16609 -3.71744,-2.22825c-0.9905,0.65968 -2.74517,0.83216 -3.92489,1.03047c-0.34735,0.05839 -7.16461,0.05475 -7.47338,0.04722c-6.59171,-0.16076 -13.53011,0.92255 -20.07115,0.30633z" fill="#ffc500" stroke="none" stroke-width="0.5" stroke-linecap="butt"/></g></g></svg>